<svg width="20" height="20" viewBox="0 0 20 20" fill="none" xmlns="http://www.w3.org/2000/svg">
<g id="Icon/Navigation/16px/Close">
<path id="Vector" d="M17.5069 1.46503L10.5025 8.46944C10.2157 8.75615 9.76092 8.75615 9.4985 8.46944L2.49313 1.46503C2.20643 1.17832 1.7516 1.17832 1.48918 1.46503C1.20247 1.75174 1.20247 2.20657 1.48918 2.46899L8.49454 9.47435C8.78125 9.76106 8.78125 10.2159 8.49454 10.4783L1.46503 17.5069C1.17832 17.7936 1.17832 18.2484 1.46503 18.5108C1.75174 18.7975 2.20657 18.7975 2.46899 18.5108L9.47435 11.5055C9.76106 11.2187 10.2159 11.2187 10.4783 11.5055L17.5069 18.535C17.7936 18.8217 18.2484 18.8217 18.5108 18.535C18.7975 18.2483 18.7975 17.7934 18.5108 17.531L11.5298 10.5015C11.2431 10.2148 11.2431 9.75996 11.5298 9.49754L18.5352 2.49218C18.8219 2.20547 18.8219 1.75064 18.5352 1.48822C18.2485 1.20151 17.7946 1.20151 17.507 1.46487L17.5069 1.46503Z" fill="#595454" stroke="#595454" stroke-width="0.4"/>
</g>
</svg>
