<svg width="80" height="80" viewBox="0 0 80 80" fill="none" xmlns="http://www.w3.org/2000/svg">
<path d="M13.4704 70.8397V71.0397H13.6704H16.31H16.51V70.8397V54.5122H16.5102L16.5097 54.5023C16.3737 51.7568 17.257 49.0547 18.9951 46.914C20.3556 45.5201 22.1306 44.6088 24.06 44.324L24.2308 44.2988V44.1262V41.4567V41.2294L24.0053 41.2583C21.2606 41.6102 18.7273 42.8971 16.8237 44.8978L16.8235 44.8976L16.8162 44.9062C14.5206 47.6087 13.3251 51.0783 13.4704 54.6231V70.8397Z" fill="white" stroke="white" stroke-width="0.4"/>
<path d="M63.218 44.908L63.2183 44.9077L63.2091 44.898C61.3051 42.9171 58.7719 41.6505 56.0424 41.3086L55.8175 41.2804V41.507V44.1863V44.3566L55.9856 44.3838C57.8668 44.6879 59.6035 45.5897 60.9397 46.9546C62.7124 49.1201 63.6203 51.8618 63.4891 54.6568L63.4889 54.6568V54.6662V70.8405V71.0405H63.6889H66.3235H66.5235V70.8405V54.7103C66.698 51.1419 65.5175 47.6443 63.218 44.908Z" fill="white" stroke="white" stroke-width="0.4"/>
<path d="M25.1089 22.4744C25.1189 30.5991 31.6434 37.2084 39.754 37.3626L39.753 37.3663H40.018C46.0464 37.3663 51.483 33.7388 53.7874 28.1818C56.0967 22.6247 54.8214 16.2259 50.5647 11.9665L50.5645 11.9663C46.3028 7.71235 39.8927 6.43471 34.3204 8.73455L34.3203 8.73458C28.7536 11.0344 25.1139 16.4558 25.1089 22.474L25.1089 22.4744ZM28.0349 22.4746C28.0398 15.8871 33.3785 10.5477 39.9734 10.5237L40.0177 10.5237C44.8598 10.5286 49.2192 13.4411 51.0702 17.9092C52.9163 22.3722 51.8885 27.5113 48.4644 30.9244L48.4643 30.9245C45.04 34.3424 39.8912 35.3588 35.4192 33.511C30.9477 31.6585 28.035 27.3021 28.0349 22.4746Z" fill="white" stroke="white" stroke-width="0.4"/>
<path d="M54.5062 51.2653V51.0653H54.3062H51.7705H51.5705V51.2653V53.4035H49.4131H49.2131V53.6035V56.1345V56.3345H49.4131H51.5705V58.4876V58.6876H51.7705H54.3062H54.5062V58.4876V56.3345H56.6537H56.8537V56.1345V53.6035V53.4035H56.6537H54.5062V51.2653Z" fill="white" stroke="white" stroke-width="0.4"/>
<path d="M59.6156 25.0064V25.006V22.475V22.275H59.4156H56.6274H56.4274V22.475V25.006C56.4274 34.075 49.059 41.4309 39.967 41.4309C30.8754 41.4309 23.5065 34.0754 23.5065 25.006V22.475V22.275H23.3065H20.5183H20.3183V22.475L20.3183 25.006L20.3183 25.0064C20.3283 29.9858 22.2347 34.7803 25.6571 38.4107C29.0316 41.9959 33.6353 44.1835 38.5483 44.5407V62.2472C36.1248 62.989 34.5767 65.3754 34.92 67.9012C35.2651 70.4723 37.4647 72.3951 40.0656 72.3951C42.6663 72.3951 44.871 70.4727 45.2162 67.9012L45.2162 67.9011C45.5591 65.3419 43.9699 62.9251 41.485 62.2182V44.5403C46.3782 44.1588 50.9574 41.9615 54.312 38.3812C57.7143 34.7504 59.6056 29.9709 59.6156 25.0064ZM40.0172 69.3262V69.3262C39.1521 69.3262 38.3682 68.8014 38.0377 68.006L38.0375 68.0055C37.7024 67.2055 37.8833 66.2881 38.495 65.673C39.1065 65.0582 40.0258 64.8728 40.8275 65.2028L40.8288 65.2034C41.6348 65.5288 42.1598 66.3058 42.1646 67.1686C42.1644 68.3525 41.2047 69.3163 40.0172 69.3262Z" fill="white" stroke="white" stroke-width="0.4"/>
</svg>
