<svg width="20" height="20" viewBox="0 0 20 20" fill="none" xmlns="http://www.w3.org/2000/svg">
<path d="M2.60711 4.6H3.82139V16.888C3.82443 18.0527 4.77992 18.9969 5.95854 19H15.0657C16.2352 18.9835 17.1755 18.0437 17.1786 16.888V4.6H18.3929C18.7283 4.6 19 4.33151 19 4C19 3.66849 18.7283 3.4 18.3929 3.4H14.1428V2.2C14.1428 1.549 13.6177 1.01649 12.9589 1H8.07144C7.40055 1 6.85715 1.537 6.85715 2.2V3.4H2.60714C2.27169 3.4 2 3.66849 2 4C2 4.33151 2.27169 4.6 2.60714 4.6H2.60711ZM8.0714 2.2H12.9286V3.4H8.0714V2.2ZM6.85711 4.6H15.9643V16.888C15.9643 17.392 15.5514 17.8 15.0414 17.8H5.93426C5.43412 17.7873 5.03568 17.3822 5.03568 16.888V4.6H6.85711Z" fill="black" stroke="black" stroke-width="0.3"/>
</svg>
