<svg width="20" height="20" viewBox="0 0 20 20" fill="none" xmlns="http://www.w3.org/2000/svg">
<path fill-rule="evenodd" clip-rule="evenodd" d="M18.8776 19.9188H1.12246C0.591516 19.9188 0.1427 19.5107 0.1427 18.9797V10.0001C0.1427 9.48993 0.571598 9.06104 1.12246 9.06104C1.67331 9.06104 2.10221 9.4692 2.10221 10.0001V18.0614H17.9185V10.0001C17.9185 9.48993 18.3474 9.06104 18.8983 9.06104C19.4491 9.06104 19.878 9.4692 19.878 10.0001V18.9797C19.8366 19.4899 19.4085 19.9188 18.8776 19.9188H18.8776Z" fill="#9A9A9A"/>
<path fill-rule="evenodd" clip-rule="evenodd" d="M14.4898 4.14294L10.7143 0.36743C10.3468 -8.06823e-05 9.73454 -8.06823e-05 9.34712 0.36743L5.53099 4.14294C5.34764 4.32629 5.24561 4.57184 5.24561 4.83649C5.24561 5.10196 5.34765 5.32596 5.53099 5.51012C5.71435 5.69348 5.95989 5.79551 6.20463 5.79551C6.4701 5.79551 6.71483 5.69347 6.89818 5.51012L8.97961 3.44849V13.1424C8.97961 13.714 9.42842 14.1628 10 14.1628C10.5716 14.1628 11.0204 13.714 11.0204 13.1424V3.40788L13.1227 5.51012C13.4902 5.87763 14.1024 5.87763 14.4899 5.51012C14.6732 5.32677 14.7752 5.08123 14.7752 4.83649C14.7752 4.57102 14.6732 4.32629 14.4899 4.14294H14.4898Z" fill="#9A9A9A"/>
</svg>
