<svg width="390" height="844" viewBox="0 0 390 844" fill="none" xmlns="http://www.w3.org/2000/svg">
<rect width="390" height="844" fill="#7C084B"/>
<path d="M84.1406 244.578L81.1562 256H79.1094L77.2031 249.156C77.1562 248.99 77.1042 248.792 77.0469 248.562C76.9896 248.333 76.9323 248.099 76.875 247.859C76.8229 247.62 76.776 247.401 76.7344 247.203C76.6979 247 76.6719 246.844 76.6562 246.734C76.6458 246.844 76.6224 246.997 76.5859 247.195C76.5495 247.393 76.5052 247.612 76.4531 247.852C76.4062 248.086 76.3542 248.32 76.2969 248.555C76.2396 248.784 76.1875 248.987 76.1406 249.164L74.2656 256H72.2266L69.25 244.578H71.1328L72.7812 251.273C72.8333 251.487 72.8854 251.719 72.9375 251.969C72.9948 252.214 73.0469 252.461 73.0938 252.711C73.1458 252.961 73.1927 253.206 73.2344 253.445C73.276 253.68 73.3099 253.893 73.3359 254.086C73.362 253.888 73.3958 253.669 73.4375 253.43C73.4792 253.185 73.5234 252.938 73.5703 252.688C73.6224 252.432 73.6745 252.188 73.7266 251.953C73.7839 251.719 73.8411 251.508 73.8984 251.32L75.7578 244.578H77.5859L79.4844 251.344C79.5417 251.536 79.5964 251.753 79.6484 251.992C79.7057 252.232 79.7604 252.477 79.8125 252.727C79.8646 252.977 79.9115 253.219 79.9531 253.453C79.9948 253.688 80.0286 253.898 80.0547 254.086C80.0911 253.831 80.138 253.539 80.1953 253.211C80.2526 252.883 80.3177 252.549 80.3906 252.211C80.4635 251.872 80.5365 251.56 80.6094 251.273L82.25 244.578H84.1406ZM89.0156 247.188C89.7865 247.188 90.4479 247.346 91 247.664C91.5521 247.982 91.9766 248.432 92.2734 249.016C92.5703 249.599 92.7188 250.297 92.7188 251.109V252.094H86.9453C86.9661 252.932 87.1901 253.578 87.6172 254.031C88.0495 254.484 88.6536 254.711 89.4297 254.711C89.9818 254.711 90.4766 254.659 90.9141 254.555C91.3568 254.445 91.8125 254.286 92.2812 254.078V255.57C91.849 255.773 91.4089 255.922 90.9609 256.016C90.513 256.109 89.9766 256.156 89.3516 256.156C88.5026 256.156 87.7552 255.992 87.1094 255.664C86.4688 255.331 85.9661 254.836 85.6016 254.18C85.2422 253.523 85.0625 252.708 85.0625 251.734C85.0625 250.766 85.2266 249.943 85.5547 249.266C85.8828 248.589 86.3438 248.073 86.9375 247.719C87.5312 247.365 88.224 247.188 89.0156 247.188ZM89.0156 248.57C88.4375 248.57 87.9688 248.758 87.6094 249.133C87.2552 249.508 87.0469 250.057 86.9844 250.781H90.9219C90.9167 250.349 90.8438 249.966 90.7031 249.633C90.5677 249.299 90.3594 249.039 90.0781 248.852C89.8021 248.664 89.4479 248.57 89.0156 248.57ZM96.6328 256H94.7891V243.844H96.6328V256ZM102.742 256.156C101.924 256.156 101.216 255.997 100.617 255.68C100.018 255.362 99.5573 254.875 99.2344 254.219C98.9115 253.562 98.75 252.729 98.75 251.719C98.75 250.667 98.9271 249.807 99.2812 249.141C99.6354 248.474 100.125 247.982 100.75 247.664C101.38 247.346 102.102 247.188 102.914 247.188C103.43 247.188 103.896 247.24 104.312 247.344C104.734 247.443 105.091 247.565 105.383 247.711L104.836 249.18C104.518 249.049 104.193 248.94 103.859 248.852C103.526 248.763 103.206 248.719 102.898 248.719C102.393 248.719 101.971 248.831 101.633 249.055C101.299 249.279 101.049 249.612 100.883 250.055C100.721 250.497 100.641 251.047 100.641 251.703C100.641 252.339 100.724 252.875 100.891 253.312C101.057 253.745 101.305 254.073 101.633 254.297C101.961 254.516 102.365 254.625 102.844 254.625C103.318 254.625 103.742 254.568 104.117 254.453C104.492 254.339 104.846 254.19 105.18 254.008V255.602C104.852 255.789 104.5 255.927 104.125 256.016C103.75 256.109 103.289 256.156 102.742 256.156ZM114.867 251.656C114.867 252.375 114.773 253.013 114.586 253.57C114.398 254.128 114.125 254.599 113.766 254.984C113.406 255.365 112.974 255.656 112.469 255.859C111.964 256.057 111.393 256.156 110.758 256.156C110.164 256.156 109.62 256.057 109.125 255.859C108.63 255.656 108.201 255.365 107.836 254.984C107.477 254.599 107.198 254.128 107 253.57C106.802 253.013 106.703 252.375 106.703 251.656C106.703 250.703 106.867 249.896 107.195 249.234C107.529 248.568 108.003 248.06 108.617 247.711C109.232 247.362 109.964 247.188 110.812 247.188C111.609 247.188 112.312 247.362 112.922 247.711C113.531 248.06 114.008 248.568 114.352 249.234C114.695 249.901 114.867 250.708 114.867 251.656ZM108.594 251.656C108.594 252.286 108.669 252.826 108.82 253.273C108.977 253.721 109.216 254.065 109.539 254.305C109.862 254.539 110.279 254.656 110.789 254.656C111.299 254.656 111.716 254.539 112.039 254.305C112.362 254.065 112.599 253.721 112.75 253.273C112.901 252.826 112.977 252.286 112.977 251.656C112.977 251.026 112.901 250.492 112.75 250.055C112.599 249.612 112.362 249.276 112.039 249.047C111.716 248.812 111.297 248.695 110.781 248.695C110.021 248.695 109.466 248.951 109.117 249.461C108.768 249.971 108.594 250.703 108.594 251.656ZM126.75 247.188C127.719 247.188 128.448 247.438 128.938 247.938C129.432 248.438 129.68 249.24 129.68 250.344V256H127.844V250.672C127.844 250.016 127.716 249.521 127.461 249.188C127.206 248.854 126.818 248.688 126.297 248.688C125.568 248.688 125.042 248.922 124.719 249.391C124.401 249.854 124.242 250.529 124.242 251.414V256H122.406V250.672C122.406 250.234 122.349 249.87 122.234 249.578C122.125 249.281 121.956 249.06 121.727 248.914C121.497 248.763 121.208 248.688 120.859 248.688C120.354 248.688 119.951 248.802 119.648 249.031C119.352 249.26 119.138 249.599 119.008 250.047C118.878 250.49 118.812 251.034 118.812 251.68V256H116.977V247.352H118.406L118.664 248.516H118.766C118.943 248.214 119.161 247.966 119.422 247.773C119.688 247.576 119.982 247.43 120.305 247.336C120.628 247.237 120.964 247.188 121.312 247.188C121.958 247.188 122.503 247.302 122.945 247.531C123.388 247.755 123.719 248.099 123.938 248.562H124.078C124.349 248.094 124.727 247.747 125.211 247.523C125.695 247.299 126.208 247.188 126.75 247.188ZM135.688 247.188C136.458 247.188 137.12 247.346 137.672 247.664C138.224 247.982 138.648 248.432 138.945 249.016C139.242 249.599 139.391 250.297 139.391 251.109V252.094H133.617C133.638 252.932 133.862 253.578 134.289 254.031C134.721 254.484 135.326 254.711 136.102 254.711C136.654 254.711 137.148 254.659 137.586 254.555C138.029 254.445 138.484 254.286 138.953 254.078V255.57C138.521 255.773 138.081 255.922 137.633 256.016C137.185 256.109 136.648 256.156 136.023 256.156C135.174 256.156 134.427 255.992 133.781 255.664C133.141 255.331 132.638 254.836 132.273 254.18C131.914 253.523 131.734 252.708 131.734 251.734C131.734 250.766 131.898 249.943 132.227 249.266C132.555 248.589 133.016 248.073 133.609 247.719C134.203 247.365 134.896 247.188 135.688 247.188ZM135.688 248.57C135.109 248.57 134.641 248.758 134.281 249.133C133.927 249.508 133.719 250.057 133.656 250.781H137.594C137.589 250.349 137.516 249.966 137.375 249.633C137.24 249.299 137.031 249.039 136.75 248.852C136.474 248.664 136.12 248.57 135.688 248.57ZM148.836 254.672C149.076 254.672 149.312 254.651 149.547 254.609C149.781 254.562 149.995 254.508 150.188 254.445V255.836C149.984 255.924 149.721 256 149.398 256.062C149.076 256.125 148.74 256.156 148.391 256.156C147.901 256.156 147.461 256.076 147.07 255.914C146.68 255.747 146.37 255.464 146.141 255.062C145.911 254.661 145.797 254.107 145.797 253.398V248.75H144.617V247.93L145.883 247.281L146.484 245.43H147.641V247.352H150.117V248.75H147.641V253.375C147.641 253.812 147.75 254.138 147.969 254.352C148.188 254.565 148.477 254.672 148.836 254.672ZM159.602 251.656C159.602 252.375 159.508 253.013 159.32 253.57C159.133 254.128 158.859 254.599 158.5 254.984C158.141 255.365 157.708 255.656 157.203 255.859C156.698 256.057 156.128 256.156 155.492 256.156C154.898 256.156 154.354 256.057 153.859 255.859C153.365 255.656 152.935 255.365 152.57 254.984C152.211 254.599 151.932 254.128 151.734 253.57C151.536 253.013 151.438 252.375 151.438 251.656C151.438 250.703 151.602 249.896 151.93 249.234C152.263 248.568 152.737 248.06 153.352 247.711C153.966 247.362 154.698 247.188 155.547 247.188C156.344 247.188 157.047 247.362 157.656 247.711C158.266 248.06 158.742 248.568 159.086 249.234C159.43 249.901 159.602 250.708 159.602 251.656ZM153.328 251.656C153.328 252.286 153.404 252.826 153.555 253.273C153.711 253.721 153.951 254.065 154.273 254.305C154.596 254.539 155.013 254.656 155.523 254.656C156.034 254.656 156.451 254.539 156.773 254.305C157.096 254.065 157.333 253.721 157.484 253.273C157.635 252.826 157.711 252.286 157.711 251.656C157.711 251.026 157.635 250.492 157.484 250.055C157.333 249.612 157.096 249.276 156.773 249.047C156.451 248.812 156.031 248.695 155.516 248.695C154.755 248.695 154.201 248.951 153.852 249.461C153.503 249.971 153.328 250.703 153.328 251.656ZM173.133 256L172.016 252.828H167.648L166.531 256H164.555L168.805 244.531H170.883L175.125 256H173.133ZM171.531 251.219L170.445 248.094C170.404 247.958 170.344 247.768 170.266 247.523C170.188 247.273 170.109 247.021 170.031 246.766C169.953 246.505 169.888 246.286 169.836 246.109C169.784 246.323 169.719 246.562 169.641 246.828C169.568 247.089 169.495 247.333 169.422 247.562C169.354 247.792 169.302 247.969 169.266 248.094L168.172 251.219H171.531ZM183.844 256H175.633V254.711L181.445 246.172H175.812V244.578H183.688V245.859L177.875 254.406H183.844V256ZM190.719 246.008C190.172 246.008 189.682 246.107 189.25 246.305C188.823 246.503 188.461 246.789 188.164 247.164C187.867 247.534 187.641 247.984 187.484 248.516C187.328 249.042 187.25 249.635 187.25 250.297C187.25 251.182 187.375 251.945 187.625 252.586C187.875 253.221 188.255 253.711 188.766 254.055C189.276 254.393 189.922 254.562 190.703 254.562C191.188 254.562 191.659 254.516 192.117 254.422C192.576 254.328 193.049 254.201 193.539 254.039V255.633C193.076 255.815 192.607 255.948 192.133 256.031C191.659 256.115 191.112 256.156 190.492 256.156C189.326 256.156 188.357 255.914 187.586 255.43C186.82 254.945 186.247 254.263 185.867 253.383C185.492 252.503 185.305 251.471 185.305 250.289C185.305 249.424 185.424 248.633 185.664 247.914C185.904 247.195 186.253 246.576 186.711 246.055C187.169 245.529 187.734 245.125 188.406 244.844C189.083 244.557 189.857 244.414 190.727 244.414C191.299 244.414 191.862 244.479 192.414 244.609C192.971 244.734 193.487 244.914 193.961 245.148L193.305 246.695C192.909 246.508 192.495 246.346 192.062 246.211C191.63 246.076 191.182 246.008 190.719 246.008ZM199.195 247.188C200.289 247.188 201.115 247.43 201.672 247.914C202.234 248.398 202.516 249.154 202.516 250.18V256H201.211L200.859 254.773H200.797C200.552 255.086 200.299 255.344 200.039 255.547C199.779 255.75 199.477 255.901 199.133 256C198.794 256.104 198.38 256.156 197.891 256.156C197.375 256.156 196.914 256.062 196.508 255.875C196.102 255.682 195.781 255.391 195.547 255C195.312 254.609 195.195 254.115 195.195 253.516C195.195 252.625 195.526 251.956 196.188 251.508C196.854 251.06 197.859 250.812 199.203 250.766L200.703 250.711V250.258C200.703 249.659 200.562 249.232 200.281 248.977C200.005 248.721 199.615 248.594 199.109 248.594C198.677 248.594 198.258 248.656 197.852 248.781C197.445 248.906 197.049 249.06 196.664 249.242L196.07 247.945C196.492 247.721 196.971 247.539 197.508 247.398C198.049 247.258 198.612 247.188 199.195 247.188ZM200.695 251.867L199.578 251.906C198.661 251.938 198.018 252.094 197.648 252.375C197.279 252.656 197.094 253.042 197.094 253.531C197.094 253.958 197.221 254.271 197.477 254.469C197.732 254.661 198.068 254.758 198.484 254.758C199.12 254.758 199.646 254.578 200.062 254.219C200.484 253.854 200.695 253.32 200.695 252.617V251.867ZM209.469 247.188C209.615 247.188 209.773 247.195 209.945 247.211C210.117 247.227 210.266 247.247 210.391 247.273L210.219 248.992C210.109 248.961 209.974 248.938 209.812 248.922C209.656 248.906 209.516 248.898 209.391 248.898C209.062 248.898 208.75 248.953 208.453 249.062C208.156 249.167 207.893 249.328 207.664 249.547C207.435 249.76 207.255 250.029 207.125 250.352C206.995 250.674 206.93 251.049 206.93 251.477V256H205.086V247.352H206.523L206.773 248.875H206.859C207.031 248.568 207.245 248.286 207.5 248.031C207.755 247.776 208.047 247.573 208.375 247.422C208.708 247.266 209.073 247.188 209.469 247.188ZM215.438 247.188C216.208 247.188 216.87 247.346 217.422 247.664C217.974 247.982 218.398 248.432 218.695 249.016C218.992 249.599 219.141 250.297 219.141 251.109V252.094H213.367C213.388 252.932 213.612 253.578 214.039 254.031C214.471 254.484 215.076 254.711 215.852 254.711C216.404 254.711 216.898 254.659 217.336 254.555C217.779 254.445 218.234 254.286 218.703 254.078V255.57C218.271 255.773 217.831 255.922 217.383 256.016C216.935 256.109 216.398 256.156 215.773 256.156C214.924 256.156 214.177 255.992 213.531 255.664C212.891 255.331 212.388 254.836 212.023 254.18C211.664 253.523 211.484 252.708 211.484 251.734C211.484 250.766 211.648 249.943 211.977 249.266C212.305 248.589 212.766 248.073 213.359 247.719C213.953 247.365 214.646 247.188 215.438 247.188ZM215.438 248.57C214.859 248.57 214.391 248.758 214.031 249.133C213.677 249.508 213.469 250.057 213.406 250.781H217.344C217.339 250.349 217.266 249.966 217.125 249.633C216.99 249.299 216.781 249.039 216.5 248.852C216.224 248.664 215.87 248.57 215.438 248.57ZM227.023 253.531C227.023 254.099 226.885 254.578 226.609 254.969C226.333 255.359 225.93 255.656 225.398 255.859C224.872 256.057 224.227 256.156 223.461 256.156C222.857 256.156 222.336 256.112 221.898 256.023C221.466 255.94 221.057 255.81 220.672 255.633V254.047C221.083 254.24 221.544 254.406 222.055 254.547C222.57 254.688 223.057 254.758 223.516 254.758C224.12 254.758 224.555 254.664 224.82 254.477C225.086 254.284 225.219 254.029 225.219 253.711C225.219 253.523 225.164 253.357 225.055 253.211C224.951 253.06 224.753 252.906 224.461 252.75C224.174 252.589 223.753 252.396 223.195 252.172C222.648 251.953 222.188 251.734 221.812 251.516C221.438 251.297 221.154 251.034 220.961 250.727C220.768 250.414 220.672 250.016 220.672 249.531C220.672 248.766 220.974 248.185 221.578 247.789C222.188 247.388 222.992 247.188 223.992 247.188C224.523 247.188 225.023 247.242 225.492 247.352C225.966 247.456 226.43 247.609 226.883 247.812L226.305 249.195C225.914 249.023 225.521 248.883 225.125 248.773C224.734 248.659 224.336 248.602 223.93 248.602C223.456 248.602 223.094 248.674 222.844 248.82C222.599 248.966 222.477 249.174 222.477 249.445C222.477 249.648 222.536 249.82 222.656 249.961C222.776 250.102 222.982 250.242 223.273 250.383C223.57 250.523 223.982 250.698 224.508 250.906C225.023 251.104 225.469 251.312 225.844 251.531C226.224 251.745 226.516 252.008 226.719 252.32C226.922 252.633 227.023 253.036 227.023 253.531ZM236.672 244.578C238.146 244.578 239.221 244.88 239.898 245.484C240.576 246.089 240.914 246.935 240.914 248.023C240.914 248.518 240.836 248.99 240.68 249.438C240.529 249.88 240.279 250.273 239.93 250.617C239.581 250.956 239.12 251.224 238.547 251.422C237.979 251.62 237.279 251.719 236.445 251.719H235.227V256H233.352V244.578H236.672ZM236.547 246.133H235.227V250.156H236.25C236.839 250.156 237.339 250.089 237.75 249.953C238.161 249.812 238.474 249.591 238.688 249.289C238.901 248.987 239.008 248.589 239.008 248.094C239.008 247.432 238.807 246.94 238.406 246.617C238.01 246.294 237.391 246.133 236.547 246.133ZM246.398 247.188C247.492 247.188 248.318 247.43 248.875 247.914C249.438 248.398 249.719 249.154 249.719 250.18V256H248.414L248.062 254.773H248C247.755 255.086 247.503 255.344 247.242 255.547C246.982 255.75 246.68 255.901 246.336 256C245.997 256.104 245.583 256.156 245.094 256.156C244.578 256.156 244.117 256.062 243.711 255.875C243.305 255.682 242.984 255.391 242.75 255C242.516 254.609 242.398 254.115 242.398 253.516C242.398 252.625 242.729 251.956 243.391 251.508C244.057 251.06 245.062 250.812 246.406 250.766L247.906 250.711V250.258C247.906 249.659 247.766 249.232 247.484 248.977C247.208 248.721 246.818 248.594 246.312 248.594C245.88 248.594 245.461 248.656 245.055 248.781C244.648 248.906 244.253 249.06 243.867 249.242L243.273 247.945C243.695 247.721 244.174 247.539 244.711 247.398C245.253 247.258 245.815 247.188 246.398 247.188ZM247.898 251.867L246.781 251.906C245.865 251.938 245.221 252.094 244.852 252.375C244.482 252.656 244.297 253.042 244.297 253.531C244.297 253.958 244.424 254.271 244.68 254.469C244.935 254.661 245.271 254.758 245.688 254.758C246.323 254.758 246.849 254.578 247.266 254.219C247.688 253.854 247.898 253.32 247.898 252.617V251.867ZM255.508 254.672C255.747 254.672 255.984 254.651 256.219 254.609C256.453 254.562 256.667 254.508 256.859 254.445V255.836C256.656 255.924 256.393 256 256.07 256.062C255.747 256.125 255.411 256.156 255.062 256.156C254.573 256.156 254.133 256.076 253.742 255.914C253.352 255.747 253.042 255.464 252.812 255.062C252.583 254.661 252.469 254.107 252.469 253.398V248.75H251.289V247.93L252.555 247.281L253.156 245.43H254.312V247.352H256.789V248.75H254.312V253.375C254.312 253.812 254.422 254.138 254.641 254.352C254.859 254.565 255.148 254.672 255.508 254.672ZM260.453 247.352V256H258.617V247.352H260.453ZM259.547 244.039C259.828 244.039 260.07 244.115 260.273 244.266C260.482 244.417 260.586 244.677 260.586 245.047C260.586 245.411 260.482 245.672 260.273 245.828C260.07 245.979 259.828 246.055 259.547 246.055C259.255 246.055 259.008 245.979 258.805 245.828C258.607 245.672 258.508 245.411 258.508 245.047C258.508 244.677 258.607 244.417 258.805 244.266C259.008 244.115 259.255 244.039 259.547 244.039ZM266.531 247.188C267.302 247.188 267.964 247.346 268.516 247.664C269.068 247.982 269.492 248.432 269.789 249.016C270.086 249.599 270.234 250.297 270.234 251.109V252.094H264.461C264.482 252.932 264.706 253.578 265.133 254.031C265.565 254.484 266.169 254.711 266.945 254.711C267.497 254.711 267.992 254.659 268.43 254.555C268.872 254.445 269.328 254.286 269.797 254.078V255.57C269.365 255.773 268.924 255.922 268.477 256.016C268.029 256.109 267.492 256.156 266.867 256.156C266.018 256.156 265.271 255.992 264.625 255.664C263.984 255.331 263.482 254.836 263.117 254.18C262.758 253.523 262.578 252.708 262.578 251.734C262.578 250.766 262.742 249.943 263.07 249.266C263.398 248.589 263.859 248.073 264.453 247.719C265.047 247.365 265.74 247.188 266.531 247.188ZM266.531 248.57C265.953 248.57 265.484 248.758 265.125 249.133C264.771 249.508 264.562 250.057 264.5 250.781H268.438C268.432 250.349 268.359 249.966 268.219 249.633C268.083 249.299 267.875 249.039 267.594 248.852C267.318 248.664 266.964 248.57 266.531 248.57ZM276.812 247.188C277.786 247.188 278.544 247.44 279.086 247.945C279.633 248.445 279.906 249.25 279.906 250.359V256H278.07V250.703C278.07 250.031 277.932 249.529 277.656 249.195C277.38 248.857 276.953 248.688 276.375 248.688C275.536 248.688 274.953 248.945 274.625 249.461C274.302 249.977 274.141 250.724 274.141 251.703V256H272.305V247.352H273.734L273.992 248.523H274.094C274.281 248.221 274.513 247.974 274.789 247.781C275.07 247.583 275.383 247.435 275.727 247.336C276.076 247.237 276.438 247.188 276.812 247.188ZM285.695 254.672C285.935 254.672 286.172 254.651 286.406 254.609C286.641 254.562 286.854 254.508 287.047 254.445V255.836C286.844 255.924 286.581 256 286.258 256.062C285.935 256.125 285.599 256.156 285.25 256.156C284.76 256.156 284.32 256.076 283.93 255.914C283.539 255.747 283.229 255.464 283 255.062C282.771 254.661 282.656 254.107 282.656 253.398V248.75H281.477V247.93L282.742 247.281L283.344 245.43H284.5V247.352H286.977V248.75H284.5V253.375C284.5 253.812 284.609 254.138 284.828 254.352C285.047 254.565 285.336 254.672 285.695 254.672ZM296.352 247.188C297.445 247.188 298.271 247.43 298.828 247.914C299.391 248.398 299.672 249.154 299.672 250.18V256H298.367L298.016 254.773H297.953C297.708 255.086 297.456 255.344 297.195 255.547C296.935 255.75 296.633 255.901 296.289 256C295.951 256.104 295.536 256.156 295.047 256.156C294.531 256.156 294.07 256.062 293.664 255.875C293.258 255.682 292.938 255.391 292.703 255C292.469 254.609 292.352 254.115 292.352 253.516C292.352 252.625 292.682 251.956 293.344 251.508C294.01 251.06 295.016 250.812 296.359 250.766L297.859 250.711V250.258C297.859 249.659 297.719 249.232 297.438 248.977C297.161 248.721 296.771 248.594 296.266 248.594C295.833 248.594 295.414 248.656 295.008 248.781C294.602 248.906 294.206 249.06 293.82 249.242L293.227 247.945C293.648 247.721 294.128 247.539 294.664 247.398C295.206 247.258 295.768 247.188 296.352 247.188ZM297.852 251.867L296.734 251.906C295.818 251.938 295.174 252.094 294.805 252.375C294.435 252.656 294.25 253.042 294.25 253.531C294.25 253.958 294.378 254.271 294.633 254.469C294.888 254.661 295.224 254.758 295.641 254.758C296.276 254.758 296.802 254.578 297.219 254.219C297.641 253.854 297.852 253.32 297.852 252.617V251.867ZM306.68 247.188C307.706 247.188 308.529 247.562 309.148 248.312C309.773 249.062 310.086 250.177 310.086 251.656C310.086 252.635 309.94 253.461 309.648 254.133C309.362 254.799 308.958 255.305 308.438 255.648C307.922 255.987 307.32 256.156 306.633 256.156C306.195 256.156 305.815 256.099 305.492 255.984C305.169 255.87 304.893 255.721 304.664 255.539C304.435 255.352 304.242 255.148 304.086 254.93H303.977C304.003 255.138 304.026 255.37 304.047 255.625C304.073 255.875 304.086 256.104 304.086 256.312V259.836H302.242V247.352H303.742L304 248.547H304.086C304.247 248.302 304.443 248.076 304.672 247.867C304.906 247.659 305.188 247.495 305.516 247.375C305.849 247.25 306.237 247.188 306.68 247.188ZM306.188 248.688C305.682 248.688 305.276 248.789 304.969 248.992C304.667 249.19 304.445 249.49 304.305 249.891C304.169 250.292 304.096 250.794 304.086 251.398V251.656C304.086 252.297 304.151 252.841 304.281 253.289C304.417 253.732 304.638 254.07 304.945 254.305C305.258 254.534 305.68 254.648 306.211 254.648C306.659 254.648 307.029 254.526 307.32 254.281C307.617 254.036 307.839 253.688 307.984 253.234C308.13 252.781 308.203 252.247 308.203 251.633C308.203 250.701 308.036 249.977 307.703 249.461C307.375 248.945 306.87 248.688 306.188 248.688ZM316.648 247.188C317.674 247.188 318.497 247.562 319.117 248.312C319.742 249.062 320.055 250.177 320.055 251.656C320.055 252.635 319.909 253.461 319.617 254.133C319.331 254.799 318.927 255.305 318.406 255.648C317.891 255.987 317.289 256.156 316.602 256.156C316.164 256.156 315.784 256.099 315.461 255.984C315.138 255.87 314.862 255.721 314.633 255.539C314.404 255.352 314.211 255.148 314.055 254.93H313.945C313.971 255.138 313.995 255.37 314.016 255.625C314.042 255.875 314.055 256.104 314.055 256.312V259.836H312.211V247.352H313.711L313.969 248.547H314.055C314.216 248.302 314.411 248.076 314.641 247.867C314.875 247.659 315.156 247.495 315.484 247.375C315.818 247.25 316.206 247.188 316.648 247.188ZM316.156 248.688C315.651 248.688 315.245 248.789 314.938 248.992C314.635 249.19 314.414 249.49 314.273 249.891C314.138 250.292 314.065 250.794 314.055 251.398V251.656C314.055 252.297 314.12 252.841 314.25 253.289C314.385 253.732 314.607 254.07 314.914 254.305C315.227 254.534 315.648 254.648 316.18 254.648C316.628 254.648 316.997 254.526 317.289 254.281C317.586 254.036 317.807 253.688 317.953 253.234C318.099 252.781 318.172 252.247 318.172 251.633C318.172 250.701 318.005 249.977 317.672 249.461C317.344 248.945 316.839 248.688 316.156 248.688Z" fill="white"/>
<path d="M259.137 144.066C260.563 142.743 262.346 141.298 263.114 140.833C264.238 140.171 264.759 140 265.939 140C267.009 140 267.502 140.122 267.914 140.49C268.215 140.759 268.627 141.274 268.846 141.641C269.038 142.033 269.422 143.208 269.697 144.286C269.943 145.364 270.245 147.862 270.327 149.87C270.519 153.372 270.492 153.47 269.971 153.47C269.505 153.47 269.505 153.519 269.834 153.715C270.053 153.838 271.671 154.352 273.399 154.842C275.128 155.332 277.541 156.189 278.721 156.728C280.174 157.413 281.107 158.05 281.546 158.613C281.902 159.079 282.177 159.838 282.177 160.254C282.177 160.695 281.957 161.454 281.71 161.944C281.436 162.459 280.696 163.267 280.065 163.781C279.406 164.32 277.075 165.814 274.881 167.112C272.659 168.435 270.821 169.586 270.766 169.684C270.711 169.806 270.876 169.879 271.15 169.904C271.397 169.904 272.165 170.247 272.851 170.614C273.537 171.006 274.469 171.52 274.908 171.741C275.347 171.961 276.06 172.427 276.499 172.794C276.91 173.137 277.24 173.578 277.24 173.725C277.24 173.896 276.91 174.312 276.499 174.655C276.06 174.998 274.798 175.562 273.674 175.88C272.549 176.198 270.519 176.688 269.148 176.958C267.777 177.227 265.884 177.57 264.897 177.717C263.909 177.839 262.099 177.962 260.865 177.962C259.274 177.962 258.314 177.839 257.71 177.545C257.217 177.325 256.668 176.982 256.476 176.762C256.284 176.541 256.119 176.002 256.119 175.561C256.119 175.145 256.284 174.41 256.476 173.97C256.695 173.553 257.491 172.574 258.231 171.839C258.999 171.104 260.563 169.879 261.687 169.145C262.839 168.41 263.745 167.7 263.69 167.553C263.635 167.406 263.251 167.136 262.812 166.916C262.373 166.696 258.945 165.128 255.159 163.389C251.402 161.675 248.028 160.034 247.671 159.74C247.315 159.446 247.068 158.932 247.068 158.54C247.068 158.173 247.342 157.413 247.644 156.826C247.973 156.262 248.933 154.964 249.756 153.96C250.579 152.956 252.444 150.85 253.898 149.307C255.324 147.764 257.683 145.413 259.137 144.066Z" fill="#F1AA00"/>
<path fill-rule="evenodd" clip-rule="evenodd" d="M264.289 146.368C264.755 146.368 264.92 146.54 265.057 147.177C265.139 147.593 265.359 149.038 265.523 150.336C265.715 151.659 265.825 152.736 265.797 152.736C265.743 152.736 264.014 152.467 261.957 152.099C259.873 151.757 258.145 151.463 258.117 151.438C258.09 151.414 259.324 150.263 260.888 148.867C262.725 147.226 263.905 146.368 264.289 146.368ZM255.813 152.981C255.923 153.446 256.499 154.646 257.075 155.626C257.678 156.63 259.105 158.565 260.257 159.912C261.409 161.284 262.945 162.851 263.685 163.414C264.426 163.953 265.413 164.541 265.852 164.663C266.319 164.81 267.032 164.859 267.471 164.761C267.909 164.688 268.485 164.345 268.76 164.002C269.034 163.659 269.445 162.68 269.665 161.798C269.912 160.916 270.104 159.741 270.104 159.153C270.104 158.198 270.159 158.124 270.735 158.271C271.064 158.369 271.969 158.712 272.709 159.03C273.477 159.373 274.3 159.839 274.575 160.059C274.849 160.28 275.068 160.622 275.068 160.818C275.068 161.014 274.602 161.504 274.026 161.92C273.477 162.337 272.463 162.974 271.777 163.365C271.091 163.757 269.418 164.663 268.047 165.398C266.675 166.157 265.221 166.917 264.755 167.137C264.124 167.431 264.014 167.431 264.289 167.162C264.563 166.892 264.563 166.77 264.289 166.549C264.097 166.402 262.506 165.594 260.778 164.737C259.05 163.904 256.197 162.484 254.469 161.602C252.741 160.745 251.041 159.79 250.684 159.496C250.355 159.226 250.081 158.835 250.081 158.663C250.081 158.516 251.315 157.292 252.824 155.969C255.045 154.034 255.594 153.446 255.594 152.859C255.621 152.148 255.621 152.148 255.813 152.981V152.981ZM258.529 153.789C258.776 153.863 260.421 154.402 262.149 155.014C263.877 155.602 265.797 156.312 266.401 156.606C267.279 157.022 267.388 157.12 266.895 157.145C266.264 157.145 266.264 157.169 266.428 159.398C266.538 160.647 266.538 161.92 266.428 162.214C266.319 162.582 266.044 162.778 265.66 162.778C265.304 162.802 264.673 162.533 264.206 162.239C263.768 161.92 262.725 160.843 261.875 159.839C261.052 158.835 259.9 157.341 259.352 156.532C258.803 155.724 258.282 154.744 258.2 154.353C258.062 153.765 258.117 153.667 258.529 153.789V153.789ZM187.077 166.451C187.269 166.451 187.598 166.549 187.817 166.672C188.147 166.868 188.174 166.966 187.9 167.284C187.708 167.504 187.571 167.921 187.625 168.215C187.653 168.607 187.488 168.803 186.94 168.949C186.281 169.121 186.172 169.072 186.172 168.656C186.172 168.386 186.336 168.092 186.528 168.019C186.775 167.896 186.775 167.798 186.528 167.578C186.309 167.407 186.281 167.186 186.473 166.868C186.611 166.647 186.885 166.451 187.077 166.451V166.451ZM216.234 166.451C216.398 166.451 216.535 166.647 216.535 166.868C216.535 167.113 216.453 167.431 216.343 167.578C216.179 167.798 216.398 167.847 217.111 167.749C217.687 167.7 218.291 167.602 218.483 167.529C218.647 167.48 218.894 167.578 219.004 167.725C219.15 167.937 219.104 167.978 218.867 167.847C218.675 167.749 218.483 167.823 218.4 168.043C218.318 168.239 218.4 168.362 218.538 168.288C218.702 168.215 218.812 168.215 218.812 168.288C218.812 168.362 218.757 168.558 218.675 168.705C218.565 168.949 217.907 168.998 216.206 168.9C214.78 168.827 213.82 168.876 213.738 169.023C213.655 169.17 213.546 169.145 213.463 168.949C213.381 168.803 213.189 168.729 213.024 168.803C212.805 168.925 212.805 168.827 213.024 168.46C213.189 168.19 213.491 167.921 213.738 167.823C213.957 167.749 214.451 167.676 214.835 167.676C215.219 167.676 215.466 167.578 215.383 167.431C215.301 167.284 215.411 167.015 215.603 166.819C215.767 166.623 216.069 166.476 216.234 166.451V166.451ZM189.134 166.77C189.573 166.794 189.929 166.917 189.929 167.064C189.929 167.211 189.957 167.504 189.957 167.725C189.984 167.97 190.149 168.117 190.286 168.043C190.451 167.97 190.56 167.97 190.56 168.043C190.56 168.117 190.505 168.337 190.423 168.533C190.341 168.754 189.957 168.9 189.545 168.9C189.107 168.9 188.585 168.778 188.366 168.656C188.009 168.435 188.009 168.362 188.366 168.092C188.585 167.921 188.805 167.651 188.86 167.48C188.887 167.333 188.805 167.186 188.64 167.186C188.503 167.186 188.366 167.088 188.366 166.941C188.339 166.819 188.695 166.745 189.134 166.77ZM270.433 170.345C270.57 170.639 271.393 171.301 272.298 171.839C273.203 172.378 273.944 172.917 273.944 173.064C273.944 173.211 273.669 173.358 273.34 173.407C272.984 173.48 270.817 173.603 268.513 173.725C265.77 173.848 264.344 173.848 264.344 173.676C264.371 173.529 264.563 173.284 264.837 173.113C265.084 172.942 266.401 172.133 267.772 171.325C270.104 169.929 270.241 169.856 270.433 170.345V170.345ZM159.291 172.378C161.321 172.329 161.76 172.403 161.76 172.697C161.76 172.893 161.513 173.284 161.211 173.554C160.91 173.823 160.718 174.068 160.8 174.093C160.855 174.142 160.553 174.24 160.114 174.338C159.621 174.46 159.291 174.705 159.264 174.95C159.237 175.317 159.209 175.293 159.099 174.901C159.017 174.582 158.907 174.509 158.798 174.705C158.688 174.852 158.277 175.048 157.865 175.121C157.234 175.244 157.042 175.146 156.768 174.656C156.576 174.338 156.329 174.117 156.219 174.166C156.082 174.24 156 174.191 156 174.044C156 173.897 156.137 173.799 156.274 173.799C156.439 173.799 156.494 173.627 156.411 173.431C156.329 173.235 156.439 172.991 156.603 172.868C156.841 172.754 156.887 172.795 156.741 172.991C156.631 173.162 156.686 173.309 156.823 173.309C156.987 173.309 157.152 173.137 157.234 172.942C157.317 172.746 157.262 172.55 157.097 172.501C156.96 172.476 157.947 172.427 159.291 172.378V172.378Z" fill="#7C084B"/>
<path d="M111.252 175H108.572L114.594 158.265H117.512L123.534 175H120.854L116.122 161.305H115.992L111.252 175ZM111.702 168.446H120.396V170.571H111.702V168.446ZM135.07 165.513L132.856 165.905C132.763 165.622 132.616 165.352 132.414 165.096C132.218 164.84 131.951 164.63 131.614 164.467C131.276 164.304 130.854 164.222 130.347 164.222C129.655 164.222 129.078 164.377 128.615 164.688C128.152 164.993 127.92 165.388 127.92 165.872C127.92 166.292 128.075 166.63 128.386 166.886C128.696 167.142 129.198 167.351 129.889 167.515L131.883 167.973C133.038 168.239 133.899 168.651 134.465 169.206C135.032 169.762 135.315 170.484 135.315 171.372C135.315 172.124 135.097 172.794 134.662 173.382C134.231 173.965 133.629 174.423 132.856 174.755C132.088 175.087 131.197 175.253 130.184 175.253C128.778 175.253 127.631 174.954 126.743 174.354C125.855 173.75 125.311 172.892 125.109 171.78L127.471 171.421C127.618 172.036 127.92 172.502 128.378 172.818C128.835 173.129 129.432 173.284 130.167 173.284C130.968 173.284 131.608 173.118 132.088 172.786C132.567 172.448 132.807 172.036 132.807 171.552C132.807 171.159 132.66 170.83 132.365 170.563C132.077 170.296 131.633 170.094 131.033 169.958L128.909 169.492C127.738 169.225 126.871 168.801 126.31 168.218C125.755 167.635 125.477 166.897 125.477 166.003C125.477 165.262 125.684 164.614 126.098 164.058C126.512 163.503 127.084 163.07 127.814 162.759C128.544 162.443 129.38 162.285 130.322 162.285C131.679 162.285 132.747 162.579 133.526 163.168C134.305 163.751 134.82 164.532 135.07 165.513ZM143.861 162.449V164.41H137.005V162.449H143.861ZM138.843 159.441H141.287V171.315C141.287 171.789 141.357 172.145 141.499 172.385C141.641 172.619 141.823 172.78 142.047 172.867C142.275 172.949 142.523 172.99 142.79 172.99C142.986 172.99 143.158 172.976 143.305 172.949C143.452 172.922 143.566 172.9 143.648 172.884L144.089 174.902C143.948 174.956 143.746 175.011 143.485 175.065C143.223 175.125 142.896 175.158 142.504 175.163C141.861 175.174 141.262 175.06 140.706 174.82C140.151 174.581 139.701 174.21 139.358 173.709C139.015 173.208 138.843 172.579 138.843 171.821V159.441ZM146.563 175V162.449H148.925V164.442H149.056C149.284 163.767 149.688 163.236 150.265 162.849C150.848 162.457 151.507 162.261 152.242 162.261C152.395 162.261 152.575 162.266 152.782 162.277C152.994 162.288 153.16 162.302 153.28 162.318V164.655C153.182 164.628 153.008 164.598 152.757 164.565C152.507 164.527 152.256 164.508 152.006 164.508C151.428 164.508 150.913 164.63 150.461 164.876C150.014 165.115 149.66 165.45 149.399 165.881C149.137 166.306 149.007 166.79 149.007 167.335V175H146.563ZM158.935 175.278C158.14 175.278 157.42 175.131 156.778 174.837C156.135 174.537 155.625 174.104 155.25 173.537C154.879 172.971 154.694 172.276 154.694 171.454C154.694 170.745 154.83 170.162 155.103 169.705C155.375 169.247 155.743 168.885 156.206 168.618C156.669 168.351 157.186 168.15 157.758 168.013C158.33 167.877 158.913 167.774 159.507 167.703C160.259 167.616 160.869 167.545 161.337 167.49C161.806 167.43 162.146 167.335 162.359 167.204C162.571 167.074 162.677 166.861 162.677 166.567V166.51C162.677 165.796 162.476 165.243 162.073 164.851C161.675 164.459 161.081 164.263 160.291 164.263C159.469 164.263 158.821 164.445 158.347 164.81C157.878 165.17 157.554 165.57 157.374 166.011L155.078 165.488C155.35 164.726 155.748 164.11 156.271 163.642C156.799 163.168 157.407 162.824 158.093 162.612C158.78 162.394 159.501 162.285 160.259 162.285C160.76 162.285 161.291 162.345 161.852 162.465C162.419 162.579 162.947 162.792 163.437 163.102C163.933 163.413 164.339 163.857 164.655 164.434C164.971 165.006 165.129 165.75 165.129 166.665V175H162.743V173.284H162.645C162.487 173.6 162.25 173.91 161.934 174.216C161.618 174.521 161.212 174.774 160.716 174.975C160.221 175.177 159.627 175.278 158.935 175.278ZM159.466 173.317C160.142 173.317 160.719 173.183 161.198 172.916C161.683 172.649 162.051 172.301 162.302 171.87C162.558 171.435 162.686 170.969 162.686 170.473V168.855C162.598 168.942 162.43 169.024 162.179 169.1C161.934 169.171 161.653 169.234 161.337 169.288C161.021 169.337 160.714 169.383 160.414 169.427C160.114 169.465 159.864 169.498 159.662 169.525C159.188 169.585 158.755 169.686 158.363 169.827C157.976 169.969 157.666 170.173 157.431 170.44C157.203 170.702 157.088 171.05 157.088 171.486C157.088 172.091 157.312 172.549 157.758 172.859C158.205 173.164 158.774 173.317 159.466 173.317ZM168.146 175V173.317L176.947 160.438H168.073V158.265H180.036V159.948L171.235 172.826H180.109V175H168.146ZM188.489 175.253C187.253 175.253 186.188 174.989 185.294 174.461C184.406 173.927 183.72 173.178 183.235 172.214C182.756 171.244 182.516 170.108 182.516 168.806C182.516 167.52 182.756 166.387 183.235 165.407C183.72 164.426 184.395 163.661 185.261 163.11C186.133 162.56 187.152 162.285 188.318 162.285C189.026 162.285 189.712 162.402 190.377 162.637C191.041 162.871 191.638 163.239 192.166 163.74C192.695 164.241 193.112 164.892 193.417 165.693C193.722 166.488 193.874 167.455 193.874 168.594V169.46H183.897V167.629H191.48C191.48 166.986 191.349 166.417 191.088 165.921C190.826 165.42 190.458 165.025 189.985 164.737C189.516 164.448 188.966 164.304 188.334 164.304C187.648 164.304 187.048 164.472 186.536 164.81C186.03 165.142 185.637 165.578 185.359 166.118C185.087 166.651 184.951 167.232 184.951 167.858V169.288C184.951 170.127 185.098 170.841 185.392 171.429C185.692 172.017 186.109 172.467 186.642 172.777C187.176 173.082 187.8 173.235 188.514 173.235C188.977 173.235 189.399 173.17 189.78 173.039C190.162 172.903 190.491 172.701 190.769 172.434C191.047 172.167 191.259 171.838 191.406 171.445L193.719 171.862C193.534 172.543 193.201 173.14 192.722 173.652C192.248 174.158 191.652 174.553 190.932 174.837C190.219 175.114 189.404 175.253 188.489 175.253ZM199.028 167.548V175H196.585V162.449H198.93V164.491H199.086C199.374 163.827 199.826 163.293 200.442 162.89C201.063 162.487 201.845 162.285 202.787 162.285C203.643 162.285 204.392 162.465 205.034 162.824C205.677 163.179 206.176 163.707 206.53 164.41C206.884 165.112 207.061 165.981 207.061 167.016V175H204.618V167.311C204.618 166.401 204.381 165.69 203.907 165.178C203.433 164.66 202.782 164.402 201.954 164.402C201.387 164.402 200.883 164.524 200.442 164.769C200.006 165.014 199.66 165.374 199.404 165.848C199.154 166.316 199.028 166.883 199.028 167.548ZM215.747 175.253C214.511 175.253 213.446 174.989 212.552 174.461C211.664 173.927 210.978 173.178 210.493 172.214C210.014 171.244 209.774 170.108 209.774 168.806C209.774 167.52 210.014 166.387 210.493 165.407C210.978 164.426 211.653 163.661 212.519 163.11C213.391 162.56 214.41 162.285 215.576 162.285C216.284 162.285 216.97 162.402 217.635 162.637C218.299 162.871 218.896 163.239 219.424 163.74C219.953 164.241 220.37 164.892 220.675 165.693C220.98 166.488 221.132 167.455 221.132 168.594V169.46H211.155V167.629H218.738C218.738 166.986 218.607 166.417 218.346 165.921C218.084 165.42 217.717 165.025 217.243 164.737C216.774 164.448 216.224 164.304 215.592 164.304C214.906 164.304 214.306 164.472 213.794 164.81C213.288 165.142 212.895 165.578 212.618 166.118C212.345 166.651 212.209 167.232 212.209 167.858V169.288C212.209 170.127 212.356 170.841 212.65 171.429C212.95 172.017 213.367 172.467 213.9 172.777C214.434 173.082 215.058 173.235 215.772 173.235C216.235 173.235 216.657 173.17 217.038 173.039C217.42 172.903 217.749 172.701 218.027 172.434C218.305 172.167 218.517 171.838 218.664 171.445L220.977 171.862C220.792 172.543 220.459 173.14 219.98 173.652C219.506 174.158 218.91 174.553 218.19 174.837C217.477 175.114 216.662 175.253 215.747 175.253ZM229.13 175.253C227.915 175.253 226.869 174.978 225.992 174.428C225.121 173.872 224.451 173.107 223.982 172.132C223.514 171.157 223.279 170.04 223.279 168.781C223.279 167.507 223.519 166.382 223.998 165.407C224.478 164.426 225.153 163.661 226.025 163.11C226.897 162.56 227.923 162.285 229.106 162.285C230.059 162.285 230.909 162.462 231.655 162.816C232.401 163.165 233.003 163.655 233.461 164.287C233.924 164.919 234.199 165.657 234.286 166.502H231.908C231.778 165.913 231.478 165.407 231.01 164.982C230.546 164.557 229.925 164.344 229.146 164.344C228.465 164.344 227.869 164.524 227.357 164.884C226.85 165.238 226.455 165.744 226.172 166.404C225.889 167.057 225.747 167.831 225.747 168.724C225.747 169.64 225.886 170.429 226.164 171.094C226.442 171.759 226.834 172.273 227.341 172.638C227.853 173.003 228.455 173.186 229.146 173.186C229.609 173.186 230.029 173.101 230.405 172.933C230.786 172.758 231.105 172.51 231.361 172.189C231.622 171.868 231.805 171.481 231.908 171.029H234.286C234.199 171.84 233.935 172.565 233.494 173.202C233.052 173.84 232.461 174.341 231.72 174.706C230.985 175.071 230.122 175.253 229.13 175.253ZM240.552 175.278C239.756 175.278 239.037 175.131 238.394 174.837C237.752 174.537 237.242 174.104 236.866 173.537C236.496 172.971 236.311 172.276 236.311 171.454C236.311 170.745 236.447 170.162 236.719 169.705C236.992 169.247 237.359 168.885 237.822 168.618C238.286 168.351 238.803 168.15 239.375 168.013C239.947 167.877 240.53 167.774 241.124 167.703C241.876 167.616 242.486 167.545 242.954 167.49C243.423 167.43 243.763 167.335 243.976 167.204C244.188 167.074 244.294 166.861 244.294 166.567V166.51C244.294 165.796 244.093 165.243 243.69 164.851C243.292 164.459 242.698 164.263 241.908 164.263C241.086 164.263 240.437 164.445 239.963 164.81C239.495 165.17 239.171 165.57 238.991 166.011L236.695 165.488C236.967 164.726 237.365 164.11 237.888 163.642C238.416 163.168 239.024 162.824 239.71 162.612C240.397 162.394 241.118 162.285 241.876 162.285C242.377 162.285 242.908 162.345 243.469 162.465C244.036 162.579 244.564 162.792 245.054 163.102C245.55 163.413 245.956 163.857 246.272 164.434C246.588 165.006 246.746 165.75 246.746 166.665V175H244.36V173.284H244.262C244.104 173.6 243.867 173.91 243.551 174.216C243.235 174.521 242.829 174.774 242.333 174.975C241.837 175.177 241.244 175.278 240.552 175.278ZM241.083 173.317C241.758 173.317 242.336 173.183 242.815 172.916C243.3 172.649 243.668 172.301 243.918 171.87C244.174 171.435 244.302 170.969 244.302 170.473V168.855C244.215 168.942 244.046 169.024 243.796 169.1C243.551 169.171 243.27 169.234 242.954 169.288C242.638 169.337 242.33 169.383 242.031 169.427C241.731 169.465 241.481 169.498 241.279 169.525C240.805 169.585 240.372 169.686 239.98 169.827C239.593 169.969 239.282 170.173 239.048 170.44C238.819 170.702 238.705 171.05 238.705 171.486C238.705 172.091 238.928 172.549 239.375 172.859C239.822 173.164 240.391 173.317 241.083 173.317Z" fill="white"/>
</svg>
