<svg width="35" height="35" viewBox="0 0 35 35" fill="none" xmlns="http://www.w3.org/2000/svg">
<g clip-path="url(#clip0_1468_298)">
<path d="M17.5 2.91669L17.9725 2.92398C21.7973 3.04797 25.4201 4.6704 28.0595 7.44133C30.6989 10.2123 32.1434 13.9096 32.0814 17.7359C32.0194 21.5622 30.4559 25.2109 27.7281 27.8948C25.0003 30.5788 21.3268 32.083 17.5 32.083C13.6731 32.083 9.99967 30.5788 7.27187 27.8948C4.54407 25.2109 2.98055 21.5622 2.91854 17.7359C2.85654 13.9096 4.30102 10.2123 6.94043 7.44133C9.57984 4.6704 13.2027 3.04797 17.0275 2.92398L17.5 2.91669ZM18.3939 10.5146C18.1008 10.288 17.7324 10.1814 17.3636 10.2165C16.9947 10.2517 16.6531 10.4259 16.408 10.7038C16.163 10.9817 16.0329 11.3425 16.0442 11.7128C16.0555 12.0831 16.2074 12.4353 16.4689 12.6977L19.81 16.0417H11.6666L11.496 16.0519C11.1269 16.0958 10.7885 16.279 10.5499 16.564C10.3114 16.849 10.1906 17.2144 10.2124 17.5855C10.2342 17.9565 10.3969 18.3053 10.6671 18.5604C10.9374 18.8156 11.2949 18.9579 11.6666 18.9584H19.81L16.4689 22.3023L16.3479 22.4394C16.1212 22.7325 16.0147 23.1009 16.0498 23.4697C16.0849 23.8386 16.2591 24.1802 16.5371 24.4253C16.815 24.6703 17.1757 24.8004 17.5461 24.7891C17.9164 24.7778 18.2686 24.6259 18.531 24.3644L24.3643 18.5311L24.4708 18.4115L24.5641 18.2817L24.6545 18.1169L24.7187 17.9565L24.7625 17.7931L24.7873 17.6094L24.7916 17.5L24.7814 17.3279L24.7391 17.1121L24.6881 16.959L24.6093 16.7942L24.5058 16.6323C24.4627 16.5745 24.4154 16.5199 24.3643 16.469L18.531 10.6356L18.3939 10.5146Z" fill="white"/>
</g>
<defs>
<clipPath id="clip0_1468_298">
<rect width="35" height="35" fill="white"/>
</clipPath>
</defs>
</svg>
