<svg width="32" height="32" viewBox="0 0 32 32" fill="none" xmlns="http://www.w3.org/2000/svg">
<g id="np_reliable_3812098_000000 1">
<g id="Group">
<path id="Vector" d="M16 8.00049C11.5983 8.00049 8 11.5988 8 16.0005C8 20.4022 11.5983 24.0005 16 24.0005C20.4017 24.0005 24 20.4022 24 16.0005C24 11.5988 20.4017 8.00049 16 8.00049ZM20.1902 14.7305L15.6196 19.3439C15.3649 19.5986 15.0689 19.6829 14.7729 19.6829C14.477 19.6829 14.138 19.5556 13.9263 19.3439L11.641 17.0586C11.1747 16.5923 11.1747 15.8317 11.641 15.3223C12.1074 14.856 12.868 14.856 13.3773 15.3223L14.816 16.7609L18.5416 13.0353C19.0079 12.569 19.7685 12.569 20.2779 13.0353C20.6565 13.5033 20.6566 14.2642 20.1902 14.7305Z" fill="black"/>
<path id="Vector_2" d="M27.2 6.91268C19.2637 6.11268 16.96 1.53636 16.8637 1.34404C16.7037 1.02404 16.3837 0.800293 16 0.800293C15.6162 0.800293 15.2962 1.02404 15.1362 1.34404C15.04 1.53654 12.7362 6.11268 4.7999 6.91268C4.3199 6.97643 3.93616 7.36017 3.93616 7.87268V15.7764C3.93616 24.9927 15.0725 30.8164 15.5525 31.0727C15.68 31.1364 15.84 31.1689 16 31.1689C16.16 31.1689 16.2875 31.1364 16.4475 31.0727C16.9275 30.8164 28.0638 24.9927 28.0638 15.7764V7.87268C28.0638 7.39268 27.68 6.97642 27.2 6.91268ZM16 23.8727C11.6474 23.8727 8.12739 20.3527 8.12739 16C8.12739 11.6474 11.6474 8.1274 16 8.1274C20.3527 8.1274 23.8727 11.6474 23.8727 16C23.8727 20.3527 20.3527 23.8727 16 23.8727Z" fill="black"/>
</g>
</g>
</svg>
