<svg width="30" height="28" viewBox="0 0 30 28" fill="none" xmlns="http://www.w3.org/2000/svg">
<g id="Group">
<path id="Vector" d="M4.73881 27.4H25.2778C28.7719 27.4 30.4214 24.4561 28.7329 21.3559L18.3675 2.55507C16.6399 -0.585087 13.3375 -0.585087 11.61 2.55507L1.28366 21.3559C-0.443917 24.4961 1.24617 27.4 4.73881 27.4ZM3.77905 22.8079L14.1054 4.00699C14.6047 3.10389 15.2181 2.86932 15.8329 4.00699L26.1999 22.8079C26.8148 23.9455 26.1999 24.4561 25.2402 24.4561H4.73881C3.43415 24.4561 3.27966 23.7892 3.77905 22.8079Z" fill="black"/>
<path id="Vector_2" d="M14.5624 16.4758H15.4645C15.8874 16.4758 16.4107 15.8026 16.4107 15.3703V9.74665C16.4107 9.07968 15.9113 8.56909 15.2589 8.56909H14.6831C14.0308 8.56909 13.5314 9.07968 13.5314 9.74665V15.3703C13.5314 15.8011 14.1395 16.4758 14.5624 16.4758Z" fill="black"/>
<path id="Vector_3" d="M16.4479 19.42C16.4479 21.4086 13.5311 21.4086 13.5311 19.42C13.5311 17.4313 16.4479 17.4313 16.4479 19.42Z" fill="black"/>
</g>
</svg>
