<svg width="32" height="32" viewBox="0 0 32 32" fill="none" xmlns="http://www.w3.org/2000/svg">
<g id="np_close_1104042_000000 1">
<path id="Vector" d="M16 1.32349C7.90997 1.32349 1.32352 7.91165 1.32352 16C1.32352 24.09 7.91168 30.6765 16 30.6765C24.09 30.6765 30.6765 24.0883 30.6765 16C30.6765 7.90994 24.0896 1.32349 16 1.32349ZM21.5633 20.0968C21.9383 20.5068 21.9383 21.1552 21.5633 21.5302C21.3933 21.7352 21.12 21.8368 20.8466 21.8368C20.5733 21.8368 20.335 21.7352 20.13 21.5302L16.0333 17.4335L11.9366 21.5302C11.7666 21.7352 11.4932 21.8368 11.2199 21.8368C10.6399 21.8368 10.1966 21.3935 10.1966 20.8135C10.1966 20.5402 10.2983 20.3019 10.5033 20.0968L14.6 16.0002L10.5033 11.9035C10.0933 11.4935 10.1283 10.8451 10.5366 10.4701C10.9466 10.0951 11.5266 10.0951 11.9366 10.4701L16.0333 14.5668L20.1299 10.4701C20.54 10.0601 21.1883 10.0951 21.5633 10.5035C21.9383 10.9135 21.9383 11.4935 21.5633 11.9034L17.4666 16.0001L21.5633 20.0968Z" fill="white"/>
</g>
</svg>
