<svg width="81" height="80" viewBox="0 0 81 80" fill="none" xmlns="http://www.w3.org/2000/svg">
<mask id="path-1-inside-1_437_635" fill="white">
<path fill-rule="evenodd" clip-rule="evenodd" d="M39.1734 10C31.4039 10 25.0578 16.3176 25.0578 24.0828C25.0578 28.6359 27.2403 32.6927 30.6082 35.2694C22.0502 38.664 16.0033 47.0003 16.0033 56.7631V63.1939C16.0033 63.2371 16.0026 63.2842 16.0018 63.3347C15.9962 63.7105 15.9878 64.2714 16.2466 64.7859C16.5265 65.3423 17.0461 65.7749 17.6503 65.9469C18.0134 66.0503 18.4129 66.0414 18.6786 66.0356C18.7322 66.0344 18.7803 66.0333 18.8216 66.0333H25.5535L25.6104 66.0334C25.9343 66.0342 26.3992 66.0354 26.8562 65.8258C27.3305 65.6082 27.7238 65.2206 27.9498 64.7556C28.342 63.9485 28.1903 62.95 27.6442 62.3021C27.3229 61.921 26.8768 61.6463 26.367 61.5418C26.076 61.4822 25.7551 61.489 25.5372 61.4936L25.5363 61.4936C25.4866 61.4947 25.4423 61.4956 25.4049 61.4956H20.5383V56.7629C20.5383 46.4368 28.8212 38.1758 39.1711 38.1758C46.0971 38.1758 52.0781 41.8922 55.2938 47.4347C55.9225 48.5119 57.3087 48.887 58.3924 48.2559C58.9137 47.9558 59.2927 47.4645 59.4493 46.8848C59.6093 46.3017 59.5271 45.6817 59.2301 45.162L59.228 45.1582C56.6393 40.6962 52.5919 37.1901 47.7408 35.2685C51.1041 32.6898 53.2822 28.6332 53.2822 24.0803C53.2822 16.3151 46.9434 10 39.1734 10ZM61.8139 61.4966L57.2643 52.0924C56.717 50.9581 55.3132 50.4821 54.194 51.0528C53.9043 51.2006 53.6473 51.41 53.4431 51.6692C53.2321 51.9371 53.078 52.2802 52.9724 52.5155C52.9462 52.5737 52.9231 52.6253 52.9027 52.6675L46.7835 65.3767L45.1983 62.6234L45.1955 62.6187C44.7887 61.9253 44.0451 61.4964 43.2372 61.4964H34.4032C33.1545 61.4964 32.1257 62.5122 32.1257 63.7609C32.1292 65.0081 33.1559 66.018 34.4032 66.0216H41.9279L44.9945 71.359C45.4149 72.0902 46.2042 72.5303 47.0485 72.4984C47.8913 72.4665 48.6494 71.9666 49.0114 71.2049L55.2226 58.2979L58.347 64.7476L58.3485 64.7507C58.7307 65.5291 59.5206 66.0216 60.3878 66.0216C62.0256 66.0216 63.6001 66.022 65.1757 66.0224C66.7539 66.0228 68.3334 66.0231 69.9791 66.0231C70.707 66.0231 71.3818 65.8961 71.9162 65.363C72.3459 64.9394 72.5671 64.3621 72.5707 63.7629V63.7551C72.5672 63.1568 72.3404 62.5792 71.9162 62.155C71.3643 61.6077 70.6719 61.477 69.9267 61.4948C69.0892 61.4948 68.3175 61.4954 67.5511 61.496C66.7132 61.4967 65.8816 61.4974 64.9771 61.4973L61.8139 61.4966ZM39.1734 14.5251C33.8657 14.5251 29.5929 18.7904 29.5929 24.0831C29.5929 29.1894 33.5665 33.3357 38.6093 33.6248C38.9809 33.6461 39.3615 33.6461 39.7332 33.6248C44.7791 33.3357 48.7442 29.1893 48.7442 24.0831C48.7442 18.7873 44.4806 14.5251 39.1734 14.5251Z"/>
</mask>
<path fill-rule="evenodd" clip-rule="evenodd" d="M39.1734 10C31.4039 10 25.0578 16.3176 25.0578 24.0828C25.0578 28.6359 27.2403 32.6927 30.6082 35.2694C22.0502 38.664 16.0033 47.0003 16.0033 56.7631V63.1939C16.0033 63.2371 16.0026 63.2842 16.0018 63.3347C15.9962 63.7105 15.9878 64.2714 16.2466 64.7859C16.5265 65.3423 17.0461 65.7749 17.6503 65.9469C18.0134 66.0503 18.4129 66.0414 18.6786 66.0356C18.7322 66.0344 18.7803 66.0333 18.8216 66.0333H25.5535L25.6104 66.0334C25.9343 66.0342 26.3992 66.0354 26.8562 65.8258C27.3305 65.6082 27.7238 65.2206 27.9498 64.7556C28.342 63.9485 28.1903 62.95 27.6442 62.3021C27.3229 61.921 26.8768 61.6463 26.367 61.5418C26.076 61.4822 25.7551 61.489 25.5372 61.4936L25.5363 61.4936C25.4866 61.4947 25.4423 61.4956 25.4049 61.4956H20.5383V56.7629C20.5383 46.4368 28.8212 38.1758 39.1711 38.1758C46.0971 38.1758 52.0781 41.8922 55.2938 47.4347C55.9225 48.5119 57.3087 48.887 58.3924 48.2559C58.9137 47.9558 59.2927 47.4645 59.4493 46.8848C59.6093 46.3017 59.5271 45.6817 59.2301 45.162L59.228 45.1582C56.6393 40.6962 52.5919 37.1901 47.7408 35.2685C51.1041 32.6898 53.2822 28.6332 53.2822 24.0803C53.2822 16.3151 46.9434 10 39.1734 10ZM61.8139 61.4966L57.2643 52.0924C56.717 50.9581 55.3132 50.4821 54.194 51.0528C53.9043 51.2006 53.6473 51.41 53.4431 51.6692C53.2321 51.9371 53.078 52.2802 52.9724 52.5155C52.9462 52.5737 52.9231 52.6253 52.9027 52.6675L46.7835 65.3767L45.1983 62.6234L45.1955 62.6187C44.7887 61.9253 44.0451 61.4964 43.2372 61.4964H34.4032C33.1545 61.4964 32.1257 62.5122 32.1257 63.7609C32.1292 65.0081 33.1559 66.018 34.4032 66.0216H41.9279L44.9945 71.359C45.4149 72.0902 46.2042 72.5303 47.0485 72.4984C47.8913 72.4665 48.6494 71.9666 49.0114 71.2049L55.2226 58.2979L58.347 64.7476L58.3485 64.7507C58.7307 65.5291 59.5206 66.0216 60.3878 66.0216C62.0256 66.0216 63.6001 66.022 65.1757 66.0224C66.7539 66.0228 68.3334 66.0231 69.9791 66.0231C70.707 66.0231 71.3818 65.8961 71.9162 65.363C72.3459 64.9394 72.5671 64.3621 72.5707 63.7629V63.7551C72.5672 63.1568 72.3404 62.5792 71.9162 62.155C71.3643 61.6077 70.6719 61.477 69.9267 61.4948C69.0892 61.4948 68.3175 61.4954 67.5511 61.496C66.7132 61.4967 65.8816 61.4974 64.9771 61.4973L61.8139 61.4966ZM39.1734 14.5251C33.8657 14.5251 29.5929 18.7904 29.5929 24.0831C29.5929 29.1894 33.5665 33.3357 38.6093 33.6248C38.9809 33.6461 39.3615 33.6461 39.7332 33.6248C44.7791 33.3357 48.7442 29.1893 48.7442 24.0831C48.7442 18.7873 44.4806 14.5251 39.1734 14.5251Z" fill="white"/>
<path d="M30.6082 35.2694L30.7557 35.6412L31.4121 35.3808L30.8512 34.9517L30.6082 35.2694ZM16.0018 63.3347L15.6019 63.3288L16.0018 63.3347ZM16.2466 64.7859L15.8893 64.9657L15.8893 64.9657L16.2466 64.7859ZM17.6503 65.9469L17.7598 65.5622H17.7598L17.6503 65.9469ZM18.6786 66.0356L18.6698 65.6357H18.6697L18.6786 66.0356ZM25.5535 66.0333L25.5542 65.6333H25.5535V66.0333ZM25.6104 66.0334L25.6113 65.6334H25.611L25.6104 66.0334ZM26.8562 65.8258L26.6894 65.4622H26.6894L26.8562 65.8258ZM27.9498 64.7556L28.3095 64.9305L27.9498 64.7556ZM27.6442 62.3021L27.95 62.0443H27.95L27.6442 62.3021ZM26.367 61.5418L26.2867 61.9337H26.2867L26.367 61.5418ZM25.5372 61.4936L25.5287 61.0937L25.5262 61.0938L25.5372 61.4936ZM25.5363 61.4936L25.5447 61.8936L25.5473 61.8935L25.5363 61.4936ZM20.5383 61.4956H20.1383V61.8956H20.5383V61.4956ZM55.2938 47.4347L54.9478 47.6354L54.9483 47.6363L55.2938 47.4347ZM58.3924 48.2559L58.1929 47.9093L58.1911 47.9103L58.3924 48.2559ZM59.4493 46.8848L59.0635 46.779L59.0631 46.7805L59.4493 46.8848ZM59.2301 45.162L59.5774 44.9635L59.5762 44.9614L59.2301 45.162ZM59.228 45.1582L59.5741 44.9577L59.5739 44.9575L59.228 45.1582ZM47.7408 35.2685L47.4974 34.9511L46.9374 35.3805L47.5935 35.6404L47.7408 35.2685ZM57.2643 52.0924L56.904 52.2662L56.9042 52.2666L57.2643 52.0924ZM61.8139 61.4966L61.4538 61.6708L61.563 61.8965L61.8138 61.8966L61.8139 61.4966ZM54.194 51.0528L54.0123 50.6965L54.194 51.0528ZM53.4431 51.6692L53.7573 51.9168L53.4431 51.6692ZM52.9724 52.5155L53.3372 52.6794L53.3373 52.6794L52.9724 52.5155ZM52.9027 52.6675L53.2631 52.841V52.841L52.9027 52.6675ZM46.7835 65.3767L46.4368 65.5763L46.815 66.2332L47.1439 65.5503L46.7835 65.3767ZM45.1983 62.6234L45.5449 62.4238L45.5432 62.4208L45.1983 62.6234ZM45.1955 62.6187L44.8505 62.8211L44.8506 62.8212L45.1955 62.6187ZM32.1257 63.7609H31.7257L31.7257 63.762L32.1257 63.7609ZM34.4032 66.0216L34.402 66.4216H34.4032V66.0216ZM41.9279 66.0216L42.2748 65.8223L42.1595 65.6216H41.9279V66.0216ZM44.9945 71.359L44.6476 71.5582L44.6477 71.5583L44.9945 71.359ZM47.0485 72.4984L47.0333 72.0987H47.0333L47.0485 72.4984ZM49.0114 71.2049L48.651 71.0315L48.6501 71.0332L49.0114 71.2049ZM55.2226 58.2979L55.5825 58.1235L55.2214 57.3779L54.8621 58.1244L55.2226 58.2979ZM58.347 64.7476L57.987 64.922L57.9876 64.9233L58.347 64.7476ZM58.3485 64.7507L57.9891 64.9264L57.9894 64.9269L58.3485 64.7507ZM65.1757 66.0224L65.1756 66.4224L65.1757 66.0224ZM71.9162 65.363L71.6354 65.0781L71.6337 65.0798L71.9162 65.363ZM72.5707 63.7629L72.9707 63.7653V63.7629H72.5707ZM72.5707 63.7551H72.9707L72.9707 63.7527L72.5707 63.7551ZM71.9162 62.155L72.1991 61.8722L72.1979 61.871L71.9162 62.155ZM69.9267 61.4948V61.8949L69.9362 61.8947L69.9267 61.4948ZM67.5511 61.496L67.5508 61.096L67.5511 61.496ZM64.9771 61.4973L64.977 61.8973H64.9771L64.9771 61.4973ZM38.6093 33.6248L38.5864 34.0242L38.6093 33.6248ZM39.7332 33.6248L39.7103 33.2255H39.7103L39.7332 33.6248ZM25.4578 24.0828C25.4578 16.5396 31.6237 10.4 39.1734 10.4V9.6C31.1841 9.6 24.6578 16.0956 24.6578 24.0828H25.4578ZM30.8512 34.9517C27.5772 32.4468 25.4578 28.5051 25.4578 24.0828H24.6578C24.6578 28.7667 26.9034 32.9386 30.3651 35.5871L30.8512 34.9517ZM16.4033 56.7631C16.4033 47.1701 22.3447 38.9775 30.7557 35.6412L30.4607 34.8976C21.7557 38.3505 15.6033 46.8306 15.6033 56.7631H16.4033ZM16.4033 63.1939V56.7631H15.6033V63.1939H16.4033ZM16.4018 63.3407C16.4025 63.291 16.4033 63.2407 16.4033 63.1939H15.6033C15.6033 63.2335 15.6026 63.2775 15.6019 63.3288L16.4018 63.3407ZM16.604 64.6062C16.3949 64.1906 16.3961 63.7247 16.4018 63.3407L15.6019 63.3288C15.5964 63.6963 15.5807 64.3522 15.8893 64.9657L16.604 64.6062ZM17.7598 65.5622C17.2637 65.421 16.8338 65.0631 16.604 64.6062L15.8893 64.9657C16.2192 65.6216 16.8284 66.1289 17.5408 66.3317L17.7598 65.5622ZM18.6697 65.6357C18.3962 65.6417 18.0561 65.6465 17.7598 65.5622L17.5408 66.3317C17.9707 66.454 18.4297 66.4412 18.6874 66.4355L18.6697 65.6357ZM18.8216 65.6333C18.7749 65.6333 18.722 65.6345 18.6698 65.6357L18.6874 66.4355C18.7424 66.4343 18.7856 66.4333 18.8216 66.4333V65.6333ZM25.5535 65.6333H18.8216V66.4333H25.5535V65.6333ZM25.611 65.6334L25.5542 65.6333L25.5528 66.4333L25.6097 66.4334L25.611 65.6334ZM26.6894 65.4622C26.3216 65.6309 25.9394 65.6342 25.6113 65.6334L25.6094 66.4334C25.9293 66.4342 26.4768 66.4398 27.023 66.1893L26.6894 65.4622ZM27.59 64.5808C27.4042 64.9631 27.0788 65.2836 26.6894 65.4622L27.023 66.1893C27.5822 65.9328 28.0434 65.4782 28.3095 64.9305L27.59 64.5808ZM27.3383 62.5599C27.7857 63.0907 27.911 63.9203 27.59 64.5808L28.3095 64.9305C28.773 63.9767 28.5948 62.8093 27.95 62.0443L27.3383 62.5599ZM26.2867 61.9337C26.7059 62.0196 27.0733 62.2455 27.3383 62.5599L27.95 62.0443C27.5725 61.5964 27.0478 61.273 26.4473 61.1499L26.2867 61.9337ZM25.5456 61.8935C25.7701 61.8888 26.0466 61.8845 26.2867 61.9337L26.4473 61.1499C26.1055 61.0799 25.7401 61.0892 25.5287 61.0937L25.5456 61.8935ZM25.5473 61.8935L25.5481 61.8935L25.5262 61.0938L25.5253 61.0938L25.5473 61.8935ZM25.4049 61.8956C25.4474 61.8956 25.4965 61.8946 25.5447 61.8935L25.5279 61.0937C25.4768 61.0948 25.4371 61.0956 25.4049 61.0956V61.8956ZM20.5383 61.8956H25.4049V61.0956H20.5383V61.8956ZM20.1383 56.7629V61.4956H20.9383V56.7629H20.1383ZM39.1711 37.7758C28.6013 37.7758 20.1383 46.2149 20.1383 56.7629H20.9383C20.9383 46.6587 29.0412 38.5758 39.1711 38.5758V37.7758ZM55.6398 47.2339C52.3551 41.5725 46.2447 37.7758 39.1711 37.7758V38.5758C45.9494 38.5758 51.8011 42.2118 54.9478 47.6354L55.6398 47.2339ZM58.1911 47.9103C57.3002 48.4291 56.1578 48.1216 55.6393 47.2331L54.9483 47.6363C55.6871 48.9022 57.3172 49.3449 58.5937 48.6016L58.1911 47.9103ZM59.0631 46.7805C58.9343 47.2575 58.6226 47.6619 58.1929 47.9093L58.592 48.6026C59.2049 48.2498 59.6511 47.6715 59.8354 46.9891L59.0631 46.7805ZM58.8828 45.3604C59.1277 45.7889 59.1951 46.2996 59.0635 46.779L59.835 46.9907C60.0235 46.3038 59.9265 45.5744 59.5774 44.9635L58.8828 45.3604ZM58.8818 45.3587L58.884 45.3625L59.5762 44.9614L59.5741 44.9577L58.8818 45.3587ZM47.5935 35.6404C52.3608 37.5288 56.3383 40.9745 58.882 45.359L59.5739 44.9575C56.9403 40.418 52.8231 36.8514 47.8881 34.8966L47.5935 35.6404ZM52.8822 24.0803C52.8822 28.5026 50.767 32.4442 47.4974 34.9511L47.9842 35.586C51.4413 32.9353 53.6823 28.7637 53.6823 24.0803H52.8822ZM39.1734 10.4C46.7234 10.4 52.8822 16.5369 52.8822 24.0803H53.6823C53.6823 16.0932 47.1633 9.6 39.1734 9.6V10.4ZM56.9042 52.2666L61.4538 61.6708L62.174 61.3224L57.6244 51.9182L56.9042 52.2666ZM54.3757 51.4092C55.2939 50.9409 56.4537 51.3327 56.904 52.2662L57.6246 51.9185C56.9804 50.5834 55.3326 50.0232 54.0123 50.6965L54.3757 51.4092ZM53.7573 51.9168C53.9254 51.7034 54.137 51.5309 54.3757 51.4092L54.0123 50.6965C53.6716 50.8702 53.3693 51.1166 53.1289 51.4217L53.7573 51.9168ZM53.3373 52.6794C53.4462 52.4367 53.5818 52.1395 53.7573 51.9168L53.1289 51.4217C52.8824 51.7346 52.7098 52.1238 52.6074 52.3517L53.3373 52.6794ZM53.2631 52.841C53.2863 52.793 53.3119 52.736 53.3372 52.6794L52.6075 52.3517C52.5806 52.4115 52.5599 52.4576 52.5423 52.494L53.2631 52.841ZM47.1439 65.5503L53.2631 52.841L52.5423 52.494L46.4231 65.2032L47.1439 65.5503ZM44.8516 62.8229L46.4368 65.5763L47.1301 65.1772L45.5449 62.4238L44.8516 62.8229ZM44.8506 62.8212L44.8533 62.8259L45.5432 62.4208L45.5405 62.4162L44.8506 62.8212ZM43.2372 61.8964C43.9026 61.8964 44.5152 62.2496 44.8505 62.8211L45.5405 62.4163C45.0622 61.6011 44.1877 61.0964 43.2372 61.0964V61.8964ZM34.4032 61.8964H43.2372V61.0964H34.4032V61.8964ZM32.5257 63.7609C32.5257 62.7361 33.3724 61.8964 34.4032 61.8964V61.0964C32.9366 61.0964 31.7257 62.2883 31.7257 63.7609H32.5257ZM34.4043 65.6216C33.3733 65.6186 32.5286 64.7831 32.5257 63.7597L31.7257 63.762C31.7299 65.2331 32.9386 66.4174 34.402 66.4216L34.4043 65.6216ZM41.9279 65.6216H34.4032V66.4216H41.9279V65.6216ZM45.3413 71.1597L42.2748 65.8223L41.5811 66.2208L44.6476 71.5582L45.3413 71.1597ZM47.0333 72.0987C46.3385 72.125 45.688 71.7628 45.3412 71.1596L44.6477 71.5583C45.1417 72.4176 46.07 72.9357 47.0636 72.8981L47.0333 72.0987ZM48.6501 71.0332C48.352 71.6605 47.7272 72.0724 47.0333 72.0987L47.0636 72.8981C48.0554 72.8606 48.9468 72.2727 49.3727 71.3766L48.6501 71.0332ZM54.8621 58.1244L48.651 71.0315L49.3718 71.3784L55.583 58.4713L54.8621 58.1244ZM58.707 64.5732L55.5825 58.1235L54.8626 58.4722L57.987 64.922L58.707 64.5732ZM58.7078 64.575L58.7063 64.5719L57.9876 64.9233L57.9892 64.9264L58.7078 64.575ZM60.3878 65.6216C59.6732 65.6216 59.0225 65.216 58.7076 64.5744L57.9894 64.9269C58.4388 65.8423 59.3679 66.4216 60.3878 66.4216V65.6216ZM65.1758 65.6224C63.6002 65.622 62.0257 65.6216 60.3878 65.6216V66.4216C62.0256 66.4216 63.5999 66.422 65.1756 66.4224L65.1758 65.6224ZM69.9791 65.6231C68.3334 65.6231 66.754 65.6227 65.1758 65.6224L65.1756 66.4224C66.7538 66.4228 68.3333 66.4231 69.9791 66.4231V65.6231ZM71.6337 65.0798C71.21 65.5026 70.6652 65.6231 69.9791 65.6231V66.4231C70.7487 66.4231 71.5537 66.2897 72.1988 65.6461L71.6337 65.0798ZM72.1707 63.7605C72.1677 64.2634 71.9826 64.7358 71.6354 65.0781L72.1971 65.6478C72.7092 65.1429 72.9665 64.4608 72.9707 63.7653L72.1707 63.7605ZM72.1707 63.7551V63.7629H72.9707V63.7551H72.1707ZM71.6334 62.4379C71.9786 62.7831 72.1677 63.2579 72.1707 63.7575L72.9707 63.7527C72.9666 63.0557 72.7022 62.3752 72.1991 61.8722L71.6334 62.4379ZM69.9362 61.8947C70.6316 61.8781 71.1936 62.0018 71.6346 62.4391L72.1979 61.871C71.535 61.2136 70.7122 61.076 69.9172 61.0949L69.9362 61.8947ZM67.5515 61.896C68.3179 61.8954 69.0894 61.8948 69.9267 61.8948V61.0948C69.089 61.0948 68.3172 61.0954 67.5508 61.096L67.5515 61.896ZM64.9771 61.8973C65.8818 61.8974 66.7136 61.8967 67.5515 61.896L67.5508 61.096C66.7129 61.0967 65.8814 61.0974 64.9772 61.0973L64.9771 61.8973ZM61.8138 61.8966L64.977 61.8973L64.9772 61.0973L61.814 61.0966L61.8138 61.8966ZM29.9929 24.0831C29.9929 19.0122 34.0857 14.9251 39.1734 14.9251V14.1251C33.6456 14.1251 29.1929 18.5687 29.1929 24.0831H29.9929ZM38.6322 33.2255C33.7992 32.9484 29.9929 28.9756 29.9929 24.0831H29.1929C29.1929 29.4032 33.3337 33.723 38.5864 34.0242L38.6322 33.2255ZM39.7103 33.2255C39.3538 33.2459 38.9885 33.2459 38.6322 33.2255L38.5864 34.0242C38.9733 34.0464 39.3691 34.0464 39.756 34.0242L39.7103 33.2255ZM48.3442 24.0831C48.3442 28.9758 44.546 32.9484 39.7103 33.2255L39.756 34.0242C45.0123 33.723 49.1442 29.4027 49.1442 24.0831H48.3442ZM39.1734 14.9251C44.2601 14.9251 48.3442 19.0086 48.3442 24.0831H49.1442C49.1442 18.566 44.7011 14.1251 39.1734 14.1251V14.9251Z" fill="white" mask="url(#path-1-inside-1_437_635)"/>
</svg>
