<svg width="24" height="24" viewBox="0 0 24 24" fill="none" xmlns="http://www.w3.org/2000/svg">
<g clip-path="url(#clip0_1553_5031)">
<path d="M2.38213 8.09275C2.38213 8.47472 2.07305 8.78381 1.69106 8.78381C1.30909 8.78381 1 8.47473 1 8.09275L1.00001 2C1.00001 1.44771 1.44772 1 2.00001 1H8.09274C8.09788 1 8.103 0.999889 8.1081 1C8.48297 1.00815 8.78381 1.31422 8.78381 1.69106C8.78381 2.07304 8.47473 2.38213 8.09274 2.38213H2.88213C2.60599 2.38213 2.38213 2.60599 2.38213 2.88213V8.09275Z" fill="black"/>
<path d="M8.09274 1C8.09788 1 8.103 0.999889 8.1081 1M8.1081 1C8.48297 1.00815 8.78381 1.31422 8.78381 1.69106C8.78381 2.07304 8.47473 2.38213 8.09274 2.38213H2.88213C2.60599 2.38213 2.38213 2.60599 2.38213 2.88213V8.09275C2.38213 8.47472 2.07305 8.78381 1.69106 8.78381C1.30909 8.78381 1 8.47473 1 8.09275L1.00001 2C1.00001 1.44771 1.44772 1 2.00001 1H8.1081Z" stroke="black" stroke-width="0.3"/>
<path d="M2.38213 15.9073C2.38213 15.5253 2.07305 15.2162 1.69106 15.2162C1.30909 15.2162 1 15.5253 1 15.9073L1.00001 22C1.00001 22.5523 1.44772 23 2.00001 23H8.09274C8.09788 23 8.103 23.0001 8.1081 23C8.48297 22.9918 8.78381 22.6858 8.78381 22.3089C8.78381 21.927 8.47473 21.6179 8.09274 21.6179H2.88213C2.60599 21.6179 2.38213 21.394 2.38213 21.1179V15.9073Z" fill="black"/>
<path d="M8.09274 23C8.09788 23 8.103 23.0001 8.1081 23M8.1081 23C8.48297 22.9918 8.78381 22.6858 8.78381 22.3089C8.78381 21.927 8.47473 21.6179 8.09274 21.6179H2.88213C2.60599 21.6179 2.38213 21.394 2.38213 21.1179V15.9073C2.38213 15.5253 2.07305 15.2162 1.69106 15.2162C1.30909 15.2162 1 15.5253 1 15.9073L1.00001 22C1.00001 22.5523 1.44772 23 2.00001 23H8.1081Z" stroke="black" stroke-width="0.3"/>
<path d="M15.9073 2.38213C15.5253 2.38213 15.2162 2.07305 15.2162 1.69106C15.2162 1.30909 15.5253 1 15.9073 1L22 1.00001C22.5523 1.00001 23 1.44772 23 2.00001L23 8.09274C23 8.09788 23.0001 8.103 23 8.1081C22.9918 8.48297 22.6858 8.78381 22.3089 8.78381C21.927 8.78381 21.6179 8.47473 21.6179 8.09274L21.6179 2.88213C21.6179 2.60599 21.394 2.38213 21.1179 2.38213L15.9073 2.38213Z" fill="black"/>
<path d="M23 8.09274C23 8.09788 23.0001 8.103 23 8.1081M23 8.1081C22.9918 8.48297 22.6858 8.78381 22.3089 8.78381C21.927 8.78381 21.6179 8.47473 21.6179 8.09274L21.6179 2.88213C21.6179 2.60599 21.394 2.38213 21.1179 2.38213L15.9073 2.38213C15.5253 2.38213 15.2162 2.07305 15.2162 1.69106C15.2162 1.30909 15.5253 1 15.9073 1L22 1.00001C22.5523 1.00001 23 1.44772 23 2.00001L23 8.1081Z" stroke="black" stroke-width="0.3"/>
<path d="M15.9073 21.6179C15.5253 21.6179 15.2162 21.9269 15.2162 22.3089C15.2162 22.6909 15.5253 23 15.9073 23L22 23C22.5523 23 23 22.5523 23 22L23 15.9073C23 15.9021 23.0001 15.897 23 15.8919C22.9918 15.517 22.6858 15.2162 22.3089 15.2162C21.927 15.2162 21.6179 15.5253 21.6179 15.9073L21.6179 21.1179C21.6179 21.394 21.394 21.6179 21.1179 21.6179L15.9073 21.6179Z" fill="black"/>
<path d="M23 15.9073C23 15.9021 23.0001 15.897 23 15.8919M23 15.8919C22.9918 15.517 22.6858 15.2162 22.3089 15.2162C21.927 15.2162 21.6179 15.5253 21.6179 15.9073L21.6179 21.1179C21.6179 21.394 21.394 21.6179 21.1179 21.6179L15.9073 21.6179C15.5253 21.6179 15.2162 21.9269 15.2162 22.3089C15.2162 22.6909 15.5253 23 15.9073 23L22 23C22.5523 23 23 22.5523 23 22L23 15.8919Z" stroke="black" stroke-width="0.3"/>
<path d="M1 12L23 12" stroke="black" stroke-width="1.6" stroke-linecap="round"/>
</g>
<defs>
<clipPath id="clip0_1553_5031">
<rect width="24" height="24" fill="white"/>
</clipPath>
</defs>
</svg>
