<svg width="26" height="26" viewBox="0 0 26 26" fill="none" xmlns="http://www.w3.org/2000/svg">
<path d="M13.0265 1.2998C9.64649 1.2998 6.86475 4.08154 6.86475 7.46154C6.86475 8.47513 7.72295 9.33334 8.76295 9.33334C9.82937 9.33334 10.6612 8.47513 10.6612 7.46154C10.6612 6.16154 11.7276 5.09513 13.0276 5.09513C14.3012 5.09513 15.3412 6.16154 15.3412 7.46154C15.3412 8.65796 14.8212 9.25513 13.8594 10.3481C12.663 11.5699 11.0776 13.2598 11.0776 16.4846C11.0776 17.5764 11.9358 18.4082 13.0012 18.4082C14.0412 18.4082 14.873 17.5764 14.873 16.4846C14.873 14.7428 15.6012 13.9628 16.5894 12.9228C17.7076 11.7011 19.0858 10.2194 19.0858 7.43632C19.1366 4.0818 16.4065 1.2998 13.0265 1.2998H13.0265ZM13.0265 20.1233C11.7529 20.1233 10.7129 21.1115 10.7129 22.4115C10.7129 23.6851 11.7529 24.6997 13.0265 24.6997C14.2483 24.6997 15.3147 23.6861 15.3147 22.4115C15.3137 21.1379 14.2737 20.1233 13.0265 20.1233Z" fill="#BE2BBB"/>
</svg>
