<svg version="1.1" xmlns="http://www.w3.org/2000/svg" width="513" height="159" viewBox="0 0 2954 2080">
<path d="M0 0 C31.35 0 62.7 0 95 0 C105.31628985 30.94886956 105.31628985 30.94886956 108.8828125 42.6015625 C109.2993509 43.95329533 109.71622387 45.30492511 110.13339233 46.65646362 C111.01192034 49.50415168 111.88886287 52.35232003 112.7644043 55.20092773 C115.15994496 62.99334855 117.5681853 70.78185135 119.9765625 78.5703125 C120.22480522 79.37335564 120.47304794 80.17639877 120.72881317 81.00377655 C126.01649649 98.10409506 131.3931703 115.17589976 136.78675842 132.24305725 C146.04313751 161.53343841 155.18744876 190.85717204 164.25976562 220.20507812 C164.48594133 220.9366897 164.71211704 221.66830128 164.94514656 222.4220829 C166.0039719 225.84737332 167.06231693 229.27281058 168.11959839 232.69857788 C168.48666901 233.88714386 168.85373962 235.07570984 169.23193359 236.30029297 C169.55116791 237.33475555 169.87040222 238.36921814 170.1993103 239.43502808 C170.78028099 241.29614045 171.3834559 243.15036771 172 245 C180.59967839 219.98802806 189.04497455 194.93170819 197.28308105 169.79840088 C200.35269128 160.43461696 203.43355178 151.07453163 206.515625 141.71484375 C207.00747158 140.22106705 207.00747158 140.22106705 207.50925446 138.69711304 C216.21557783 112.26280781 225.00751885 85.85696493 233.80756807 59.45374793 C235.31884191 54.91927091 236.82927711 50.38451515 238.33935547 45.84963989 C240.37945091 39.72328337 242.42133285 33.59752414 244.46451569 27.47219658 C245.22337175 25.19658543 245.98175443 22.92081636 246.73964691 20.64488411 C247.77779493 17.52791159 248.81782685 14.41157428 249.85839844 11.29541016 C250.16463638 10.37466989 250.47087433 9.45392962 250.78639221 8.50528812 C251.06552963 7.67069789 251.34466705 6.83610765 251.63226318 5.97622681 C251.87390072 5.25169123 252.11553825 4.52715565 252.36449814 3.78066444 C253 2 253 2 254 0 C285.35 0 316.7 0 349 0 C349 106.59 349 213.18 349 323 C327.55 323 306.1 323 284 323 C283.95443935 298.55180526 283.91777428 274.10364613 283.89637566 249.65541935 C283.88616546 238.29768898 283.87230787 226.9399873 283.84912109 215.58227539 C283.82886618 205.65575987 283.81620966 195.72926517 283.81182301 185.80272955 C283.80926842 180.57138732 283.803494 175.34010451 283.78853989 170.10878181 C283.7124363 142.42053726 284.34505101 114.82892169 285.70008588 87.17175806 C285.94057096 82.10732393 286.04031414 77.07025201 286 72 C282.06760568 83.77356995 278.13703264 95.54774639 274.2085247 107.32261372 C272.38251709 112.79551114 270.55597816 118.26822979 268.72802734 123.74047852 C261.46567882 145.48265598 254.2229912 167.22977703 247.15234375 189.03515625 C239.29294401 213.27029043 231.24803582 237.44335735 223.19067383 261.61328125 C221.28146481 267.34081474 219.37539052 273.06938202 217.47085828 278.79847157 C215.61000755 284.39561057 213.74587976 289.99165438 211.88047218 295.58727646 C211.09602372 297.94180109 210.31254704 300.29664972 209.53006554 302.65182877 C208.45214447 305.89529893 207.37049633 309.13750186 206.2878418 312.37939453 C205.96745438 313.3461763 205.64706696 314.31295807 205.31697083 315.30903625 C205.0245047 316.18224014 204.73203857 317.05544403 204.43070984 317.95510864 C204.17696437 318.71688982 203.9232189 319.478671 203.66178417 320.26353645 C203 322 203 322 202 323 C200.0056827 323.09405142 198.00800457 323.11743249 196.01147461 323.11352539 C194.73022202 323.11344986 193.44896942 323.11337433 192.12889099 323.11329651 C190.72004152 323.10818909 189.31119244 323.10297309 187.90234375 323.09765625 C186.46887766 323.09579202 185.03541093 323.09436814 183.60194397 323.09336853 C179.82240043 323.08954372 176.0428951 323.07971377 172.2633667 323.06866455 C168.40930702 323.05844963 164.55524118 323.05387074 160.70117188 323.04882812 C153.13409713 323.03809146 145.56705391 323.02101549 138 323 C134.39081043 314.60028023 131.71541216 305.94610516 129.0625 297.2109375 C128.58578386 295.65308105 128.10864071 294.09535521 127.63110352 292.53775024 C126.61408557 289.21808138 125.59951064 285.89768031 124.58691406 282.57666016 C122.15528196 274.6026526 119.71032065 266.63272792 117.26599121 258.66260529 C116.71221167 256.85675833 116.1585829 255.05086513 115.60510254 253.24492645 C110.46583568 236.4768411 105.25020446 219.73362867 100 203 C91.5013949 175.8992315 83.13155644 148.75958314 74.79829788 121.60754204 C73.57679908 117.62758303 72.35493711 113.64773563 71.1328125 109.66796875 C70.90200233 108.91628292 70.67119217 108.16459709 70.43338776 107.3901329 C67.00945147 96.24294832 63.54881475 85.10814748 60 74 C59.86028974 85.91159291 60.29393506 97.73328682 60.9375 109.625 C62.49483653 138.68380986 63.1502795 167.65953885 63.10139394 196.75433111 C63.09501369 201.21448444 63.09454529 205.67463895 63.09336853 210.13479614 C63.09029743 218.52738775 63.08214286 226.91996587 63.07201904 235.31255162 C63.06072436 244.88984678 63.05531429 254.46714269 63.05032361 264.04444289 C63.03995516 283.6963044 63.0216643 303.34814748 63 323 C42.21 323 21.42 323 0 323 C0 216.41 0 109.82 0 0 Z " fill="#DE208B" transform="translate(1627,879)"/>
<path d="M0 0 C184.85359712 0 184.85359712 0 215.9375 29.3125 C232.33922393 46.70169923 234.70432506 68.14380078 234.13183594 91.06103516 C233.29241984 109.77379626 225.87531028 126.60883013 212.4375 139.75 C208.6188491 142.8694613 204.36518402 145.12245473 200 147.375 C199.33540771 147.72143555 198.67081543 148.06787109 197.98608398 148.42480469 C193.28547875 150.72917023 189.21938032 151.59223591 184 152 C184 152.66 184 153.32 184 154 C185.051875 154.061875 186.10375 154.12375 187.1875 154.1875 C202.55686336 156.14261336 218.00519329 165.30654203 228 177 C239.27744759 192.22743908 242.39966528 210.08845209 242.375 228.625 C242.37478851 229.28441589 242.37457703 229.94383179 242.37435913 230.62322998 C242.34021882 241.30639612 241.45135398 250.89570708 238 261 C237.649375 262.06476563 237.29875 263.12953125 236.9375 264.2265625 C228.83493812 286.00219755 211.03497474 300.97790291 190.625 310.75 C133.84807644 336.70579692 50.19838478 323 0 323 C0 216.41 0 109.82 0 0 Z M70 57 C70 80.43 70 103.86 70 128 C77.239375 128.04125 84.47875 128.0825 91.9375 128.125 C94.18425537 128.14320801 96.43101074 128.16141602 98.74584961 128.18017578 C127.99801657 128.68379161 127.99801657 128.68379161 153.75390625 116.5078125 C161.05290071 108.86124687 162.60564648 99.39678385 162.47045898 89.21191406 C162.13865722 81.32299537 160.23510621 75.13050192 154.875 69.1875 C142.10234816 57.6867012 123.74378873 56.81972906 107.40234375 56.90234375 C106.44815552 56.90335083 105.49396729 56.90435791 104.51086426 56.90539551 C100.98639707 56.91058123 97.46194718 56.92454205 93.9375 56.9375 C86.038125 56.958125 78.13875 56.97875 70 57 Z M70 183 C70 210.39 70 237.78 70 266 C78.559375 266.061875 87.11875 266.12375 95.9375 266.1875 C99.93411743 266.22846802 99.93411743 266.22846802 104.01147461 266.27026367 C134.23799253 266.52597957 134.23799253 266.52597957 160.02734375 252.359375 C167.91404897 242.92656321 170.76717457 231.08299953 170 219 C168.79693569 209.63113671 165.75495632 200.6790297 158.203125 194.5390625 C144.29715934 184.5409777 128.38730368 182.65237252 111.69921875 182.8046875 C110.09705505 182.80770874 110.09705505 182.80770874 108.46252441 182.81079102 C104.53747151 182.82112047 100.61248065 182.84904098 96.6875 182.875 C87.880625 182.91625 79.07375 182.9575 70 183 Z " fill="#DE208B" transform="translate(2066,879)"/>
<path d="M0 0 C23.1 0 46.2 0 70 0 C70 41.58 70 83.16 70 126 C112.24 126 154.48 126 198 126 C198 84.42 198 42.84 198 0 C221.1 0 244.2 0 268 0 C268 106.59 268 213.18 268 323 C244.9 323 221.8 323 198 323 C198 277.13 198 231.26 198 184 C155.76 184 113.52 184 70 184 C70 229.87 70 275.74 70 323 C46.9 323 23.8 323 0 323 C0 216.41 0 109.82 0 0 Z " fill="#DE208B" transform="translate(2381,879)"/>
<path d="M0 0 C126.94748934 0 126.94748934 0 145.6875 3.75 C146.54504883 3.91991455 147.40259766 4.0898291 148.28613281 4.26489258 C173.08002367 9.42990544 197.74089542 20.33688556 212.09375 42.1875 C225.9837124 64.88667361 230.1929521 93.76477867 223.97265625 119.6875 C215.69426514 147.88057494 197.92780074 165.9356673 172.82421875 180.01367188 C170.90293693 181.05248057 168.95860426 182.03366876 167 183 C178.03871224 199.62290808 189.16052322 216.1859476 200.38493347 232.68397522 C203.2487109 236.89351094 206.10798576 241.10607813 208.96484375 245.3203125 C217.43849022 257.81930943 225.92793709 270.30697921 234.46728516 282.76123047 C236.06868844 285.1003302 237.66565907 287.44240752 239.26171875 289.78515625 C240.36182754 291.3985409 241.46208725 293.01182265 242.5625 294.625 C243.09238525 295.40230469 243.62227051 296.17960937 244.16821289 296.98046875 C246.90400346 300.98108684 249.6691728 304.95712883 252.484375 308.90234375 C253.04310303 309.68593262 253.60183105 310.46952148 254.17749023 311.27685547 C255.24553148 312.76991238 256.31778554 314.25996712 257.39477539 315.74658203 C261 320.78177088 261 320.78177088 261 323 C251.03913915 323.44213153 241.08064148 323.77871445 231.11193466 323.98443127 C226.48123301 324.08323118 221.85728188 324.21688151 217.23046875 324.43334961 C187.4617839 325.78969579 187.4617839 325.78969579 180.22851562 321.26715088 C175.9915969 316.96591483 173.79746447 312.01390919 171.85949707 306.36123657 C170.65391266 303.04921829 168.94319846 300.47969656 166.96875 297.5625 C165.81215282 295.70854988 164.65589797 293.85438615 163.5 292 C157.03565404 281.64394698 150.52948105 271.31507291 144 261 C142.06173251 257.93798476 140.12412445 254.8755547 138.1875 251.8125 C137.45732666 250.65778198 137.45732666 250.65778198 136.71240234 249.47973633 C133.24732898 243.99290308 129.80298362 238.49353311 126.38134766 232.97949219 C125.08781535 230.91360964 123.77756765 228.85809761 122.45068359 226.81347656 C119.03165309 221.51178815 116.11883754 216.51494284 114.13232422 210.50854492 C112.35749312 206.95660645 112.35749312 206.95660645 106 201 C88.18 200.505 88.18 200.505 70 200 C70 240.59 70 281.18 70 323 C46.9 323 23.8 323 0 323 C0 216.41 0 109.82 0 0 Z M70 57 C70 85.38 70 113.76 70 143 C109.97878546 144.86431852 109.97878546 144.86431852 144.97265625 128.15234375 C154.43830414 118.04359452 155.47781002 107.01229882 155.28125 93.7578125 C155.05319401 87.95834871 153.73816335 83.12504917 151 78 C150.649375 77.33871094 150.29875 76.67742187 149.9375 75.99609375 C143.89003789 66.27395848 131.84301041 62.08542473 121.296875 59.28125 C104.38754615 55.66541867 87.23187791 57 70 57 Z " fill="#DE208B" transform="translate(993,879)"/>
<path d="M0 0 C28.38 0 56.76 0 86 0 C96.31648442 27.51062513 96.31648442 27.51062513 99.3671875 36.29296875 C99.72436356 37.31309052 100.08153961 38.33321228 100.44953918 39.38424683 C101.20473263 41.54129338 101.9588855 43.69870451 102.71200562 45.85647583 C104.76346272 51.73221633 106.82478574 57.60449145 108.88671875 63.4765625 C109.30965714 64.68113602 109.73259552 65.88570953 110.16835022 67.12678528 C114.62064435 79.79144531 119.14771255 92.42898838 123.6875 105.0625 C125.27613373 109.48434193 126.8647088 113.90620492 128.453125 118.328125 C128.83851944 119.40091705 129.22391388 120.47370911 129.62098694 121.57901001 C133.41613528 132.14868865 137.1802164 142.72931285 140.9375 153.3125 C146.39743408 168.69021348 151.87685855 184.0608312 157.3699646 199.42672729 C166.05381114 223.71848146 174.69744769 248.02424483 183.31494141 272.33959961 C183.74729095 273.55920883 184.1796405 274.77881805 184.62509155 276.03538513 C185.47591985 278.43577165 186.32637115 280.83629183 187.17642212 283.23695374 C189.39235646 289.48972415 191.62195815 295.73727844 193.87011719 301.97851562 C194.3403367 303.28621457 194.81050147 304.5939332 195.28060913 305.90167236 C196.17449124 308.38826135 197.07241402 310.87326463 197.9725647 313.35760498 C198.37010956 314.46323792 198.76765442 315.56887085 199.17724609 316.70800781 C199.53015717 317.68441223 199.88306824 318.66081665 200.24667358 319.66680908 C201 322 201 322 201 324 C175.92 324 150.84 324 125 324 C117.41 299.25 109.82 274.5 102 249 C63.06 248.67 24.12 248.34 -16 248 C-16.66 250.97 -17.32 253.94 -18 257 C-18.65349506 259.32723206 -19.33521747 261.64675229 -20.04711914 263.95678711 C-20.24087631 264.58887085 -20.43463348 265.22095459 -20.63426208 265.87219238 C-21.26448308 267.92497687 -21.89968542 269.97617898 -22.53515625 272.02734375 C-22.97856406 273.46692629 -23.42171046 274.90658937 -23.86460876 276.34632874 C-24.78785188 279.34492513 -25.71343187 282.34278612 -26.64086914 285.34008789 C-27.83039169 289.18467227 -29.0152112 293.030686 -30.19846439 296.87720394 C-31.11066931 299.84153064 -32.02470144 302.80529123 -32.93935966 305.76886177 C-33.37716167 307.18773998 -33.8145379 308.60674963 -34.25148201 310.02589226 C-34.8599789 312.00080462 -35.47078106 313.97498861 -36.08227539 315.94897461 C-36.42932022 317.07210556 -36.77636505 318.19523651 -37.13392639 319.35240173 C-38 322 -38 322 -39 324 C-63.75 324 -88.5 324 -114 324 C-111.74997631 313.87489338 -111.74997631 313.87489338 -110.28271484 309.73535156 C-109.95348526 308.79838943 -109.62425568 307.86142731 -109.28504944 306.89607239 C-108.75336403 305.40837593 -108.75336403 305.40837593 -108.2109375 303.890625 C-107.83565414 302.82740524 -107.46037079 301.76418549 -107.07371521 300.66874695 C-105.84582431 297.19403348 -104.61049799 293.72201512 -103.375 290.25 C-102.51218202 287.81338532 -101.64980136 285.37661575 -100.7878418 282.93969727 C-98.60780382 276.78062738 -96.42149626 270.62380626 -94.23272705 264.46783447 C-92.7393379 260.26672086 -91.24844128 256.06472567 -89.75765991 251.86268616 C-86.15445144 241.70751264 -82.54145734 231.55583944 -78.92529297 221.40527344 C-75.7382897 212.4589532 -72.55667065 203.5107178 -69.375 194.5625 C-69.05240204 193.65530212 -68.72980408 192.74810425 -68.39743042 191.81341553 C-62.8493992 176.21089315 -57.30931211 160.60555464 -51.7718811 144.99926758 C-50.60526658 141.71138318 -49.43850133 138.4235523 -48.27169895 135.13573456 C-43.513598 121.72812823 -38.75818018 108.31958112 -34.00977707 94.90853691 C-31.90327544 88.95953054 -29.79572104 83.01089724 -27.6875 77.0625 C-27.4599855 76.42055065 -27.23247101 75.7786013 -26.99806213 75.11719894 C-18.10849527 50.03791195 -9.08040624 25.01094349 0 0 Z M43 53 C42.71623001 53.96620018 42.71623001 53.96620018 42.42672729 54.95191956 C39.91738362 63.49111534 37.39899217 72.02762446 34.875 80.5625 C34.56474695 81.61177107 34.56474695 81.61177107 34.24822617 82.68223953 C26.2502345 109.72034754 17.97736567 136.669214 9.58407879 163.58700562 C8.87906384 165.84804823 8.17444855 168.10921511 7.46986389 170.37039185 C6.60480537 173.1463714 5.73758221 175.92166105 4.86888123 178.69650269 C4.29920372 180.52207199 4.29920372 180.52207199 3.71801758 182.38452148 C3.38449783 183.45057114 3.05097809 184.51662079 2.70735168 185.61497498 C1.95261021 187.74516933 1.95261021 187.74516933 2 189 C29.39 189 56.78 189 85 189 C82.57541367 179.22714432 82.57541367 179.22714432 79.75439453 169.61889648 C79.55027104 168.97341386 79.34614756 168.32793123 79.13583851 167.66288853 C78.47146808 165.56455876 77.80211768 163.46785408 77.1328125 161.37109375 C76.65599561 159.8674712 76.17956974 158.3637246 75.70350647 156.85986328 C74.69875021 153.68749484 73.6921208 150.51573031 72.68392944 147.3444519 C70.06934705 139.118312 67.46963986 130.88746715 64.87109375 122.65625 C64.61498384 121.84523771 64.35887394 121.03422543 64.09500313 120.19863701 C59.7086052 106.30345564 55.39469672 92.38815513 51.1875 78.4375 C50.92559875 77.57148163 50.66369751 76.70546326 50.39385986 75.8132019 C49.66996139 73.41665354 48.94927961 71.01917244 48.23046875 68.62109375 C47.92895653 67.61985474 47.92895653 67.61985474 47.62135315 66.59838867 C46.28049048 62.09348923 45.11485007 57.56471803 44 53 C43.67 53 43.34 53 43 53 Z " fill="#DE208B" transform="translate(743,878)"/>
<path d="M0 0 C28.38 0 56.76 0 86 0 C103.31273697 48.26581215 120.592691 96.54281663 137.72958374 144.87136841 C144.82266736 164.87479718 151.9390891 184.86969726 159.08720398 204.85353088 C161.62610509 211.9521132 164.1610721 219.05209636 166.6953125 226.15234375 C167.53010458 228.49088759 168.36490283 230.82942923 169.19970703 233.16796875 C170.4707069 236.72844899 171.74160246 240.28896627 173.012146 243.84960938 C177.5979935 256.70072717 182.19282051 269.5484971 186.81621552 282.38615227 C187.93448441 285.49180489 189.05160739 288.59786976 190.16894531 291.70385742 C191.86277722 296.41229833 193.56068478 301.11924334 195.26074219 305.82543945 C196.022949 307.94346365 196.78500204 310.06154319 197.546875 312.1796875 C197.8989502 313.15079971 198.25102539 314.12191193 198.61376953 315.12245178 C198.93039551 316.00485031 199.24702148 316.88724884 199.57324219 317.79638672 C199.98905548 318.94867264 199.98905548 318.94867264 200.41326904 320.12423706 C201 322 201 322 201 324 C175.92 324 150.84 324 125 324 C117.41 299.25 109.82 274.5 102 249 C63.06 248.67 24.12 248.34 -16 248 C-16.99 251.96 -17.98 255.92 -19 260 C-19.66713716 262.34716336 -20.35321199 264.68913888 -21.06884766 267.02197266 C-21.44578766 268.25589752 -21.82272766 269.48982239 -22.21109009 270.76113892 C-22.61196127 272.06215031 -23.01295485 273.36312399 -23.4140625 274.6640625 C-23.83358405 276.03210819 -24.25288112 277.40022274 -24.67196655 278.7684021 C-25.54239937 281.60775515 -26.4149017 284.4464605 -27.2890625 287.28466797 C-28.4099092 290.92410864 -29.52636585 294.56487816 -30.64142799 298.20609474 C-31.50304495 301.01856834 -32.36646077 303.83048699 -33.23048019 306.64222336 C-33.64318912 307.98573461 -34.05544648 309.32938467 -34.46724319 310.67317581 C-35.03971197 312.53998327 -35.61476278 314.40599835 -36.18994141 316.27197266 C-36.51620514 317.33276031 -36.84246887 318.39354797 -37.17861938 319.48648071 C-38 322 -38 322 -39 324 C-64.08 324 -89.16 324 -115 324 C-104.74381327 293.23143982 -104.74381327 293.23143982 -100.17111206 280.56628418 C-98.57316511 276.13917316 -96.98692275 271.70785646 -95.3984375 267.27734375 C-95.05274216 266.31398102 -94.70704681 265.35061829 -94.35087585 264.35806274 C-89.91557139 251.99092148 -85.52790243 239.60684039 -81.1373558 227.2237587 C-79.96135073 223.90714658 -78.78497354 220.59066646 -77.60864258 217.27416992 C-75.93340502 212.55094615 -74.2583177 207.82766913 -72.58338642 203.10433674 C-69.54750177 194.54315222 -66.51041548 185.98239453 -63.47265625 177.421875 C-63.13337947 176.46577615 -63.13337947 176.46577615 -62.78724861 175.49036217 C-61.64695124 172.27696479 -60.50663312 169.06357478 -59.36630249 165.85018921 C-57.0852484 159.42229672 -54.80433934 152.99435276 -52.5234375 146.56640625 C-52.29725172 145.9289831 -52.07106594 145.29155994 -51.83802605 144.63482094 C-49.27623508 137.41531759 -46.71460889 130.19575582 -44.15332031 122.97607422 C-43.79897462 121.97725597 -43.79897462 121.97725597 -43.43747044 120.95825958 C-42.48334986 118.26880417 -41.52923304 115.57934742 -40.57513237 112.88988495 C-38.00287616 105.63911968 -35.43030625 98.38846606 -32.85668945 91.13818359 C-32.63145505 90.50365265 -32.40622065 89.8691217 -32.17416096 89.21536255 C-31.05823082 86.07156663 -29.94228363 82.92777678 -28.8263092 79.78399658 C-26.37840211 72.88708705 -23.93315233 65.98924542 -21.49102783 59.09028625 C-20.05592177 55.03698392 -18.61915 50.98427323 -17.18206787 46.93167114 C-16.53939435 45.11804607 -15.89745629 43.30416013 -15.25640869 41.48995972 C-10.34433426 27.58958162 -5.17828345 13.80875586 0 0 Z M43 54 C40.58267873 61.11605954 38.37451172 68.28127675 36.21875 75.48046875 C35.65639885 77.35129123 35.09404423 79.22211267 34.53155804 81.09289455 C33.93269162 83.08530057 33.33439448 85.07787678 32.73623657 87.07049561 C30.62376722 94.10680597 28.50646952 101.14166129 26.38671875 108.17578125 C26.05912095 109.26291412 26.05912095 109.26291412 25.72490501 110.37200928 C22.3513219 121.56267448 18.94694435 132.74367744 15.51953125 143.91796875 C15.18827303 144.99801587 15.18827303 144.99801587 14.85032272 146.09988213 C12.70677414 153.0871544 10.55973917 160.07334957 8.40892506 167.05838871 C7.80918936 169.00663344 7.20999957 170.95504514 6.61100769 172.90351868 C5.87910919 175.28369332 5.14602261 177.66350305 4.41157532 180.04289246 C4.09182236 181.08302994 3.7720694 182.12316742 3.44262695 183.19482422 C3.16240189 184.10400604 2.88217682 185.01318787 2.59346008 185.94992065 C1.95365583 187.80438549 1.95365583 187.80438549 2 189 C29.39 189 56.78 189 85 189 C82.64679111 180.30981429 82.64679111 180.30981429 80.07739258 171.70141602 C79.7282933 170.58694595 79.37919403 169.47247589 79.01951599 168.32423401 C78.64827103 167.14602585 78.27702606 165.96781769 77.89453125 164.75390625 C77.49357044 163.47584987 77.09282456 162.19772605 76.692276 160.91954041 C75.84182152 158.20662105 74.99028693 155.4940443 74.13787842 152.78173828 C71.88687317 145.61803717 69.64483434 138.45152631 67.40234375 131.28515625 C67.062458 130.19923376 67.062458 130.19923376 66.71570587 129.09137344 C62.41828691 115.35974148 58.1499124 101.61935619 53.91317749 87.86886597 C53.2255223 85.63743813 52.53707646 83.40625378 51.84780884 81.17532349 C50.89370292 78.08631468 49.94246991 74.99643688 48.9921875 71.90625 C48.71601089 71.01324692 48.43983429 70.12024384 48.1552887 69.20018005 C46.61141228 64.1640311 45.23161816 59.12175624 44 54 C43.67 54 43.34 54 43 54 Z " fill="#DE208B" transform="translate(1377,878)"/>
<path d="M0 0 C28.38 0 56.76 0 86 0 C91.62458845 13.49901228 91.62458845 13.49901228 93.44091797 18.66259766 C93.85319138 19.82912369 94.26546478 20.99564972 94.69023132 22.19752502 C95.11987686 23.42398239 95.5495224 24.65043976 95.9921875 25.9140625 C96.45909997 27.23875406 96.92633761 28.56333104 97.39387512 29.88780212 C98.38039259 32.68431477 99.36490792 35.48152016 100.3477478 38.27932739 C101.8972733 42.69000744 103.45165653 47.09896531 105.00708008 51.50756836 C105.53010615 52.99009685 106.05313166 54.47262554 106.57615662 55.95515442 C106.83398863 56.6859553 107.09182064 57.41675617 107.35746574 58.16970253 C108.13508234 60.37426699 108.91227313 62.57898113 109.68934631 64.78373718 C113.66174464 76.05300402 117.66150735 87.31226034 121.6875 98.5625 C122.2725552 100.19840034 122.85759742 101.83430532 123.44262695 103.47021484 C124.64395173 106.82876255 125.8457576 110.18713768 127.04785156 113.54541016 C130.88970096 124.27897439 134.72659517 135.01431012 138.5625 145.75 C138.98057922 146.91996521 139.39865845 148.08993042 139.82940674 149.29534912 C146.83453969 168.90187193 153.8013894 188.52177882 160.7566452 208.14603043 C167.53001496 227.25648957 174.33863438 246.35393345 181.1875 265.4375 C181.97449432 267.63157469 182.76144184 269.82566616 183.54833984 272.01977539 C187.71113916 283.6274483 187.71113916 283.6274483 191.8828125 295.23193359 C193.24874621 299.02653256 194.61066869 302.82254195 195.96890259 306.61990356 C196.44046113 307.93568948 196.91369302 309.25087715 197.38876343 310.56539917 C198.0173743 312.30507524 198.63975971 314.04699722 199.26171875 315.7890625 C199.60162842 316.73475098 199.94153809 317.68043945 200.29174805 318.65478516 C201 321 201 321 201 324 C176.25 324 151.5 324 126 324 C124.13857998 319.03621327 122.38217758 314.21527315 120.82348633 309.17260742 C120.62797684 308.542276 120.43246735 307.91194458 120.23103333 307.26251221 C119.59550255 305.2109367 118.96355844 303.15827989 118.33203125 301.10546875 C117.88800557 299.66674522 117.44388678 298.22805042 116.99967957 296.78938293 C116.07433868 293.79020407 115.15093304 290.79043746 114.22875977 287.7902832 C113.04631133 283.94433567 111.8577412 280.10031 110.66759205 276.25673962 C109.75106693 273.29371237 108.83839279 270.32950956 107.92682457 267.36495399 C107.4899803 265.94635196 107.05178768 264.52816441 106.61222267 263.11040306 C106.00024248 261.13495094 105.39361478 259.15793212 104.78833008 257.18041992 C104.44208084 256.05649338 104.0958316 254.93256683 103.73908997 253.77458191 C103 251 103 251 103 248 C63.73 248 24.46 248 -16 248 C-16.33 250.31 -16.66 252.62 -17 255 C-17.62739651 257.3535778 -18.30577753 259.69395681 -19.02539062 262.02099609 C-19.22875534 262.68365479 -19.43212006 263.34631348 -19.64164734 264.02905273 C-20.30800157 266.19548488 -20.98191936 268.35947614 -21.65625 270.5234375 C-22.12362296 272.03549888 -22.59061746 273.5476773 -23.05725098 275.05996704 C-24.03241285 278.21630855 -25.01116103 281.37150729 -25.99267578 284.52587891 C-27.25280785 288.57620849 -28.50537945 292.62882762 -29.75550079 296.6822567 C-30.7172684 299.7987128 -31.68222208 302.91417471 -32.64823914 306.02931595 C-33.11155945 307.52425609 -33.57405475 309.01945219 -34.03572083 310.51490402 C-34.67888522 312.59604845 -35.32613957 314.67587468 -35.97460938 316.75537109 C-36.3424353 317.94004974 -36.71026123 319.12472839 -37.0892334 320.3453064 C-38 323 -38 323 -39 324 C-41.34253782 324.09492722 -43.65546104 324.12559791 -45.99829102 324.11352539 C-47.09578674 324.11374443 -47.09578674 324.11374443 -48.2154541 324.1139679 C-50.64496784 324.11326867 -53.07440583 324.10547585 -55.50390625 324.09765625 C-57.18399514 324.0957921 -58.86408457 324.09436819 -60.54417419 324.09336853 C-64.97473643 324.08954307 -69.4052661 324.07971256 -73.83581543 324.06866455 C-78.35342976 324.05845103 -82.87104934 324.05387104 -87.38867188 324.04882812 C-96.25912893 324.03809031 -105.12956176 324.02101356 -114 324 C-113.14051503 319.39986444 -111.73687371 315.09312656 -110.18359375 310.6875 C-109.89613281 309.86404587 -109.60867188 309.04059174 -109.3125 308.19218445 C-108.35760524 305.46023903 -107.39768605 302.7300898 -106.4375 300 C-105.75578626 298.05449749 -105.07422997 296.1089398 -104.39282227 294.16333008 C-98.10525922 276.22973195 -91.73533361 258.32544747 -85.35585022 240.4243927 C-80.91661187 227.96453597 -76.49576309 215.49814989 -72.07372665 203.03218079 C-70.90579681 199.73983611 -69.73768172 196.44755716 -68.56958008 193.15527344 C-65.71287614 185.1035785 -62.85642152 177.05179513 -60 169 C-56.20852287 158.31243275 -52.41693042 147.62490643 -48.625 136.9375 C-48.39338921 136.28470692 -48.16177841 135.63191383 -47.92314911 134.95933914 C-41.64740608 117.2713499 -35.36623863 99.58530177 -29.07598877 81.90246582 C-19.36685227 54.60773032 -9.68617018 27.30289219 0 0 Z M43 53 C42.72027344 53.99999023 42.44054687 54.99998047 42.15234375 56.03027344 C36.04017179 77.83415889 29.68493803 99.55200991 23 121.1875 C22.66323242 122.27767426 22.32646484 123.36784851 21.97949219 124.49105835 C19.34426162 133.01552709 16.69816077 141.53660841 14.04980469 150.05700684 C12.29490799 155.70322617 10.54263776 161.35024132 8.79492188 166.99868774 C8.01781894 169.50502969 7.23565396 172.00975214 6.453125 174.5144043 C5.98934695 176.01083171 5.52579099 177.50732797 5.0625 179.00390625 C4.85085205 179.67626312 4.6392041 180.34862 4.42114258 181.04135132 C3.56523497 183.82209458 3 186.06881452 3 189 C30.06 189 57.12 189 85 189 C83.77343525 182.86717627 82.6460369 177.42514884 80.77612305 171.57055664 C80.56239485 170.89611669 80.34866665 170.22167673 80.12846184 169.5267992 C79.42778197 167.31965751 78.71972818 165.11495646 78.01171875 162.91015625 C77.51085205 161.33628094 77.01053383 159.76223099 76.51072693 158.1880188 C75.4538568 154.86195842 74.39407281 151.53684807 73.33184814 148.2124939 C70.58429945 139.61201462 67.85687576 131.00514278 65.12890625 122.3984375 C64.86051689 121.55220259 64.59212753 120.70596767 64.31560516 119.83408928 C59.81778452 105.64868848 55.40642021 91.43995756 51.125 77.1875 C50.86496185 76.32271027 50.60492371 75.45792053 50.33700562 74.56692505 C48.18154892 67.39004323 46.04825808 60.20831516 44 53 C43.67 53 43.34 53 43 53 Z " fill="#DE208B" transform="translate(419,878)"/>
</svg>
