<svg width="52" height="52" viewBox="0 0 52 52" fill="none" xmlns="http://www.w3.org/2000/svg">
<path d="M9.75009 35.7497V36.1559C9.75009 37.726 11.0237 38.9997 12.5939 38.9997H23.1561C24.7262 38.9997 25.9999 37.7261 25.9999 36.1559V35.7497C26.0669 32.8653 24.1758 30.3016 21.4011 29.5138C23.0302 28.0533 23.5887 25.7377 22.8067 23.6945C22.0247 21.651 20.0625 20.3003 17.8748 20.3003C15.6871 20.3003 13.725 21.6511 12.9429 23.6945C12.1609 25.7379 12.7195 28.0535 14.3486 29.5138C11.5739 30.3019 9.68275 32.8654 9.74977 35.7497H9.75009ZM17.8751 21.9374C19.3539 21.9374 20.6863 22.8291 21.2531 24.1941C21.8198 25.5611 21.507 27.1333 20.4609 28.1794C19.4148 29.2255 17.8426 29.5384 16.4756 28.9716C15.1106 28.4049 14.2189 27.0724 14.2189 25.5936C14.2189 23.5746 15.856 21.9374 17.8751 21.9374ZM16.2501 30.8752H19.5001C20.8021 30.8467 22.0595 31.3505 22.9796 32.2706C23.8998 33.1908 24.4035 34.4481 24.3751 35.7502V36.1564C24.3751 36.8288 23.8287 37.3752 23.1563 37.3752H12.5941C11.9217 37.3752 11.3753 36.8288 11.3753 36.1564V35.7502C11.3469 34.4481 11.8506 33.1908 12.7708 32.2706C13.6909 31.3505 14.9483 30.8467 16.2503 30.8752H16.2501Z" fill="white"/>
<path d="M43.0623 30.0619C42.6134 30.0619 42.2498 30.4255 42.2498 30.8744V41.0305C42.2498 41.7029 41.7034 42.2493 41.031 42.2493H7.71878C7.04642 42.2493 6.5 41.7029 6.5 41.0305V17.4683C6.5 16.7959 7.04642 16.2495 7.71878 16.2495H25.5938C26.0427 16.2495 26.4063 15.8859 26.4063 15.437C26.4063 14.9881 26.0427 14.6245 25.5938 14.6245H7.71878C6.14864 14.6245 4.875 15.8981 4.875 17.4683V41.0305C4.875 42.6007 6.14858 43.8743 7.71878 43.8743H41.031C42.6012 43.8743 43.8748 42.6007 43.8748 41.0305V30.8744C43.8748 30.6591 43.7895 30.4519 43.6371 30.2995C43.4848 30.1472 43.2776 30.0619 43.0623 30.0619L43.0623 30.0619Z" fill="white"/>
<path d="M48.0508 10.3467C48.0102 9.95877 47.6994 9.65612 47.3114 9.62362C45.7616 9.42253 44.2483 9.00207 42.8183 8.3724C41.3416 7.75693 39.9644 6.92409 38.7355 5.89834C38.4247 5.61396 37.9494 5.61396 37.6386 5.89834C36.4097 6.92415 35.0325 7.75693 33.5558 8.3724C32.1339 9.00004 30.6287 9.42051 29.087 9.62362C28.697 9.65409 28.3862 9.95878 28.3435 10.3467C28.307 10.692 27.4945 18.8051 29.5014 22.8106C31.9023 27.5962 37.6264 30.2815 37.8661 30.3953C38.0834 30.4949 38.3313 30.4949 38.5486 30.3953C38.7883 30.2816 44.5125 27.5963 46.9133 22.8106C48.8999 18.805 48.0874 10.692 48.0508 10.3467ZM45.4386 22.0831C43.6146 25.7272 39.4056 28.112 38.1873 28.7495C36.9685 28.1117 32.7595 25.727 30.9358 22.0831C29.4409 19.0931 29.7415 13.109 29.8877 11.1512C31.3685 10.8932 32.8127 10.4626 34.194 9.8674C35.6159 9.26617 36.9585 8.4882 38.1874 7.55179C39.4163 8.4882 40.759 9.26617 42.1809 9.8674C43.5621 10.4625 45.0063 10.8932 46.4871 11.1512C46.6374 13.1093 46.938 19.0931 45.439 22.0831H45.4386Z" fill="white"/>
<path d="M38.8756 20.4158C38.7262 20.5652 38.5396 20.6398 38.3156 20.6398C38.0916 20.6398 37.8996 20.5652 37.7396 20.4158C37.5902 20.2558 37.5102 20.0638 37.4996 19.8398L37.3076 13.2318C37.2969 12.9865 37.3769 12.7732 37.5476 12.5918C37.7289 12.4105 37.9422 12.3198 38.1876 12.3198H38.4436C38.6889 12.3198 38.8969 12.4105 39.0676 12.5918C39.2489 12.7732 39.3342 12.9865 39.3236 13.2318L39.1316 19.8398C39.1209 20.0638 39.0356 20.2558 38.8756 20.4158ZM38.3636 21.9198C38.6089 21.9198 38.8222 22.0105 39.0036 22.1918C39.1849 22.3732 39.2756 22.5865 39.2756 22.8318V23.0878C39.2756 23.3332 39.1849 23.5465 39.0036 23.7278C38.8222 23.9092 38.6089 23.9998 38.3636 23.9998H38.2676C38.0222 23.9998 37.8089 23.9092 37.6276 23.7278C37.4462 23.5465 37.3556 23.3332 37.3556 23.0878V22.8318C37.3556 22.5865 37.4462 22.3732 37.6276 22.1918C37.8089 22.0105 38.0222 21.9198 38.2676 21.9198H38.3636Z" fill="white"/>
<path d="M30.0625 39H38.1875C38.6364 39 39 38.6364 39 38.1875C39 37.7386 38.6364 37.375 38.1875 37.375H30.0625C29.6136 37.375 29.25 37.7386 29.25 38.1875C29.25 38.6364 29.6136 39 30.0625 39Z" fill="white"/>
<path d="M30.0625 34.125H34.9375C35.3864 34.125 35.75 33.7614 35.75 33.3125C35.75 32.8636 35.3864 32.5 34.9375 32.5H30.0625C29.6136 32.5 29.25 32.8636 29.25 33.3125C29.25 33.7614 29.6136 34.125 30.0625 34.125Z" fill="white"/>
</svg>
