<svg width="40" height="40" viewBox="0 0 40 40" fill="none" xmlns="http://www.w3.org/2000/svg">
<circle cx="20" cy="20" r="19.5" fill="black" fill-opacity="0.8" stroke="white"/>
<path d="M28.625 20.0007C28.625 19.5366 28.3922 19.1093 28.0024 18.8561L17.4758 12.0475C17.05 11.7725 16.5305 11.7522 16.0852 11.9952C15.6406 12.2374 15.375 12.685 15.375 13.1913V26.8085C15.375 27.3155 15.6406 27.7624 16.0859 28.0054C16.2938 28.1179 16.5156 28.1733 16.7383 28.1733C16.9937 28.1733 17.2484 28.0991 17.4758 27.9522L28.0024 21.1436C28.3922 20.8921 28.625 20.4647 28.625 20.0007V20.0007ZM27.6227 20.5546L17.0961 27.3632C16.8891 27.4968 16.6375 27.5054 16.4219 27.389C16.2063 27.2718 16.0766 27.0546 16.0766 26.8093V13.1913C16.0766 12.9452 16.2055 12.728 16.4219 12.6116C16.5227 12.5577 16.6313 12.5296 16.7383 12.5296C16.8625 12.5296 16.9859 12.5655 17.0961 12.6374L27.6227 19.4468C27.8141 19.571 27.9243 19.7733 27.9243 20.0015C27.9243 20.2288 27.8141 20.4304 27.6227 20.5546V20.5546Z" fill="white" stroke="white"/>
</svg>
