<svg width="259" height="230" viewBox="0 0 259 230" fill="none" xmlns="http://www.w3.org/2000/svg">
<mask id="mask0_4362_20640" style="mask-type:alpha" maskUnits="userSpaceOnUse" x="0" y="0" width="259" height="218">
<path d="M0.5 8.5376C0.5 4.39546 3.85786 1.0376 8 1.0376H251C255.142 1.0376 258.5 4.39546 258.5 8.5376V209.538C258.5 213.68 255.142 217.038 251 217.038H8C3.85786 217.038 0.5 213.68 0.5 209.538V8.5376Z" fill="white" stroke="#DBDBDB"/>
</mask>
<g mask="url(#mask0_4362_20640)">
<path d="M144.823 60.6074C144.823 63.0034 145.73 65.3109 147.363 67.0677C148.996 68.8245 151.233 69.9008 153.628 70.081H207.527C210.365 70.0235 213.074 68.8918 215.106 66.9154C217.139 64.9389 218.342 62.2654 218.473 59.4366C218.603 56.6077 217.651 53.8351 215.81 51.6805C213.968 49.5258 211.375 48.1503 208.555 47.8326C208.418 43.4687 206.763 39.2884 203.874 36.0091C200.986 32.7298 197.044 30.5558 192.724 29.8603C188.405 29.1647 183.977 29.9909 180.202 32.1971C176.426 34.4033 173.538 37.8519 172.032 41.9513C170.48 41.1684 168.765 40.7627 167.026 40.7671C164.179 40.7667 161.439 41.8499 159.364 43.7958C157.29 45.7418 156.037 48.4039 155.862 51.2396C155.351 51.1537 154.835 51.1117 154.317 51.1139C151.797 51.1192 149.383 52.1217 147.603 53.9015C145.823 55.6813 144.823 58.093 144.823 60.6074Z" fill="#BE2BBB"/>
<path d="M187.551 56.2876H175.982V70.1077H187.551V56.2876Z" fill="white"/>
<path d="M172.363 58.3117H191.172L181.764 47.29L172.363 58.3117Z" fill="white"/>
<path d="M208.171 74.3281H156.678V77.9337H208.171V74.3281Z" fill="#DBDBDB"/>
<path d="M195.124 74.3281H156.678V77.9337H195.124V74.3281Z" fill="#BE2BBB"/>
<path d="M103.991 213.185L105.702 223.445L117.317 286.036H119.193L110.747 223.445L109.501 213.185H103.991Z" fill="#C7C7C7"/>
<path d="M109.501 213.185H103.991L105.702 223.445H110.747L109.501 213.185Z" fill="#A6A6A6"/>
<path d="M67.5146 286.036H69.3909L81.0062 223.445L82.7167 213.185H77.2073L75.961 223.445L67.5146 286.036Z" fill="#C7C7C7"/>
<path d="M77.2073 213.185L75.9609 223.445H81.0062L82.7167 213.185H77.2073Z" fill="#A6A6A6"/>
<path d="M32.6816 286.036H34.5512L46.1665 223.445L47.8836 213.185H42.3743L41.1279 223.445L32.6816 286.036Z" fill="#C7C7C7"/>
<path d="M41.127 223.445H46.1656L47.8827 213.185H42.3733L41.127 223.445Z" fill="#A6A6A6"/>
<path d="M35.6455 218.007H120.758V209.056H88.8956L78.1886 158.44H38.8941L35.6455 218.007Z" fill="#C7C7C7"/>
<path d="M40.6044 209.056H120.758V218.007H40.2861L40.6044 209.056Z" fill="#DBDBDB"/>
<path d="M35.6455 218.007H40.2863L43.3095 158.44H38.8941L35.6455 218.007Z" fill="#DBDBDB"/>
<path d="M120.936 275.98L89.7766 266.659C89.7766 266.659 115.454 213.264 114.645 210.545C114.108 208.732 75.6088 208.606 64.325 198.498C52.65 188.032 61.7394 167.477 61.7394 167.477L94.1058 167.312C94.1058 167.312 93.5489 174.053 94.7688 175.105C95.5843 175.799 139.851 179.689 148.311 195.924C156.028 210.657 120.936 275.98 120.936 275.98Z" fill="#183C4F"/>
<path d="M114.651 210.545C114.797 211.001 114.167 212.92 113.027 215.791L136.291 244.311C144.591 225.443 152.388 203.678 148.337 195.924C139.857 179.689 95.6105 175.799 94.7884 175.105C93.5619 174.059 94.1255 167.312 94.1255 167.312L73.5732 167.417L107.716 209.268C111.827 209.718 114.512 210.075 114.651 210.545Z" fill="#263238"/>
<path d="M63.4829 173.629C63.5823 172.551 63.7083 171.479 63.8276 170.401C63.8276 170.275 64.0398 170.282 64.0265 170.401C63.5956 174.767 63.1514 179.239 63.9536 183.593C64.6928 187.61 66.722 191.279 69.7347 194.045C76.1589 199.999 85.1356 201.779 93.5024 203.201C98.2957 204.015 103.115 204.637 107.955 205.113C110.324 205.343 112.695 205.532 115.069 205.682C117.429 205.828 119.789 205.848 122.143 205.98C122.885 206.02 123.548 206.364 123.429 207.21C123.31 207.728 123.12 208.226 122.866 208.692L122.11 210.406C121.159 212.536 120.209 214.666 119.259 216.796C117.292 221.18 115.303 225.553 113.292 229.915C109.266 238.573 105.091 247.16 100.769 255.677C100.238 256.729 99.6945 257.787 99.1575 258.846C99.1575 258.912 99.0249 258.846 99.0581 258.779C103.182 250.157 107.259 241.51 111.29 232.839C113.279 228.539 115.268 224.239 117.257 219.919C118.247 217.762 119.228 215.603 120.2 213.442C120.691 212.366 121.177 211.283 121.659 210.194C121.904 209.658 122.143 209.116 122.388 208.573C122.633 208.031 123.323 207.045 122.812 206.589C122.474 206.311 121.778 206.403 121.374 206.397L119.491 206.331C118.304 206.291 117.118 206.245 115.924 206.185C113.52 206.066 111.115 205.903 108.711 205.695C104.004 205.285 99.3166 204.69 94.6559 203.942C86.3422 202.619 77.2993 201.104 70.643 195.534C67.6717 193.12 65.4579 189.905 64.2652 186.272C62.9724 182.203 63.0983 177.837 63.4829 173.629Z" fill="#455A64"/>
<path d="M177.303 247.903L146.236 263.391C146.236 263.391 121.998 214.223 119.339 211.041C115.792 206.813 69.6163 212.781 58.7236 199.133C47.4531 185.021 57.1126 167.497 57.1126 167.497H92.2503C92.2503 167.497 92.3563 171.387 90.3276 177.076C90.3276 177.076 130.524 174.688 141.9 185.723C150.645 194.178 177.303 247.903 177.303 247.903Z" fill="#183C4F"/>
<path d="M83.9166 180.602C85.7153 179.364 87.581 178.227 89.5054 177.195C90.8573 176.485 92.2764 175.911 93.7418 175.481C94.7695 175.237 95.2136 175.164 94.2523 175.614L91.6667 176.838C91.8524 176.838 92.038 176.838 92.217 176.838C92.88 176.838 93.596 176.778 94.2855 176.765C95.6114 176.725 96.9904 176.765 98.3429 176.732C101.088 176.732 103.799 176.97 106.537 177.109C106.549 177.113 106.559 177.121 106.566 177.131C106.573 177.141 106.577 177.153 106.577 177.165C106.577 177.177 106.573 177.19 106.566 177.2C106.559 177.21 106.549 177.217 106.537 177.221C103.806 177.135 101.061 177.274 98.3296 177.268C97.0037 177.268 95.6247 177.301 94.2722 177.327L92.2833 177.36C91.7246 177.39 91.1647 177.39 90.606 177.36L89.8502 177.718C87.8612 178.65 85.8723 179.629 83.9696 180.708C83.9166 180.714 83.8768 180.642 83.9166 180.602Z" fill="#455A64"/>
<path d="M93.0924 166.167C92.7344 167.827 92.4294 169.475 92.0117 171.135C91.8261 171.889 91.6338 172.65 91.3487 173.384C91.1366 174.006 90.7985 174.708 90.0891 174.873C89.2803 175.058 89.0217 174.37 89.0681 173.695C89.1145 173.021 89.2869 172.18 89.4062 171.439C89.5521 170.579 89.6979 169.719 89.8239 168.859C89.8836 168.429 89.9499 167.999 90.0095 167.536C90.0095 167.43 90.0758 166.61 90.1289 166.372C90.1289 166.372 90.1289 166.411 90.1753 166.405C90.1871 166.403 90.1981 166.398 90.2065 166.39C90.2149 166.381 90.2203 166.37 90.2217 166.359C90.2292 166.336 90.2287 166.312 90.2202 166.291C90.2118 166.269 90.1958 166.251 90.1753 166.239C90.1753 166.239 90.1289 166.239 90.1023 166.239C89.9499 166.325 89.9432 166.544 89.9035 166.703C89.7841 167.119 89.6582 167.543 89.5521 167.96C89.3532 168.753 89.1543 169.547 88.9819 170.341C88.8095 171.135 88.6438 171.942 88.4781 172.736C88.2931 173.329 88.2589 173.959 88.3786 174.569C88.4624 174.856 88.6366 175.109 88.8753 175.29C89.114 175.471 89.4047 175.57 89.7046 175.574C89.7046 175.627 89.6449 175.68 89.625 175.733C89.5587 175.898 89.5123 176.07 89.4526 176.242C89.393 176.414 89.3466 176.586 89.3001 176.758C89.2937 176.844 89.2937 176.931 89.3001 177.016C89.3001 177.109 89.3001 177.202 89.3001 177.301C89.2929 177.333 89.2981 177.367 89.3147 177.396C89.3313 177.424 89.358 177.446 89.3896 177.456C89.4213 177.466 89.4555 177.464 89.4856 177.45C89.5157 177.436 89.5394 177.411 89.5521 177.38C89.5985 177.294 89.6582 177.228 89.7046 177.149C89.7507 177.058 89.7863 176.963 89.8106 176.864C89.857 176.699 89.9035 176.533 89.9366 176.368C89.9821 176.201 90.0175 176.03 90.0427 175.859C90.0526 175.76 90.0526 175.66 90.0427 175.561C90.3872 175.518 90.713 175.38 90.9841 175.164C91.4349 174.755 91.7572 174.224 91.9123 173.636C92.1377 172.941 92.3101 172.227 92.4758 171.519C92.9192 169.783 93.2098 168.012 93.3443 166.226C93.336 166.202 93.3217 166.18 93.3025 166.162C93.2834 166.145 93.2601 166.133 93.2349 166.127C93.2097 166.121 93.1834 166.121 93.1584 166.128C93.1335 166.135 93.1108 166.148 93.0924 166.167Z" fill="#455A64"/>
<path d="M76.1464 170.884C76.0204 171.704 75.9541 172.524 75.795 173.338C75.6359 174.152 75.4502 174.932 75.2182 175.713C75.0075 176.469 74.6929 177.193 74.2834 177.863C73.8524 178.493 73.332 179.057 72.7387 179.537C71.6103 180.497 70.3314 181.266 68.9531 181.813C68.2585 182.089 67.5478 182.323 66.8249 182.514C66.447 182.607 66.0691 182.686 65.6846 182.752C65.3664 182.772 65.0554 182.856 64.7697 182.997C64.7422 183.013 64.7195 183.037 64.7038 183.064C64.688 183.092 64.6797 183.124 64.6797 183.156C64.6797 183.188 64.688 183.219 64.7038 183.247C64.7195 183.275 64.7422 183.298 64.7697 183.314C65.33 183.464 65.9198 183.464 66.4802 183.314C67.0945 183.235 67.7018 183.109 68.2967 182.937C69.4988 182.577 70.6439 182.05 71.6978 181.369C72.7648 180.718 73.7131 179.89 74.5022 178.922C75.2331 177.903 75.7207 176.731 75.9276 175.495C76.2593 173.986 76.3776 172.438 76.2789 170.897C76.2729 170.885 76.2639 170.875 76.253 170.868C76.242 170.86 76.2294 170.856 76.2162 170.854C76.2031 170.853 76.1898 170.855 76.1776 170.86C76.1654 170.865 76.1546 170.873 76.1464 170.884Z" fill="#455A64"/>
<path d="M57.1324 175.66C57.1324 175.629 57.1449 175.598 57.1673 175.576C57.1897 175.554 57.22 175.541 57.2517 175.541C57.2833 175.541 57.3137 175.554 57.3361 175.576C57.3584 175.598 57.371 175.629 57.371 175.66C57.3047 183.275 58.4782 191.789 64.3588 197.254C70.7963 203.247 80.0912 203.962 88.4513 203.869C93.2579 203.83 98.0445 203.71 102.844 203.869C107.644 204.028 112.537 204.253 117.33 204.868C119.195 205.042 120.936 205.873 122.243 207.21C123.505 208.641 124.599 210.21 125.505 211.887C127.918 215.857 130.256 219.892 132.519 223.994C137.023 232.105 141.187 240.385 145.01 248.836C145.487 249.886 145.958 250.937 146.422 251.992C146.455 252.058 146.349 252.117 146.316 252.051C142.431 243.57 138.247 235.236 133.766 227.051C131.529 222.953 129.22 218.9 126.838 214.891C125.717 213.005 124.636 211.074 123.383 209.268C122.283 207.673 120.897 206.178 118.988 205.596C117.815 205.305 116.615 205.132 115.408 205.08C114.184 204.97 112.957 204.868 111.728 204.776C109.337 204.604 106.942 204.473 104.542 204.385C99.702 204.207 94.8689 204.266 90.0292 204.352C81.6293 204.504 72.4471 204.22 65.4991 198.881C62.5217 196.551 60.2743 193.42 59.0218 189.857C57.7895 186.203 57.1581 182.374 57.1522 178.518C57.1058 177.579 57.1125 176.619 57.1324 175.66Z" fill="#455A64"/>
<path d="M107.445 209.023C109.155 209.023 110.872 209.122 112.583 209.182C114.011 209.158 115.437 209.285 116.839 209.559C118.165 209.883 119.166 210.035 120.227 211.484C121.553 213.29 128.766 227.203 131.796 233.362C132.636 235.069 133.464 236.782 134.282 238.502C135.124 240.282 135.866 242.101 136.708 243.881C136.708 243.94 136.642 244 136.609 243.934C135.866 242.445 135.038 241.003 134.275 239.528C133.513 238.053 132.757 236.564 132.015 235.075C130.507 232.072 129.002 229.071 127.5 226.072C125.995 223.095 124.185 220.197 122.653 217.24C121.374 214.752 119.63 211.352 118.41 210.849C116.709 210.183 114.925 209.751 113.107 209.566C111.217 209.433 109.328 209.321 107.438 209.155C107.429 209.155 107.421 209.153 107.413 209.149C107.405 209.145 107.398 209.14 107.392 209.134C107.386 209.127 107.382 209.12 107.379 209.111C107.376 209.103 107.375 209.095 107.375 209.086C107.376 209.077 107.378 209.069 107.381 209.061C107.385 209.053 107.39 209.046 107.397 209.04C107.403 209.034 107.411 209.03 107.419 209.027C107.427 209.024 107.436 209.023 107.445 209.023Z" fill="#455A64"/>
<path d="M80.1697 103.377C79.0019 103.824 77.9708 104.566 77.178 105.532C76.3851 106.497 75.8579 107.651 75.6482 108.882C75.4382 110.473 75.0191 112.03 74.4018 113.513C73.6157 114.974 72.617 116.312 71.4383 117.482C69.6483 119.42 68.3555 121.385 67.9246 124.098C67.4042 126.963 67.4878 129.906 68.1699 132.738C67.6444 129.758 67.7369 126.703 68.4417 123.76C69.1445 120.79 70.9743 119.01 72.8637 116.84C74.3692 115.157 75.3928 113.1 75.8272 110.886C76.0858 109.53 76.1587 108.101 76.7952 106.851C77.5576 105.349 78.93 104.456 80.2891 103.668C80.3157 103.646 80.3346 103.615 80.3429 103.582C80.3512 103.548 80.3485 103.512 80.3353 103.48C80.322 103.447 80.2989 103.42 80.2691 103.402C80.2394 103.383 80.2046 103.375 80.1697 103.377Z" fill="#183C4F"/>
<path d="M103.455 120.77C101.936 118.514 100.332 116.576 99.5364 113.844C98.8138 111.356 98.4757 108.756 97.7332 106.269C97.7332 106.229 97.6602 106.269 97.6735 106.269C98.774 110.668 98.7608 115.041 101.32 118.838C102.705 120.902 104.104 122.808 104.953 125.256C105.808 127.797 106.168 130.478 106.014 133.155C106.014 133.247 106.133 133.254 106.153 133.155C106.835 128.835 105.873 124.417 103.455 120.77Z" fill="#183C4F"/>
<path d="M84.9237 136.337C87.0519 149.072 95.5777 165.161 97.6197 166.147C101.24 167.893 125.465 169.772 126.413 169.686C128.786 169.461 131.717 153.623 129.728 151.996C129.277 151.632 106.265 151.46 105.29 151.169C104.09 150.812 98.4153 142.641 92.5281 134.325C88.4309 128.484 83.7967 129.542 84.9237 136.337Z" fill="#3D8BC5"/>
<path d="M123.482 168.872C125.757 169.824 128.091 170.627 130.47 171.274C132.373 171.704 137.862 172.796 138.545 170.765C139.016 169.375 135.893 168.35 133.646 167.576C132.479 167.172 130.994 166.061 131.299 165.313C131.809 163.99 134.819 165.115 136.808 166.12C140.667 168.065 145.858 171.664 148.026 169.646C148.841 168.879 147.767 167.662 146.229 166.451C148.689 167.774 151.294 168.866 152.236 168.052C152.478 167.844 152.632 167.551 152.665 167.234C152.698 166.917 152.609 166.599 152.415 166.345C152.722 166.466 153.059 166.494 153.382 166.424C153.705 166.355 154.001 166.191 154.231 165.955C154.954 165.102 154.51 163.97 153.568 162.766C153.71 162.74 153.844 162.68 153.959 162.593C154.075 162.506 154.168 162.393 154.231 162.263C155.723 159.683 147.124 153.002 144.287 152.525C135.854 151.037 127.049 152.274 127.049 152.274C123.94 155.072 123.476 168.866 123.482 168.872Z" fill="#EB9481"/>
<path d="M135.258 160.424C137.261 160.597 139.2 161.214 140.933 162.23C142.955 163.448 144.599 165.174 146.482 166.57C146.535 166.61 146.482 166.689 146.422 166.65C145.534 165.922 144.566 165.28 143.644 164.586C142.723 163.891 141.868 163.196 140.926 162.601C139.225 161.467 137.286 160.739 135.258 160.471C135.258 160.471 135.238 160.418 135.258 160.424Z" fill="#263238"/>
<path d="M136.603 156.812C138.855 157.202 141.061 157.823 143.186 158.665C145.473 159.664 147.323 161.404 149.153 163.077C150.24 164.076 151.308 165.108 152.348 166.16C152.395 166.2 152.348 166.279 152.289 166.233C150.446 164.504 148.554 162.833 146.614 161.218C144.821 159.706 142.746 158.564 140.508 157.858C139.228 157.454 137.922 157.15 136.616 156.845C136.57 156.845 136.576 156.806 136.603 156.812Z" fill="#263238"/>
<path d="M138.757 153.59C140.905 153.901 142.781 154.166 144.723 155.191C146.917 156.479 148.942 158.035 150.75 159.822C151.74 160.762 152.703 161.725 153.64 162.713C153.674 162.753 153.607 162.819 153.567 162.779C151.414 160.629 149.124 158.618 146.712 156.759C145.579 155.854 144.311 155.13 142.953 154.616C141.583 154.17 140.176 153.843 138.75 153.637C138.75 153.637 138.75 153.59 138.757 153.59Z" fill="#263238"/>
<path d="M124.112 158.44V170.348C124.112 170.348 103.984 169.528 97.5199 166.742C94.0459 165.241 85.1952 142.979 83.9886 135.854C82.8019 128.841 85.5797 124.687 92.7664 132.824C98.2757 139.063 106.364 150.316 107.007 150.627C107.65 150.938 124.138 149.727 124.138 149.727V158.427" fill="#F8D465"/>
<path d="M85.5198 140.723C85.5199 140.891 85.4639 141.053 85.3607 141.186C85.2348 140.782 85.1088 140.385 84.9961 140.002C85.1488 140.051 85.2819 140.147 85.376 140.277C85.4702 140.407 85.5206 140.563 85.5198 140.723ZM95.133 139.955C94.9809 139.955 94.8322 140 94.7057 140.085C94.5792 140.169 94.4807 140.289 94.4225 140.429C94.3643 140.569 94.349 140.724 94.3787 140.873C94.4084 141.021 94.4816 141.158 94.5892 141.265C94.6967 141.373 94.8338 141.446 94.9829 141.475C95.1321 141.505 95.2867 141.49 95.4273 141.432C95.5678 141.374 95.6879 141.275 95.7724 141.149C95.8569 141.023 95.902 140.875 95.902 140.723C95.9003 140.52 95.8187 140.326 95.6749 140.182C95.531 140.039 95.3364 139.957 95.133 139.955ZM89.9419 132.017C89.7898 132.017 89.6411 132.062 89.5146 132.146C89.3882 132.23 89.2896 132.35 89.2314 132.49C89.1732 132.631 89.1579 132.785 89.1876 132.934C89.2173 133.083 89.2905 133.219 89.3981 133.327C89.5056 133.434 89.6427 133.507 89.7918 133.537C89.941 133.566 90.0957 133.551 90.2362 133.493C90.3767 133.435 90.4968 133.337 90.5813 133.21C90.6658 133.084 90.7109 132.936 90.7109 132.784C90.7057 132.584 90.6224 132.394 90.4788 132.254C90.3351 132.114 90.1424 132.036 89.9419 132.036V132.017ZM95.133 155.343C94.979 155.342 94.8281 155.387 94.6996 155.471C94.571 155.556 94.4705 155.676 94.411 155.818C94.3515 155.96 94.3356 156.116 94.3653 156.267C94.395 156.418 94.469 156.556 94.5779 156.665C94.6868 156.773 94.8256 156.847 94.9767 156.877C95.1278 156.907 95.2843 156.891 95.4263 156.831C95.5683 156.772 95.6893 156.672 95.7741 156.543C95.8588 156.415 95.9033 156.264 95.902 156.111C95.9003 155.908 95.8187 155.714 95.6749 155.57C95.531 155.427 95.3364 155.345 95.133 155.343ZM105.509 155.343C105.355 155.343 105.205 155.389 105.077 155.474C104.949 155.56 104.85 155.681 104.791 155.823C104.733 155.965 104.718 156.121 104.748 156.271C104.779 156.421 104.853 156.559 104.962 156.667C105.072 156.775 105.21 156.848 105.361 156.877C105.512 156.906 105.668 156.89 105.81 156.831C105.952 156.771 106.072 156.671 106.157 156.543C106.241 156.414 106.286 156.264 106.284 156.111C106.284 156.009 106.264 155.909 106.225 155.816C106.186 155.722 106.129 155.637 106.057 155.566C105.985 155.494 105.899 155.438 105.805 155.4C105.711 155.362 105.61 155.343 105.509 155.343ZM115.891 155.343C115.737 155.342 115.586 155.387 115.457 155.471C115.329 155.556 115.228 155.676 115.169 155.818C115.109 155.96 115.093 156.116 115.123 156.267C115.153 156.418 115.227 156.556 115.336 156.665C115.445 156.773 115.583 156.847 115.734 156.877C115.885 156.907 116.042 156.891 116.184 156.831C116.326 156.772 116.447 156.672 116.532 156.543C116.617 156.415 116.661 156.264 116.66 156.111C116.66 155.907 116.579 155.712 116.435 155.568C116.29 155.424 116.095 155.343 115.891 155.343ZM89.9419 147.405C89.7879 147.403 89.637 147.448 89.5085 147.532C89.3799 147.617 89.2794 147.738 89.2199 147.879C89.1604 148.021 89.1445 148.177 89.1742 148.328C89.2039 148.479 89.2779 148.617 89.3868 148.726C89.4957 148.835 89.6345 148.908 89.7856 148.938C89.9367 148.968 90.0932 148.952 90.2352 148.892C90.3772 148.833 90.4982 148.733 90.583 148.605C90.6677 148.476 90.7122 148.326 90.7109 148.172C90.7109 147.968 90.6299 147.773 90.4857 147.629C90.3415 147.485 90.1458 147.405 89.9419 147.405ZM100.324 147.405C100.17 147.403 100.019 147.448 99.8907 147.532C99.7621 147.617 99.6616 147.738 99.6021 147.879C99.5426 148.021 99.5267 148.177 99.5564 148.328C99.5861 148.479 99.6601 148.617 99.769 148.726C99.8779 148.835 100.017 148.908 100.168 148.938C100.319 148.968 100.475 148.952 100.617 148.892C100.759 148.833 100.88 148.733 100.965 148.605C101.05 148.476 101.094 148.326 101.093 148.172C101.093 147.968 101.012 147.773 100.868 147.629C100.724 147.485 100.528 147.405 100.324 147.405ZM100.324 162.779C100.17 162.778 100.02 162.822 99.8913 162.907C99.7629 162.991 99.6625 163.111 99.6027 163.253C99.543 163.394 99.5267 163.55 99.5559 163.7C99.585 163.851 99.6584 163.989 99.7666 164.098C99.8748 164.207 100.013 164.282 100.164 164.312C100.314 164.342 100.471 164.328 100.613 164.269C100.755 164.211 100.876 164.112 100.962 163.984C101.047 163.857 101.093 163.707 101.093 163.553C101.091 163.35 101.01 163.156 100.866 163.013C100.722 162.869 100.527 162.788 100.324 162.786V162.779ZM110.7 162.779C110.546 162.779 110.396 162.825 110.269 162.91C110.141 162.995 110.042 163.116 109.983 163.257C109.924 163.399 109.909 163.554 109.939 163.704C109.969 163.855 110.043 163.993 110.151 164.101C110.26 164.209 110.398 164.283 110.548 164.313C110.699 164.342 110.855 164.327 110.996 164.269C111.138 164.21 111.259 164.111 111.345 163.983C111.43 163.856 111.475 163.707 111.475 163.553C111.475 163.452 111.455 163.352 111.416 163.258C111.377 163.165 111.32 163.08 111.248 163.008C111.176 162.937 111.09 162.881 110.996 162.843C110.902 162.804 110.801 162.785 110.7 162.786V162.779ZM121.082 162.779C120.928 162.778 120.778 162.822 120.649 162.907C120.521 162.991 120.42 163.111 120.36 163.253C120.301 163.394 120.284 163.55 120.314 163.7C120.343 163.851 120.416 163.989 120.524 164.098C120.633 164.207 120.771 164.282 120.921 164.312C121.072 164.342 121.228 164.328 121.37 164.269C121.513 164.211 121.634 164.112 121.72 163.984C121.805 163.857 121.851 163.707 121.851 163.553C121.851 163.35 121.77 163.155 121.626 163.011C121.481 162.867 121.286 162.786 121.082 162.786V162.779Z" fill="white"/>
<path d="M119.81 159.664C119.81 158.208 119.857 156.76 119.89 155.304C119.923 153.849 119.89 152.393 120.049 150.951C120.049 150.885 120.162 150.878 120.168 150.951C120.294 152.347 120.261 153.769 120.288 155.172C120.314 156.574 120.288 158.142 120.327 159.624C120.327 162.562 120.241 165.492 120.089 168.423C120.089 168.496 119.983 168.483 119.983 168.423C119.857 165.492 119.777 162.581 119.81 159.664Z" fill="#263238"/>
<path opacity="0.1" d="M113.041 169.58C107.247 169.025 100.703 168.131 97.5076 166.755C94.027 165.254 85.1829 142.992 83.983 135.86C83.32 131.931 83.8901 128.894 85.8061 128.438L113.041 169.58Z" fill="black"/>
<path d="M94.9612 160.484L95.6242 172.782H53.2402C53.2402 172.782 65.3196 138.01 73.4676 130.66C78.9769 125.692 84.8244 126.638 88.2254 130.779C89.0873 131.825 97.9446 144.15 98.6142 149.965C99.2109 155.072 94.9612 160.484 94.9612 160.484Z" fill="#F8D465"/>
<path d="M95.3332 167.252C95.1078 165.002 94.9222 162.746 94.7631 160.497V160.424L94.8161 160.351C95.9661 158.824 96.8945 157.143 97.5741 155.357C97.9049 154.466 98.1426 153.544 98.2835 152.604C98.4436 151.675 98.4548 150.726 98.3166 149.793C98.1873 148.849 97.9652 147.921 97.6536 147.021C97.3551 146.109 97.0099 145.212 96.6194 144.335C95.82 142.574 94.9214 140.86 93.9277 139.201C95.073 140.773 96.0822 142.44 96.9443 144.183C97.8596 145.918 98.5035 147.784 98.8536 149.713C99.1238 151.689 98.863 153.7 98.0978 155.542C97.3916 157.377 96.3956 159.088 95.1476 160.609L95.194 160.47C95.247 162.733 95.3133 164.989 95.3332 167.252Z" fill="#263238"/>
<path d="M95.9424 140.955C96.3522 141.657 96.6835 142.403 96.9302 143.177C97.0551 143.566 97.157 143.961 97.2352 144.362C97.3212 144.764 97.3546 145.175 97.3346 145.586C97.0893 144.805 96.8175 144.057 96.5722 143.297C96.3173 142.529 96.107 141.747 95.9424 140.955Z" fill="#263238"/>
<path d="M75.1445 140.723C75.1459 140.876 75.1015 141.027 75.017 141.155C74.9326 141.283 74.8119 141.383 74.6703 141.443C74.5287 141.502 74.3725 141.519 74.2216 141.49C74.0707 141.46 73.9319 141.387 73.8228 141.279C73.7136 141.171 73.6391 141.033 73.6086 140.883C73.5781 140.733 73.5931 140.577 73.6516 140.435C73.7101 140.293 73.8095 140.172 73.9372 140.087C74.0649 140.001 74.2152 139.956 74.3689 139.956C74.4704 139.955 74.5711 139.974 74.6652 140.012C74.7593 140.05 74.8448 140.107 74.9169 140.178C74.9891 140.249 75.0463 140.334 75.0854 140.428C75.1244 140.521 75.1445 140.622 75.1445 140.723ZM84.751 139.956C84.5989 139.956 84.4503 140.001 84.3238 140.085C84.1973 140.169 84.0987 140.289 84.0405 140.429C83.9823 140.57 83.9671 140.724 83.9968 140.873C84.0264 141.022 84.0997 141.158 84.2072 141.266C84.3148 141.373 84.4518 141.446 84.601 141.476C84.7502 141.505 84.9048 141.49 85.0453 141.432C85.1859 141.374 85.306 141.276 85.3905 141.149C85.475 141.023 85.5201 140.875 85.5201 140.723C85.5201 140.622 85.5002 140.522 85.4615 140.429C85.4229 140.336 85.3663 140.252 85.2948 140.18C85.2234 140.109 85.1387 140.053 85.0453 140.014C84.952 139.975 84.852 139.956 84.751 139.956ZM94.5167 140.26C94.4135 140.392 94.3575 140.555 94.3575 140.723C94.3593 140.927 94.4418 141.122 94.5871 141.266C94.7324 141.41 94.9286 141.49 95.1332 141.49H95.1863C94.9874 141.074 94.7553 140.663 94.5233 140.26H94.5167ZM79.5599 132.037C79.4081 132.038 79.2601 132.084 79.1345 132.169C79.0089 132.254 78.9114 132.375 78.8542 132.515C78.797 132.655 78.7827 132.809 78.8131 132.958C78.8435 133.106 78.9173 133.242 79.0251 133.349C79.1329 133.456 79.27 133.528 79.419 133.557C79.568 133.586 79.7222 133.571 79.8624 133.512C80.0025 133.454 80.1223 133.356 80.2065 133.23C80.2907 133.104 80.3356 132.956 80.3356 132.804C80.3356 132.703 80.3155 132.602 80.2765 132.509C80.2374 132.415 80.1802 132.33 80.108 132.259C80.0359 132.188 79.9504 132.131 79.8563 132.093C79.7622 132.055 79.6615 132.036 79.5599 132.037ZM89.372 132.295C89.2424 132.433 89.1712 132.615 89.1731 132.804C89.1731 133.008 89.2541 133.203 89.3983 133.347C89.5426 133.491 89.7382 133.571 89.9421 133.571C90.0396 133.571 90.1362 133.553 90.2272 133.519C89.9156 133.062 89.6305 132.652 89.372 132.295ZM64.0264 155.344C63.8725 155.342 63.7216 155.387 63.593 155.471C63.4645 155.556 63.364 155.677 63.3045 155.818C63.245 155.96 63.229 156.116 63.2587 156.267C63.2885 156.418 63.3625 156.556 63.4714 156.665C63.5802 156.774 63.719 156.847 63.8701 156.877C64.0212 156.907 64.1777 156.891 64.3197 156.831C64.4617 156.772 64.5828 156.672 64.6675 156.544C64.7523 156.415 64.7968 156.265 64.7955 156.111C64.7955 155.907 64.7145 155.712 64.5703 155.568C64.426 155.424 64.2304 155.344 64.0264 155.344ZM74.402 155.344C74.2483 155.344 74.0981 155.389 73.9704 155.475C73.8427 155.56 73.7433 155.681 73.6848 155.823C73.6262 155.965 73.6113 156.121 73.6417 156.271C73.6722 156.421 73.7468 156.559 73.8559 156.667C73.965 156.775 74.1039 156.848 74.2548 156.878C74.4057 156.907 74.5618 156.89 74.7035 156.831C74.8451 156.771 74.9658 156.671 75.0502 156.543C75.1346 156.415 75.179 156.264 75.1777 156.111C75.1778 156.007 75.1567 155.904 75.1156 155.808C75.0745 155.712 75.0142 155.626 74.9386 155.554C74.8629 155.482 74.7733 155.426 74.6754 155.39C74.5774 155.354 74.4731 155.338 74.3689 155.344H74.402ZM84.7842 155.344C84.6302 155.342 84.4793 155.387 84.3508 155.471C84.2222 155.556 84.1218 155.677 84.0622 155.818C84.0027 155.96 83.9868 156.116 84.0165 156.267C84.0462 156.418 84.1202 156.556 84.2291 156.665C84.338 156.774 84.4768 156.847 84.6279 156.877C84.779 156.907 84.9355 156.891 85.0775 156.831C85.2195 156.772 85.3406 156.672 85.4253 156.544C85.51 156.415 85.5546 156.265 85.5532 156.111C85.5533 156.007 85.5324 155.905 85.4917 155.809C85.451 155.714 85.3914 155.628 85.3164 155.556C85.2414 155.485 85.1527 155.429 85.0555 155.392C84.9584 155.356 84.8548 155.339 84.751 155.344H84.7842ZM95.1664 155.344C95.0124 155.342 94.8615 155.387 94.733 155.471C94.6044 155.556 94.5039 155.677 94.4444 155.818C94.3849 155.96 94.369 156.116 94.3987 156.267C94.4284 156.418 94.5024 156.556 94.6113 156.665C94.7202 156.774 94.859 156.847 95.0101 156.877C95.1611 156.907 95.3177 156.891 95.4597 156.831C95.6017 156.772 95.7227 156.672 95.8075 156.544C95.8922 156.415 95.9367 156.265 95.9354 156.111C95.9346 156.008 95.913 155.906 95.872 155.811C95.831 155.716 95.7713 155.63 95.6966 155.558C95.6218 155.487 95.5334 155.431 95.4367 155.394C95.3399 155.357 95.2367 155.34 95.1332 155.344H95.1664ZM69.2175 147.405C69.0636 147.404 68.9127 147.448 68.7841 147.533C68.6556 147.617 68.5551 147.738 68.4956 147.88C68.436 148.021 68.4201 148.177 68.4498 148.328C68.4796 148.479 68.5536 148.617 68.6624 148.726C68.7713 148.835 68.9101 148.909 69.0612 148.938C69.2123 148.968 69.3688 148.952 69.5108 148.893C69.6528 148.833 69.7739 148.733 69.8586 148.605C69.9434 148.476 69.9879 148.326 69.9866 148.172C69.9867 148.069 69.9658 147.966 69.925 147.871C69.8843 147.775 69.8247 147.689 69.7498 147.618C69.6748 147.546 69.5861 147.49 69.4889 147.453C69.3917 147.417 69.2881 147.4 69.1844 147.405H69.2175ZM79.5931 147.405C79.4394 147.405 79.2892 147.45 79.1615 147.536C79.0338 147.621 78.9344 147.742 78.8758 147.884C78.8173 148.026 78.8024 148.182 78.8328 148.332C78.8633 148.483 78.9378 148.621 79.047 148.729C79.1561 148.836 79.295 148.91 79.4459 148.939C79.5968 148.968 79.7529 148.952 79.8946 148.892C80.0362 148.832 80.1569 148.732 80.2413 148.604C80.3257 148.476 80.3701 148.326 80.3688 148.172C80.3689 148.068 80.3478 147.965 80.3067 147.869C80.2656 147.773 80.2053 147.687 80.1296 147.615C80.054 147.543 79.9644 147.488 79.8665 147.451C79.7685 147.415 79.6642 147.399 79.5599 147.405H79.5931ZM89.9753 147.405C89.8213 147.404 89.6704 147.448 89.5419 147.533C89.4133 147.617 89.3129 147.738 89.2533 147.88C89.1938 148.021 89.1779 148.177 89.2076 148.328C89.2373 148.479 89.3113 148.617 89.4202 148.726C89.5291 148.835 89.6679 148.909 89.819 148.938C89.9701 148.968 90.1266 148.952 90.2686 148.893C90.4106 148.833 90.5317 148.733 90.6164 148.605C90.7011 148.476 90.7456 148.326 90.7443 148.172C90.7444 148.069 90.7235 147.966 90.6828 147.871C90.6421 147.775 90.5825 147.689 90.5075 147.618C90.4325 147.546 90.3438 147.49 90.2466 147.453C90.1495 147.417 90.0459 147.4 89.9421 147.405H89.9753ZM53.989 170.785L53.4785 172.22C53.5335 172.227 53.5892 172.227 53.6443 172.22C53.8182 172.221 53.9873 172.163 54.1239 172.056C54.2606 171.949 54.3568 171.798 54.3968 171.629C54.4368 171.46 54.4183 171.283 54.3442 171.126C54.2701 170.969 54.1449 170.842 53.989 170.765V170.785ZM64.0264 170.699C63.8725 170.697 63.7216 170.742 63.593 170.826C63.4645 170.911 63.364 171.032 63.3045 171.173C63.245 171.315 63.229 171.471 63.2587 171.622C63.2885 171.773 63.3625 171.911 63.4714 172.02C63.5802 172.129 63.719 172.202 63.8701 172.232C64.0212 172.262 64.1777 172.246 64.3197 172.186C64.4617 172.127 64.5828 172.027 64.6675 171.898C64.7523 171.77 64.7968 171.62 64.7955 171.466C64.7938 171.264 64.712 171.07 64.5679 170.928C64.4239 170.785 64.2293 170.705 64.0264 170.705V170.699ZM74.402 170.699C74.2483 170.699 74.0981 170.744 73.9704 170.829C73.8427 170.915 73.7433 171.036 73.6848 171.178C73.6262 171.32 73.6113 171.476 73.6417 171.626C73.6722 171.776 73.7468 171.914 73.8559 172.022C73.965 172.13 74.1039 172.203 74.2548 172.233C74.4057 172.262 74.5618 172.245 74.7035 172.186C74.8451 172.126 74.9658 172.026 75.0502 171.898C75.1346 171.77 75.179 171.619 75.1777 171.466C75.1769 171.362 75.1551 171.26 75.1136 171.165C75.0721 171.07 75.0118 170.984 74.9362 170.913C74.8606 170.842 74.7713 170.787 74.6738 170.751C74.5763 170.715 74.4726 170.7 74.3689 170.705L74.402 170.699ZM84.7842 170.699C84.6302 170.697 84.4793 170.742 84.3508 170.826C84.2222 170.911 84.1218 171.032 84.0622 171.173C84.0027 171.315 83.9868 171.471 84.0165 171.622C84.0462 171.773 84.1202 171.911 84.2291 172.02C84.338 172.129 84.4768 172.202 84.6279 172.232C84.779 172.262 84.9355 172.246 85.0775 172.186C85.2195 172.127 85.3406 172.027 85.4253 171.898C85.51 171.77 85.5546 171.62 85.5532 171.466C85.5524 171.363 85.5309 171.261 85.4898 171.166C85.4487 171.072 85.3889 170.987 85.314 170.916C85.2391 170.845 85.1507 170.789 85.054 170.753C84.9573 170.717 84.8542 170.701 84.751 170.705L84.7842 170.699ZM95.5708 170.818C95.4508 170.739 95.31 170.697 95.1664 170.699C95.0589 170.689 94.9506 170.701 94.8483 170.735C94.746 170.77 94.6519 170.825 94.5722 170.897C94.4924 170.97 94.4287 171.058 94.3852 171.157C94.3416 171.255 94.3191 171.362 94.3191 171.469C94.3191 171.577 94.3416 171.683 94.3852 171.782C94.4287 171.88 94.4924 171.969 94.5722 172.041C94.6519 172.114 94.746 172.169 94.8483 172.203C94.9506 172.237 95.0589 172.25 95.1664 172.24C95.3379 172.242 95.5046 172.183 95.6371 172.075L95.5708 170.818ZM58.8354 162.78C58.6817 162.778 58.5311 162.823 58.4026 162.907C58.2742 162.991 58.1737 163.111 58.114 163.253C58.0543 163.394 58.038 163.55 58.0672 163.701C58.0963 163.851 58.1697 163.99 58.2779 164.099C58.3861 164.207 58.5243 164.282 58.6749 164.312C58.8256 164.343 58.9819 164.328 59.124 164.269C59.2661 164.211 59.3877 164.112 59.4732 163.984C59.5587 163.857 59.6044 163.707 59.6044 163.554C59.6045 163.45 59.5836 163.347 59.5429 163.252C59.5022 163.157 59.4425 163.071 59.3676 162.999C59.2926 162.927 59.2039 162.871 59.1067 162.835C59.0095 162.798 58.906 162.782 58.8022 162.786L58.8354 162.78ZM69.2175 162.78C69.0639 162.778 68.9132 162.823 68.7848 162.907C68.6564 162.991 68.5559 163.111 68.4962 163.253C68.4365 163.394 68.4202 163.55 68.4493 163.701C68.4785 163.851 68.5519 163.99 68.6601 164.099C68.7683 164.207 68.9065 164.282 69.0571 164.312C69.2078 164.343 69.3641 164.328 69.5062 164.269C69.6483 164.211 69.7699 164.112 69.8554 163.984C69.9409 163.857 69.9866 163.707 69.9866 163.554C69.9858 163.45 69.9642 163.348 69.9232 163.253C69.8822 163.158 69.8225 163.073 69.7477 163.001C69.673 162.93 69.5846 162.874 69.4878 162.837C69.3911 162.8 69.2879 162.783 69.1844 162.786L69.2175 162.78ZM79.5931 162.78C79.4397 162.78 79.2897 162.825 79.1622 162.91C79.0346 162.995 78.9352 163.116 78.8765 163.257C78.8178 163.399 78.8024 163.554 78.8323 163.705C78.8622 163.855 78.9361 163.993 79.0446 164.101C79.1531 164.209 79.2913 164.283 79.4418 164.313C79.5922 164.343 79.7482 164.327 79.8899 164.269C80.0317 164.21 80.1528 164.111 80.2381 163.984C80.3233 163.856 80.3688 163.707 80.3688 163.554C80.3689 163.449 80.3478 163.346 80.3067 163.25C80.2656 163.155 80.2053 163.068 80.1296 162.996C80.054 162.925 79.9644 162.869 79.8665 162.833C79.7685 162.797 79.6642 162.781 79.5599 162.786L79.5931 162.78ZM89.9753 162.78C89.8216 162.778 89.671 162.823 89.5425 162.907C89.4141 162.991 89.3137 163.111 89.2539 163.253C89.1942 163.394 89.1779 163.55 89.2071 163.701C89.2363 163.851 89.3096 163.99 89.4178 164.099C89.526 164.207 89.6642 164.282 89.8149 164.312C89.9655 164.343 90.1218 164.328 90.2639 164.269C90.4061 164.211 90.5276 164.112 90.6131 163.984C90.6987 163.857 90.7443 163.707 90.7443 163.554C90.7444 163.45 90.7235 163.347 90.6828 163.252C90.6421 163.157 90.5825 163.071 90.5075 162.999C90.4325 162.927 90.3438 162.871 90.2466 162.835C90.1495 162.798 90.0459 162.782 89.9421 162.786L89.9753 162.78Z" fill="white"/>
<path d="M88.3847 157.93C86.3744 158.107 84.38 158.432 82.418 158.903C81.4567 159.148 80.5086 159.439 79.5605 159.75C79.0898 159.909 78.6125 160.047 78.1351 160.18C77.64 160.336 77.1282 160.433 76.6103 160.471C76.6015 160.471 76.5931 160.474 76.5869 160.481C76.5806 160.487 76.5771 160.495 76.5771 160.504C76.5771 160.513 76.5806 160.521 76.5869 160.527C76.5931 160.534 76.6015 160.537 76.6103 160.537C77.1002 160.573 77.5922 160.573 78.0821 160.537C78.5546 160.485 79.0223 160.397 79.481 160.272C80.4688 160.034 81.4368 159.75 82.418 159.498C84.4069 158.989 86.3958 158.486 88.3847 158.122C88.4974 158.076 88.4776 157.917 88.3847 157.93Z" fill="#263238"/>
<path d="M93.317 159.697C91.672 159.525 90.0186 159.445 88.3646 159.458C87.5359 159.458 86.7138 159.525 85.8917 159.604L84.7116 159.736C84.2807 159.789 83.8564 159.908 83.4254 159.955C83.379 159.955 83.379 160.027 83.4254 160.027C83.8365 159.994 84.2542 160.027 84.6652 160.027L85.905 159.974C86.727 159.974 87.5558 159.974 88.3779 159.915C90.0287 159.862 91.6927 159.822 93.3303 159.822C93.4098 159.829 93.4032 159.703 93.317 159.697Z" fill="#263238"/>
<path d="M74.8465 128.795C59.4921 135.358 41.3265 151.249 41.9564 156.971C42.6591 163.342 64.7097 154.087 64.5505 153.121C64.4179 152.307 69.3505 145.844 76.3979 136.582C83.5647 127.115 78.6454 127.174 74.8465 128.795Z" fill="#F8D465"/>
<path d="M64.7627 140.723C64.7627 140.875 64.7176 141.023 64.6331 141.149C64.5486 141.276 64.4285 141.374 64.288 141.432C64.1474 141.49 63.9928 141.505 63.8436 141.476C63.6944 141.446 63.5574 141.373 63.4499 141.266C63.3423 141.158 63.2691 141.022 63.2394 140.873C63.2097 140.724 63.2249 140.57 63.2831 140.429C63.3414 140.289 63.4399 140.169 63.5664 140.085C63.6929 140.001 63.8416 139.956 63.9937 139.956C64.1976 139.956 64.3932 140.036 64.5375 140.18C64.6817 140.324 64.7627 140.519 64.7627 140.723Z" fill="white"/>
<path d="M69.9537 132.804C69.955 132.958 69.9104 133.108 69.8257 133.237C69.741 133.365 69.6199 133.465 69.4779 133.524C69.3359 133.584 69.1794 133.6 69.0283 133.57C68.8772 133.54 68.7384 133.467 68.6295 133.358C68.5207 133.249 68.4466 133.111 68.4169 132.96C68.3872 132.809 68.4031 132.653 68.4627 132.511C68.5222 132.37 68.6226 132.249 68.7512 132.164C68.8798 132.08 69.0307 132.035 69.1846 132.037C69.3886 132.037 69.5842 132.117 69.7284 132.261C69.8727 132.405 69.9537 132.601 69.9537 132.804Z" fill="white"/>
<path d="M79.2755 132.083C79.1363 132.367 78.9771 132.665 78.7915 132.983C78.749 132.8 78.7747 132.607 78.8637 132.442C78.9528 132.276 79.0991 132.149 79.2755 132.083Z" fill="white"/>
<path d="M44.0045 156.098C44.0058 156.251 43.9614 156.402 43.877 156.53C43.7925 156.658 43.6719 156.758 43.5302 156.818C43.3886 156.877 43.2325 156.894 43.0816 156.865C42.9307 156.835 42.7918 156.762 42.6827 156.654C42.5735 156.546 42.499 156.408 42.4685 156.258C42.4381 156.108 42.453 155.952 42.5115 155.81C42.57 155.668 42.6695 155.547 42.7972 155.461C42.9249 155.376 43.0751 155.331 43.2288 155.331C43.4334 155.331 43.6297 155.411 43.7749 155.555C43.9202 155.699 44.0027 155.894 44.0045 156.098Z" fill="white"/>
<path d="M54.3809 156.098C54.3809 156.25 54.3358 156.398 54.2513 156.524C54.1668 156.651 54.0467 156.749 53.9061 156.807C53.7656 156.865 53.611 156.88 53.4618 156.851C53.3126 156.821 53.1756 156.748 53.068 156.641C52.9605 156.533 52.8872 156.397 52.8576 156.248C52.8279 156.099 52.8431 155.945 52.9013 155.804C52.9595 155.664 53.0581 155.544 53.1846 155.46C53.311 155.376 53.4597 155.331 53.6118 155.331C53.8153 155.332 54.0099 155.414 54.1537 155.557C54.2976 155.701 54.3791 155.895 54.3809 156.098Z" fill="white"/>
<path d="M49.1959 148.179C49.1972 148.332 49.1528 148.483 49.0684 148.611C48.9839 148.739 48.8633 148.839 48.7217 148.899C48.58 148.958 48.4239 148.975 48.273 148.946C48.1221 148.916 47.9832 148.843 47.8741 148.735C47.7649 148.627 47.6904 148.489 47.6599 148.339C47.6295 148.189 47.6444 148.033 47.7029 147.891C47.7615 147.749 47.8609 147.628 47.9886 147.543C48.1163 147.457 48.2665 147.412 48.4202 147.412C48.6248 147.412 48.8211 147.492 48.9663 147.636C49.1116 147.78 49.1941 147.975 49.1959 148.179Z" fill="white"/>
<path d="M59.5713 148.179C59.5713 148.331 59.5262 148.479 59.4417 148.605C59.3572 148.732 59.2371 148.83 59.0966 148.888C58.956 148.946 58.8014 148.961 58.6522 148.932C58.503 148.902 58.366 148.829 58.2585 148.722C58.1509 148.614 58.0777 148.478 58.048 148.329C58.0183 148.18 58.0335 148.026 58.0917 147.885C58.15 147.745 58.2485 147.625 58.375 147.541C58.5015 147.457 58.6502 147.412 58.8023 147.412C59.0062 147.412 59.2018 147.492 59.3461 147.636C59.4903 147.78 59.5713 147.976 59.5713 148.179Z" fill="white"/>
<path d="M41.9566 156.971C42.971 161.45 49.3554 164.83 64.6237 174.833C66.7386 176.216 80.5351 163.964 78.3606 162.369C75.6158 160.385 64.5176 153.167 63.6425 152.737C56.2371 149.165 41.2671 153.928 41.9566 156.971Z" fill="#EB9481"/>
<path d="M75.3501 160.259C75.3501 160.259 81.9467 164.182 84.771 167.318C87.6274 170.648 89.6296 174.621 90.6051 178.895C91.6792 183.526 91.0759 195.388 87.6151 195.811C84.4859 196.195 85.7124 184.082 85.7124 184.082C85.7124 184.082 86.5013 196.652 82.6428 196.407C78.7843 196.162 81.0185 182.196 81.0185 182.196C81.0185 182.196 81.5423 195.117 77.5976 194.25C74.6208 193.588 75.9269 180.82 75.9269 180.82C75.9269 180.82 76.2981 191.928 73.2087 191.405C69.7944 190.803 70.2584 178.935 70.2584 178.935C62.6342 176.242 60.1083 171.849 58.6829 168.509C58.3382 167.688 75.3501 160.259 75.3501 160.259Z" fill="#3D8BC5"/>
<path d="M85.7261 179.716C85.8654 181.191 86.0245 182.68 86.0377 184.161C86.051 185.643 86.0377 187.119 85.8919 188.594C85.766 190.525 85.4213 192.436 84.8643 194.29C85.62 190.929 85.6466 185.63 85.6333 184.148C85.6201 182.666 85.6797 181.198 85.6333 179.716C85.6665 179.683 85.7195 179.683 85.7261 179.716Z" fill="#263238"/>
<path d="M80.3704 179.676C80.4699 181.562 80.6489 183.427 80.6688 185.326C80.6887 187.225 80.5428 188.998 80.4367 190.876C80.4367 191.022 80.3505 190.969 80.3505 190.823C80.3903 188.938 80.271 187.198 80.2842 185.313C80.2975 183.427 80.3771 181.548 80.324 179.669C80.324 179.643 80.3638 179.643 80.3704 179.676Z" fill="#263238"/>
<path d="M75.7752 178.809C76.0085 181.699 75.9396 184.606 75.5697 187.482C75.5697 187.628 75.4703 187.548 75.4769 187.403C75.5962 184.518 75.7156 182.256 75.6758 178.802C75.6758 178.763 75.7686 178.75 75.7752 178.809Z" fill="#263238"/>
<path d="M78.7247 160.861C78.7247 160.861 59.5581 173.55 59.3724 173.431C59.1868 173.312 41.9362 161.675 41.9561 156.938C41.976 152.201 57.0586 149.628 63.6287 152.671C70.1988 155.714 78.7247 160.861 78.7247 160.861Z" fill="#F8D465"/>
<path d="M72.6456 158.446C71.9031 158.83 65.8368 163.077 64.5374 164.043C63.238 165.009 57.9077 168.846 56.6414 169.938C56.6325 169.941 56.6245 169.946 56.6179 169.952C56.6113 169.959 56.6064 169.967 56.6035 169.976C56.6006 169.985 56.5999 169.994 56.6013 170.003C56.6027 170.013 56.6063 170.021 56.6117 170.029C56.6171 170.037 56.6243 170.043 56.6325 170.047C56.6408 170.051 56.65 170.054 56.6593 170.054C56.6686 170.054 56.6779 170.052 56.6863 170.048C56.6947 170.044 56.702 170.038 56.7077 170.03C58.1397 169.19 63.543 165.327 64.8888 164.381C66.2346 163.435 72.1351 159.088 72.7185 158.526C72.7915 158.48 72.7252 158.42 72.6456 158.446Z" fill="#263238"/>
<path d="M44.0045 156.098C44.0058 156.251 43.9614 156.402 43.877 156.53C43.7925 156.658 43.6719 156.758 43.5302 156.818C43.3886 156.877 43.2325 156.894 43.0816 156.865C42.9307 156.835 42.7918 156.762 42.6827 156.654C42.5735 156.546 42.499 156.408 42.4685 156.258C42.4381 156.108 42.453 155.952 42.5115 155.81C42.57 155.668 42.6695 155.547 42.7972 155.461C42.9249 155.376 43.0751 155.331 43.2288 155.331C43.4334 155.331 43.6297 155.411 43.7749 155.555C43.9202 155.699 44.0027 155.894 44.0045 156.098ZM53.611 155.344C53.457 155.342 53.3061 155.387 53.1775 155.471C53.049 155.556 52.9485 155.677 52.889 155.819C52.8295 155.96 52.8135 156.116 52.8433 156.267C52.873 156.418 52.947 156.556 53.0559 156.665C53.1648 156.774 53.3036 156.848 53.4547 156.877C53.6057 156.907 53.7622 156.891 53.9042 156.832C54.0463 156.772 54.1673 156.672 54.2521 156.544C54.3368 156.415 54.3813 156.265 54.38 156.111C54.38 155.908 54.299 155.712 54.1548 155.569C54.0105 155.425 53.8149 155.344 53.611 155.344ZM64.0263 155.344C63.8723 155.342 63.7215 155.387 63.5929 155.471C63.4643 155.556 63.3639 155.677 63.3043 155.819C63.2448 155.96 63.2289 156.116 63.2586 156.267C63.2883 156.418 63.3623 156.556 63.4712 156.665C63.5801 156.774 63.7189 156.848 63.87 156.877C64.0211 156.907 64.1776 156.891 64.3196 156.832C64.4616 156.772 64.5827 156.672 64.6674 156.544C64.7521 156.415 64.7967 156.265 64.7954 156.111C64.7954 155.908 64.7143 155.712 64.5701 155.569C64.4259 155.425 64.2303 155.344 64.0263 155.344ZM48.453 162.8C48.2996 162.8 48.1496 162.845 48.0221 162.93C47.8945 163.015 47.7951 163.136 47.7364 163.277C47.6777 163.419 47.6623 163.575 47.6922 163.725C47.7222 163.875 47.796 164.013 47.9045 164.121C48.013 164.229 48.1512 164.303 48.3017 164.333C48.4522 164.363 48.6081 164.347 48.7499 164.289C48.8916 164.23 49.0127 164.131 49.098 164.004C49.1832 163.876 49.2287 163.727 49.2287 163.574C49.2316 163.468 49.2125 163.362 49.1726 163.264C49.1327 163.166 49.0729 163.077 48.9969 163.003C48.9209 162.929 48.8305 162.872 48.7312 162.835C48.6318 162.797 48.5259 162.781 48.4199 162.786L48.453 162.8ZM58.8352 162.8C58.6815 162.798 58.5309 162.843 58.4025 162.927C58.274 163.011 58.1736 163.132 58.1139 163.273C58.0541 163.414 58.0378 163.57 58.067 163.721C58.0962 163.871 58.1695 164.01 58.2777 164.119C58.386 164.228 58.5241 164.302 58.6748 164.332C58.8254 164.363 58.9817 164.348 59.1239 164.289C59.266 164.231 59.3875 164.132 59.4731 164.004C59.5586 163.877 59.6043 163.727 59.6043 163.574C59.6071 163.468 59.5882 163.364 59.5487 163.266C59.5092 163.168 59.45 163.08 59.3747 163.006C59.2995 162.932 59.2098 162.875 59.1113 162.837C59.0128 162.799 58.9075 162.782 58.8021 162.786L58.8352 162.8ZM69.2174 162.8C69.0637 162.798 68.9131 162.843 68.7847 162.927C68.6562 163.011 68.5558 163.132 68.496 163.273C68.4363 163.414 68.42 163.57 68.4492 163.721C68.4784 163.871 68.5517 164.01 68.6599 164.119C68.7681 164.228 68.9063 164.302 69.057 164.332C69.2076 164.363 69.3639 164.348 69.5061 164.289C69.6482 164.231 69.7697 164.132 69.8552 164.004C69.9408 163.877 69.9864 163.727 69.9864 163.574C69.9883 163.469 69.9687 163.364 69.9289 163.267C69.8891 163.17 69.8298 163.082 69.7548 163.008C69.6797 162.934 69.5905 162.877 69.4924 162.839C69.3943 162.801 69.2894 162.783 69.1842 162.786L69.2174 162.8Z" fill="white"/>
<path d="M55.5544 151.474C57.1389 151.328 61.4748 151.249 64.836 153.227C64.8758 153.227 64.836 153.299 64.836 153.28C61.8924 152.009 57.1257 151.507 55.5544 151.533C55.5279 151.533 55.5146 151.48 55.5544 151.474Z" fill="#263238"/>
<path d="M77.5448 161.642L78.6984 160.821V160.901C77.5448 160.2 76.3647 159.538 75.2045 158.857C74.0443 158.175 72.8576 157.533 71.6775 156.872C69.3239 155.549 66.9372 154.292 64.5107 153.134L64.2588 153.015L64.4046 152.783C65.956 150.342 67.5538 147.941 69.2576 145.605C70.9348 143.263 72.7294 141.006 74.6343 138.844C72.8664 141.12 71.1692 143.449 69.5427 145.83C67.9184 148.205 66.314 150.6 64.8024 153.048L64.703 152.697C67.1427 153.875 69.5162 155.172 71.8565 156.521C73.0233 157.183 74.1769 157.904 75.3305 158.618C76.484 159.333 77.6045 160.067 78.7315 160.821L78.7912 160.861L78.7315 160.901L77.5448 161.642Z" fill="#263238"/>
<path d="M70.6572 143.991C70.9025 143.727 71.1412 143.462 71.3998 143.211C71.6583 142.959 71.9103 142.721 72.1821 142.483C72.7171 142.006 73.2915 141.574 73.8992 141.193C73.4443 141.748 72.9431 142.264 72.4009 142.734C72.129 142.966 71.8506 143.197 71.5655 143.396C71.2817 143.622 70.9776 143.821 70.6572 143.991Z" fill="#263238"/>
<path d="M54.3008 169.858C55.7718 170.64 57.1281 171.619 58.3317 172.769C57.598 172.379 56.8934 171.937 56.2234 171.446C55.5442 170.965 54.9015 170.434 54.3008 169.858Z" fill="#263238"/>
<path d="M79.799 129.311C79.8454 130.436 81.7879 135.768 85.1691 136.099C86.9061 136.271 87.7414 130.237 87.7414 130.237L87.8806 129.8L89.8695 123.747L82.0796 117.634C82.0796 117.634 79.7791 128.987 79.799 129.311Z" fill="#70ADD5"/>
<path d="M81.2646 121.862C81.755 123.573 82.598 125.162 83.7396 126.529C84.8813 127.897 86.2964 129.011 87.8944 129.8L89.8833 123.747L82.0801 117.634C82.0801 117.634 81.689 119.559 81.2646 121.862Z" fill="#263238"/>
<path d="M99.5292 115.074C99.2176 126.268 92.4619 127.34 90.0421 127.274C87.8476 127.207 80.3759 126.711 79.5339 115.544C78.6919 104.377 84.0024 100.99 89.0343 100.864C94.0663 100.738 99.8276 103.881 99.5292 115.074Z" fill="#70ADD5"/>
<path d="M97.9121 112.342C97.6608 112.28 97.4129 112.205 97.1695 112.117C96.8977 112.073 96.6481 111.941 96.4602 111.74C96.4113 111.667 96.3886 111.579 96.3958 111.492C96.4031 111.404 96.4397 111.321 96.4999 111.257C96.6384 111.148 96.8032 111.077 96.9777 111.052C97.1522 111.026 97.3304 111.047 97.4944 111.111C97.8434 111.198 98.1495 111.407 98.3563 111.7C98.401 111.77 98.424 111.852 98.4224 111.935C98.4208 112.019 98.3947 112.1 98.3473 112.168C98.2999 112.236 98.2333 112.289 98.1559 112.32C98.0785 112.351 97.9937 112.359 97.9121 112.342Z" fill="#183C4F"/>
<path d="M90.7513 111.773C91.0091 111.756 91.2658 111.725 91.5203 111.68C91.7967 111.686 92.0671 111.6 92.2894 111.436C92.3496 111.371 92.3863 111.289 92.3935 111.201C92.4007 111.113 92.378 111.026 92.3292 110.953C92.2133 110.821 92.0646 110.722 91.8981 110.666C91.7315 110.611 91.5532 110.6 91.3811 110.635C91.0199 110.659 90.68 110.814 90.4264 111.072C90.3727 111.133 90.338 111.209 90.3265 111.29C90.315 111.371 90.3271 111.453 90.3614 111.527C90.3958 111.601 90.4508 111.664 90.52 111.708C90.5892 111.751 90.6695 111.774 90.7513 111.773Z" fill="#183C4F"/>
<path d="M91.9988 114.717C91.9988 114.717 91.9392 114.717 91.9392 114.783C91.9392 115.544 91.7535 116.417 91.0508 116.622V116.668C91.8729 116.602 92.0983 115.445 91.9988 114.717Z" fill="#CDEAF9"/>
<path d="M91.3683 113.883C90.1485 113.711 89.8965 116.159 91.0236 116.318C92.1507 116.476 92.3893 114.022 91.3683 113.883Z" fill="#CDEAF9"/>
<path d="M90.871 113.963C90.6456 114.075 90.4069 114.3 90.1483 114.3C89.8898 114.3 89.6445 114.022 89.4854 113.751H89.439C89.3859 114.221 89.5119 114.717 90.0091 114.843C90.5063 114.968 90.8378 114.571 91.0036 114.108C91.0301 114.049 90.9638 113.916 90.871 113.963Z" fill="#CDEAF9"/>
<path d="M96.194 115.021C96.194 115.021 96.2471 115.061 96.2471 115.094C96.1344 115.848 96.141 116.734 96.7973 117.078C96.7973 117.078 96.7973 117.125 96.7973 117.118C95.962 116.893 95.9686 115.716 96.194 115.021Z" fill="#CDEAF9"/>
<path d="M96.9634 114.327C98.1899 114.373 98.0176 116.827 96.8773 116.788C95.7369 116.748 95.9292 114.267 96.9634 114.327Z" fill="#CDEAF9"/>
<path d="M97.461 114.498C97.6466 114.644 97.8256 114.895 98.051 114.928C98.2765 114.961 98.5416 114.71 98.714 114.472H98.7538C98.7538 114.941 98.5416 115.418 98.0908 115.477C97.64 115.537 97.4278 115.107 97.3218 114.63C97.3085 114.571 97.3881 114.445 97.461 114.498Z" fill="#CDEAF9"/>
<path d="M94.7962 118.296C94.7962 118.296 94.8492 119.447 94.7962 119.983C94.2833 120.057 93.76 119.992 93.2807 119.796C92.8015 119.599 92.3838 119.278 92.0713 118.865C92.0316 118.812 92.1111 118.759 92.1575 118.792C92.7985 119.322 93.5938 119.631 94.4249 119.672C94.4713 119.527 94.2658 117.687 94.352 117.687C94.7646 117.767 95.1655 117.898 95.5453 118.078C95.4989 115.683 95.0746 113.308 95.068 110.926C95.068 110.907 95.0757 110.888 95.0893 110.875C95.103 110.861 95.1216 110.854 95.1409 110.854C95.1603 110.854 95.1788 110.861 95.1925 110.875C95.2062 110.888 95.2138 110.907 95.2138 110.926C95.7478 113.452 96.0277 116.025 96.0492 118.607C96.0691 118.911 95.0017 118.409 94.7962 118.296Z" fill="#263238"/>
<path d="M94.0729 119.858C93.742 120.2 93.329 120.453 92.8729 120.592C92.6215 120.66 92.355 120.649 92.1105 120.559C91.5801 120.354 91.6199 119.851 91.7658 119.434C91.8458 119.213 91.9527 119.001 92.084 118.806C92.6172 119.359 93.3143 119.728 94.0729 119.858Z" fill="#263238"/>
<path d="M92.8729 120.592C92.6215 120.66 92.355 120.649 92.1105 120.559C91.5801 120.354 91.6199 119.851 91.7658 119.434C92.0517 119.48 92.3147 119.618 92.5146 119.827C92.7146 120.036 92.8404 120.305 92.8729 120.592Z" fill="#FF9BBC"/>
<path d="M82.7424 101.545C83.7568 101.373 85.686 96.2526 82.696 93.0837C79.706 89.9148 74.6939 91.8995 75.7215 96.59C76.3712 99.5538 80.601 101.902 82.7424 101.545Z" fill="#183C4F"/>
<path d="M77.8971 91.8335C76.7053 92.4939 75.7711 93.5356 75.2452 94.7907C74.9884 95.3736 74.8899 96.0137 74.9597 96.6467C75.0296 97.2796 75.2652 97.883 75.643 98.3962C76.4505 99.4494 77.5299 100.263 78.7656 100.751C79.39 101.02 80.0381 101.231 80.7015 101.38C81.3673 101.566 82.0625 101.624 82.7501 101.552C82.073 101.773 81.3551 101.841 80.6485 101.75C79.9354 101.687 79.2322 101.541 78.5535 101.314C77.144 100.877 75.9063 100.012 75.0132 98.8395C74.5619 98.2255 74.2933 97.4969 74.2381 96.7374C74.183 95.978 74.3437 95.2184 74.7016 94.5459C75.0214 93.9007 75.4697 93.3274 76.0192 92.861C76.5686 92.3946 77.2076 92.045 77.8971 91.8335Z" fill="#183C4F"/>
<path d="M80.1904 115.306C82.2324 115.842 83.3992 111.164 83.3992 111.164C83.3992 111.164 92.4488 110.847 94.1593 103.755C94.8818 106.831 96.7679 109.51 99.4233 111.231C99.4233 111.231 100.166 103.292 94.1195 100.943C94.1195 100.943 86.7274 97.0863 81.523 102.663C76.3187 108.24 78.8247 114.942 80.1904 115.306Z" fill="#183C4F"/>
<path d="M94.2589 103.232C94.2147 104.354 93.9322 105.455 93.4302 106.46C92.9326 107.475 92.2307 108.375 91.3683 109.107C91.1587 109.293 90.9373 109.465 90.7054 109.623L90.3606 109.874C90.2413 109.947 90.1153 110.013 89.9893 110.079C89.7374 110.211 89.4921 110.357 89.2402 110.476L88.4446 110.774L88.0468 110.919L87.6358 111.019L86.8203 111.21C86.2634 111.29 85.7065 111.336 85.1562 111.376C85.6933 111.224 86.2369 111.124 86.7606 110.972L87.543 110.708L87.9341 110.582L88.3054 110.417C88.5507 110.297 88.796 110.185 89.0479 110.079C89.2998 109.973 89.512 109.801 89.744 109.669L90.0954 109.464L90.4203 109.226C90.65 109.072 90.8714 108.907 91.0832 108.73C91.9064 108.026 92.5997 107.184 93.1318 106.242C93.4071 105.773 93.6422 105.282 93.8346 104.773C94.0207 104.273 94.1626 103.757 94.2589 103.232Z" fill="#263238"/>
<path d="M89.3403 118.547C88.6785 118.402 88.0709 118.074 87.5865 117.601C87.1022 117.129 86.7605 116.53 86.6005 115.873C86.4404 115.216 86.4684 114.527 86.6812 113.885C86.894 113.243 87.2831 112.674 87.8042 112.241C88.3254 111.809 88.9576 111.532 89.629 111.44C90.3004 111.349 90.984 111.448 91.602 111.725C92.22 112.002 92.7477 112.447 93.1249 113.008C93.5021 113.57 93.7138 114.226 93.7358 114.902C93.7511 115.451 93.6412 115.996 93.4143 116.497C93.1875 116.997 92.8496 117.44 92.4262 117.791C92.0029 118.142 91.5051 118.393 90.9705 118.524C90.4359 118.655 89.8785 118.663 89.3403 118.547ZM90.7922 111.932C90.5376 111.876 90.2769 111.854 90.0165 111.865C89.2263 111.897 88.4778 112.228 87.9236 112.791C87.3693 113.354 87.0509 114.107 87.0331 114.896C87.0153 115.685 87.2995 116.451 87.8278 117.038C88.3561 117.626 89.0889 117.99 89.8769 118.057C90.6649 118.124 91.449 117.889 92.0695 117.4C92.69 116.911 93.1004 116.204 93.217 115.423C93.3336 114.643 93.1478 113.847 92.6973 113.198C92.2469 112.55 91.5656 112.097 90.7922 111.932Z" fill="#3D8AC3"/>
<path d="M97.613 119.328C96.2871 119.03 95.3324 117.376 95.5246 115.504C95.5975 114.605 95.9498 113.752 96.5324 113.063C96.766 112.753 97.0756 112.509 97.4313 112.354C97.787 112.198 98.1768 112.137 98.5632 112.175C98.9496 112.214 99.3195 112.351 99.6373 112.574C99.9551 112.796 100.21 113.097 100.378 113.446C100.813 114.237 100.992 115.143 100.888 116.04C100.689 118.025 99.3235 119.513 97.8451 119.348L97.613 119.328ZM98.7003 112.712C98.6386 112.705 98.5764 112.705 98.5147 112.712C98.2062 112.694 97.898 112.751 97.6163 112.878C97.3346 113.005 97.0879 113.197 96.897 113.44C96.3802 114.05 96.0673 114.807 96.002 115.603C95.8296 117.323 96.665 118.818 97.8915 118.911C99.118 119.004 100.232 117.733 100.404 116.013C100.499 115.221 100.344 114.418 99.96 113.718C99.8349 113.467 99.658 113.245 99.4409 113.067C99.2238 112.889 98.9714 112.759 98.7003 112.686V112.712Z" fill="#3D8AC3"/>
<path d="M93.5753 115.305L93.2969 114.902C93.8936 114.498 95.2195 114.009 96.0018 115.041L95.6173 115.332C94.9145 114.412 93.6284 115.266 93.5753 115.305Z" fill="#3D8AC3"/>
<path d="M77.4318 114.624L77.0273 114.366C77.1467 114.174 78.2605 112.521 79.3544 112.448C80.4483 112.375 86.7664 113.665 87.0383 113.665L86.9455 114.141C85.1156 113.778 80.1698 112.858 79.3809 112.904C78.592 112.951 77.7301 114.168 77.4318 114.624Z" fill="#3D8AC3"/>
<path d="M81.5634 115.067C81.5634 115.067 79.5281 111.31 77.8507 111.998C76.1734 112.686 77.4198 117.952 79.1767 118.825C79.3963 118.959 79.641 119.047 79.8958 119.083C80.1506 119.119 80.4102 119.103 80.6585 119.035C80.9068 118.968 81.1387 118.85 81.3399 118.69C81.5411 118.53 81.7074 118.331 81.8286 118.104L81.5634 115.067Z" fill="#70ADD5"/>
<path d="M78.248 113.493V113.539C79.4878 114.201 80.0314 115.524 80.3696 116.801C80.31 116.661 80.2205 116.536 80.1075 116.435C79.9944 116.334 79.8606 116.259 79.7153 116.214C79.57 116.17 79.4167 116.158 79.2664 116.18C79.116 116.201 78.9721 116.255 78.8447 116.337C78.805 116.337 78.8447 116.41 78.8447 116.41C79.082 116.363 79.3281 116.39 79.549 116.489C79.7699 116.587 79.9547 116.751 80.0779 116.959C80.2776 117.308 80.4419 117.676 80.5685 118.057C80.6149 118.183 80.8337 118.143 80.8005 118.005C81.0259 116.311 80.0049 113.863 78.248 113.493Z" fill="#263238"/>
<path d="M79.4548 118.441C79.4741 118.567 79.5426 118.68 79.6452 118.755C79.7478 118.83 79.876 118.861 80.0017 118.842C80.1275 118.822 80.2404 118.754 80.3156 118.652C80.3908 118.549 80.4222 118.421 80.4028 118.296C80.3933 118.234 80.3715 118.174 80.3389 118.12C80.3062 118.067 80.2632 118.02 80.2124 117.983C80.1616 117.946 80.104 117.919 80.0429 117.904C79.9817 117.889 79.9181 117.886 79.8559 117.896C79.7936 117.905 79.7339 117.927 79.68 117.96C79.6262 117.992 79.5793 118.035 79.5421 118.086C79.5048 118.136 79.4779 118.194 79.463 118.255C79.448 118.316 79.4452 118.379 79.4548 118.441Z" fill="#455A64"/>
<path d="M79.7004 118.402C79.7102 118.463 79.7436 118.517 79.7933 118.553C79.843 118.589 79.905 118.604 79.9656 118.595C80.0237 118.583 80.0753 118.55 80.1098 118.502C80.1443 118.454 80.1591 118.395 80.1513 118.336C80.1472 118.306 80.1373 118.278 80.122 118.252C80.1068 118.226 80.0865 118.204 80.0624 118.186C80.0383 118.168 80.0109 118.155 79.9818 118.148C79.9526 118.14 79.9224 118.139 79.8927 118.144C79.8342 118.155 79.782 118.188 79.7464 118.236C79.7108 118.284 79.6944 118.343 79.7004 118.402Z" fill="#263238"/>
<path d="M78.6785 117.76C78.6932 117.849 78.7425 117.929 78.8157 117.982C78.8889 118.035 78.9801 118.058 79.0697 118.044C79.1137 118.038 79.156 118.023 79.1941 118C79.2322 117.977 79.2655 117.947 79.292 117.912C79.3185 117.876 79.3376 117.835 79.3484 117.792C79.3592 117.749 79.3613 117.705 79.3548 117.661C79.3491 117.616 79.3346 117.574 79.312 117.535C79.2894 117.497 79.2593 117.463 79.2233 117.437C79.1874 117.41 79.1465 117.391 79.103 117.381C79.0595 117.37 79.0143 117.369 78.9702 117.376C78.881 117.389 78.8004 117.437 78.7459 117.509C78.6913 117.58 78.6672 117.671 78.6785 117.76Z" fill="#455A64"/>
<path d="M13.3761 178.38L236.666 178.38V170.454L13.3761 170.454V178.38Z" fill="#37474F"/>
<path d="M21.3643 186.305L228.67 186.305V178.386L21.3643 178.386V186.305Z" fill="#455A64"/>
<path d="M228.657 297.481H231.866L222.524 186.305H214.33L228.657 297.481Z" fill="#455A64"/>
<path d="M214.33 186.305L215.291 193.741H223.148L222.524 186.305H214.33Z" fill="#263238"/>
<path d="M21.3846 297.481H18.1758L27.5171 186.305H35.7115L21.3846 297.481Z" fill="#455A64"/>
<path d="M35.7121 186.305L34.7508 193.741H26.8945L27.5177 186.305H35.7121Z" fill="#263238"/>
<path d="M141.39 168.502H97.8125V170.454H141.39V168.502Z" fill="#C7C7C7"/>
<path d="M141.383 168.502H119.452V170.454H141.383V168.502Z" fill="#A6A6A6"/>
<path d="M121.812 170.454H164.283L169.832 141.669H127.368L121.812 170.454Z" fill="#C7C7C7"/>
<path d="M143.24 156.065C143.202 156.392 143.235 156.723 143.335 157.037C143.435 157.35 143.602 157.639 143.822 157.884C144.043 158.128 144.313 158.323 144.615 158.456C144.917 158.588 145.244 158.655 145.573 158.652C146.276 158.64 146.95 158.371 147.468 157.897C147.986 157.423 148.312 156.776 148.384 156.078C148.42 155.75 148.386 155.418 148.283 155.104C148.18 154.789 148.011 154.501 147.788 154.257C147.565 154.013 147.292 153.819 146.988 153.688C146.684 153.557 146.355 153.493 146.024 153.498C145.327 153.517 144.661 153.787 144.149 154.26C143.636 154.732 143.313 155.373 143.24 156.065Z" fill="#A6A6A6"/>
<path d="M171.6 108.704C171.68 109.177 171.618 109.662 171.422 110.099C171.225 110.536 170.903 110.905 170.496 111.16C170.089 111.414 169.615 111.542 169.136 111.528C168.656 111.514 168.191 111.358 167.8 111.08C167.409 110.802 167.109 110.414 166.939 109.966C166.769 109.518 166.735 109.03 166.844 108.563C166.952 108.096 167.196 107.672 167.546 107.343C167.896 107.015 168.335 106.798 168.809 106.719C169.443 106.616 170.091 106.766 170.614 107.138C171.137 107.51 171.492 108.073 171.6 108.704Z" fill="white"/>
<path d="M178.788 103.96C178.868 104.433 178.806 104.919 178.609 105.356C178.412 105.794 178.09 106.163 177.683 106.418C177.275 106.672 176.802 106.8 176.321 106.785C175.841 106.771 175.376 106.614 174.985 106.336C174.594 106.057 174.295 105.669 174.125 105.22C173.955 104.771 173.923 104.283 174.032 103.816C174.141 103.349 174.387 102.925 174.738 102.597C175.088 102.269 175.529 102.053 176.003 101.976C176.636 101.87 177.285 102.02 177.807 102.393C178.329 102.765 178.682 103.329 178.788 103.96Z" fill="white"/>
<path d="M194.486 128.895L173.622 119.077L186.252 92.3564L201.739 99.6469L204.709 107.262L194.486 128.895Z" fill="#EBEBEB"/>
<path d="M201.74 99.647L204.71 107.262L199.333 104.734L201.74 99.647Z" fill="#DBDBDB"/>
<path d="M185.828 98.4964L197.426 103.952L197.751 103.264L186.153 97.8082L185.828 98.4964Z" fill="#DBDBDB"/>
<path d="M185.012 100.229L196.609 105.685L196.934 104.996L185.337 99.5406L185.012 100.229Z" fill="#DBDBDB"/>
<path d="M184.189 101.959L195.787 107.415L196.112 106.726L184.514 101.271L184.189 101.959Z" fill="#DBDBDB"/>
<path d="M183.371 103.69L200.366 111.685L200.691 110.997L183.696 103.002L183.371 103.69Z" fill="#DBDBDB"/>
<path d="M182.553 105.426L199.548 113.421L199.873 112.733L182.878 104.738L182.553 105.426Z" fill="#DBDBDB"/>
<path d="M181.737 107.159L198.731 115.153L199.057 114.465L182.062 106.47L181.737 107.159Z" fill="#DBDBDB"/>
<path d="M180.914 108.889L197.909 116.883L198.234 116.195L181.239 108.2L180.914 108.889Z" fill="#DBDBDB"/>
<path d="M180.098 110.621L197.093 118.616L197.418 117.928L180.423 109.933L180.098 110.621Z" fill="#DBDBDB"/>
<path d="M179.282 112.351L196.277 120.346L196.602 119.658L179.608 111.663L179.282 112.351Z" fill="#DBDBDB"/>
<path d="M178.457 114.087L195.452 122.082L195.777 121.393L178.782 113.399L178.457 114.087Z" fill="#DBDBDB"/>
<path d="M177.641 115.819L194.636 123.814L194.961 123.126L177.966 115.131L177.641 115.819Z" fill="#DBDBDB"/>
<path d="M176.82 117.549L193.814 125.543L194.14 124.855L177.145 116.861L176.82 117.549Z" fill="#DBDBDB"/>
<path d="M193.508 136.998L198.881 111.489L168.751 105.17L163.378 130.678L193.508 136.998Z" fill="#BE2BBB"/>
<path d="M177.893 126.242L195.024 129.834L188.673 117.509L177.893 126.242Z" fill="#BE2BBB"/>
<g opacity="0.3">
<path opacity="0.3" d="M177.893 126.242L195.024 129.834L188.673 117.509L177.893 126.242Z" fill="white"/>
</g>
<path d="M169.459 124.489L184.648 127.671L178.495 119.223L169.459 124.489Z" fill="#BE2BBB"/>
<g opacity="0.5">
<path opacity="0.5" d="M169.459 124.489L184.648 127.671L178.495 119.223L169.459 124.489Z" fill="white"/>
</g>
<path d="M195.014 129.843L164.884 123.524L163.374 130.691L193.504 137.01L195.014 129.843Z" fill="#BE2BBB"/>
<g opacity="0.5">
<path opacity="0.5" d="M195.013 129.843L164.883 123.523L163.373 130.69L193.503 137.01L195.013 129.843Z" fill="white"/>
</g>
<path opacity="0.9" d="M171.866 116.814C172.334 117.015 172.854 117.059 173.35 116.941C173.846 116.824 174.29 116.55 174.618 116.16C174.946 115.771 175.139 115.286 175.169 114.779C175.2 114.271 175.066 113.767 174.787 113.342C174.508 112.916 174.099 112.591 173.621 112.415C173.143 112.239 172.621 112.222 172.132 112.365C171.643 112.508 171.213 112.804 170.906 113.21C170.599 113.616 170.431 114.11 170.427 114.618C170.422 115.085 170.556 115.543 170.812 115.934C171.068 116.325 171.435 116.631 171.866 116.814Z" fill="white"/>
<path d="M139.161 132.223H138.498V133.546H139.161V132.223Z" fill="#263238"/>
<path d="M139.161 130.059H138.498V127.181H139.161V130.059ZM139.161 125.018H138.498V122.134H139.161V125.018ZM139.161 119.977H138.498V117.092H139.161V119.977ZM139.161 114.929H138.498V112.051H139.161V114.929Z" fill="#263238"/>
<path d="M139.154 109.888H138.491V108.234H140.149V108.895H139.154V109.888Z" fill="#263238"/>
<path d="M149.139 108.895H146.573V108.234H149.139V108.895ZM144.644 108.895H142.078V108.234H144.644V108.895Z" fill="#263238"/>
<path d="M152.387 108.234H151.062V108.895H152.387V108.234Z" fill="#263238"/>
<path d="M140.076 133.512C140.076 133.758 140.003 133.999 139.866 134.203C139.729 134.408 139.534 134.567 139.306 134.661C139.079 134.756 138.828 134.78 138.586 134.732C138.344 134.684 138.122 134.566 137.948 134.392C137.774 134.218 137.655 133.996 137.607 133.755C137.559 133.514 137.584 133.264 137.678 133.036C137.772 132.809 137.932 132.615 138.137 132.478C138.342 132.342 138.583 132.269 138.829 132.269C139.16 132.269 139.477 132.4 139.711 132.633C139.944 132.866 140.076 133.182 140.076 133.512Z" fill="#263238"/>
<path d="M152.328 109.808C152.575 109.808 152.816 109.735 153.021 109.599C153.226 109.462 153.386 109.268 153.48 109.041C153.574 108.813 153.599 108.563 153.551 108.322C153.503 108.081 153.384 107.859 153.21 107.685C153.035 107.511 152.813 107.393 152.572 107.345C152.33 107.297 152.079 107.321 151.851 107.415C151.624 107.51 151.429 107.669 151.292 107.874C151.155 108.078 151.082 108.319 151.082 108.565C151.082 108.894 151.213 109.211 151.447 109.444C151.681 109.677 151.998 109.808 152.328 109.808Z" fill="#263238"/>
<path d="M210.676 107.784H209.35V108.446H210.676V107.784Z" fill="#263238"/>
<path d="M221.151 108.446H218.161V107.784H221.151V108.446ZM215.92 108.446H212.93V107.784H215.92V108.446Z" fill="#263238"/>
<path d="M225.036 108.439H223.379V107.778H224.373V106.785H225.036V108.439Z" fill="#263238"/>
<path d="M225.036 104.834H224.373V102.227H225.036V104.834ZM225.036 100.269H224.373V97.6623H225.036V100.269ZM225.036 95.7106H224.373V93.0644H225.036V95.7106ZM225.036 91.1458H224.373V88.526H225.036V91.1458ZM225.036 86.581H224.373V83.9745H225.036V86.581ZM225.036 82.0162H224.373V79.4097H225.036V82.0162Z" fill="#263238"/>
<path d="M225.036 77.4581H224.373V76.4658H223.379V75.8042H225.036V77.4581Z" fill="#263238"/>
<path d="M220.846 75.8042H217.458V76.4658H220.846V75.8042Z" fill="#263238"/>
<path d="M214.919 75.8042H213.593V76.4658H214.919V75.8042Z" fill="#263238"/>
<path d="M209.416 109.359C210.105 109.359 210.663 108.802 210.663 108.115C210.663 107.428 210.105 106.871 209.416 106.871C208.728 106.871 208.17 107.428 208.17 108.115C208.17 108.802 208.728 109.359 209.416 109.359Z" fill="#263238"/>
<path d="M213.653 74.8911C213.406 74.8911 213.165 74.9641 212.96 75.1007C212.755 75.2374 212.595 75.4316 212.501 75.6589C212.407 75.8862 212.382 76.1362 212.43 76.3775C212.478 76.6188 212.597 76.8404 212.771 77.0143C212.946 77.1883 213.168 77.3067 213.409 77.3547C213.651 77.4027 213.902 77.3781 214.13 77.2839C214.357 77.1898 214.552 77.0304 214.689 76.8258C214.826 76.6213 214.899 76.3808 214.899 76.1349C214.899 75.805 214.768 75.4886 214.534 75.2554C214.3 75.0221 213.983 74.8911 213.653 74.8911Z" fill="#263238"/>
</g>
</svg>
