<svg width="48" height="48" viewBox="0 0 48 48" fill="none" xmlns="http://www.w3.org/2000/svg">
<g clip-path="url(#clip0_4362_20821)">
<path d="M29.6478 38.8237C29.6478 35.7056 32.1753 33.1761 35.2916 33.1761H42.3548C45.4711 33.1761 48.0006 35.7073 48.0006 38.8237C48.0006 41.9419 45.4731 44.4714 42.3548 44.4714H35.2916C32.1754 44.4714 29.6478 41.9383 29.6478 38.8237ZM32.4715 38.8237C32.4715 40.38 33.7353 41.6475 35.2915 41.6475H42.3547C43.9128 41.6475 45.1766 40.3819 45.1766 38.8237C45.1766 37.2675 43.911 36 42.3547 36H35.2915C33.7353 36 32.4715 37.2637 32.4715 38.8237ZM21.8832 43.0594C22.6613 43.0594 23.2951 43.6912 23.2951 44.4712C23.2951 45.2494 22.6613 45.8831 21.8832 45.8831C9.7968 45.8831 0 36.0844 0 23.9999C0 11.9154 9.7968 2.1167 21.8832 2.1167C33.9677 2.1167 43.7645 11.9154 43.7645 23.9999C43.7645 24.7799 43.1326 25.4118 42.3526 25.4118C41.5726 25.4118 40.9407 24.7799 40.9407 23.9999C40.9407 13.4735 32.4078 4.94054 21.8833 4.94054C11.3569 4.94054 2.82394 13.4735 2.82394 23.9999C2.82394 34.5263 11.3568 43.0594 21.8832 43.0594ZM35.2949 40.2356C34.5149 40.2356 33.883 39.6037 33.883 38.8237C33.883 38.0437 34.5149 37.4119 35.2949 37.4119H38.8237C39.6036 37.4119 40.2355 38.0437 40.2355 38.8237C40.2355 39.6037 39.6036 40.2356 38.8237 40.2356H35.2949ZM29.6472 23.295C30.4272 23.295 31.0591 23.9268 31.0591 24.705C31.0591 25.485 30.4272 26.1168 29.6472 26.1168H21.1762C20.3962 26.1168 19.7643 25.485 19.7643 24.705V11.9999C19.7643 11.2199 20.3962 10.588 21.1762 10.588C21.9562 10.588 22.588 11.2199 22.588 11.9999V23.2947L29.6472 23.295Z" fill="#F19F24"/>
</g>
<defs>
<clipPath id="clip0_4362_20821">
<rect width="48" height="48" fill="white"/>
</clipPath>
</defs>
</svg>
