<svg width="18" height="18" viewBox="0 0 18 18" fill="none" xmlns="http://www.w3.org/2000/svg">
<path d="M3.3521 16.6943H14.4639C16.3543 16.6943 17.2467 15.1284 16.3332 13.4794L10.7254 3.4788C9.79073 1.8085 8.00411 1.8085 7.06947 3.4788L1.48282 13.4794C0.54818 15.1497 1.46254 16.6943 3.3521 16.6943V16.6943ZM2.83285 14.2517L8.41951 4.25111C8.68968 3.77073 9.0215 3.64596 9.35415 4.25111L14.9628 14.2517C15.2955 14.8568 14.9628 15.1284 14.4436 15.1284H3.3521C2.64626 15.1284 2.56268 14.7736 2.83285 14.2517V14.2517Z" fill="#BD7701"/>
<path d="M8.6668 10.8835H9.15485C9.38365 10.8835 9.66673 10.5254 9.66673 10.2954V7.3041C9.66673 6.94933 9.39656 6.67773 9.04364 6.67773H8.73209C8.37917 6.67773 8.109 6.94933 8.109 7.3041V10.2954C8.109 10.5246 8.43801 10.8835 8.6668 10.8835Z" fill="#BD7701"/>
<path d="M9.68688 12.4491C9.68688 13.5069 8.10886 13.5069 8.10886 12.4491C8.10886 11.3913 9.68688 11.3913 9.68688 12.4491Z" fill="#BD7701"/>
</svg>
