<svg width="20" height="20" viewBox="0 0 20 20" fill="none" xmlns="http://www.w3.org/2000/svg">
<path d="M18.408 12.9034C18.7349 12.9034 19 13.1658 19 13.4895V15.6002C19 17.4776 17.4623 19 15.566 19H4.43404C2.53774 19 1 17.4776 1 15.6002V13.4895C1 13.1658 1.26509 12.9034 1.59204 12.9034C1.91899 12.9034 2.18408 13.1658 2.18408 13.4895V15.6002C2.18408 16.8302 3.19166 17.8278 4.43408 17.8278H15.566C16.8084 17.8278 17.816 16.8302 17.816 15.6002V13.4895C17.816 13.1658 18.081 12.9034 18.408 12.9034ZM9.99998 2.00008C10.3136 2.00008 10.5709 2.24164 10.5906 2.54723L10.592 2.58621V12.2574L13.1485 9.89548C13.3771 9.68386 13.73 9.68664 13.9557 9.89409L13.9853 9.92402C14.199 10.1503 14.1962 10.4997 13.9867 10.7232L13.9564 10.7524L10.4077 14.0317C10.3965 14.0422 10.3859 14.0512 10.3747 14.061C10.3712 14.0631 10.3684 14.0658 10.3656 14.0679C10.3585 14.0735 10.3508 14.0791 10.3438 14.0839C10.3388 14.0874 10.3339 14.0909 10.3283 14.0944C10.3234 14.0979 10.3184 14.1013 10.3128 14.1041C10.3079 14.1076 10.303 14.1104 10.2973 14.1139C10.2896 14.1181 10.2819 14.1222 10.2734 14.1264L10.2643 14.1313C10.2573 14.1348 10.2495 14.1382 10.2425 14.1417C10.2369 14.1438 10.232 14.1459 10.227 14.148C10.22 14.1508 10.2137 14.1536 10.2073 14.1563L10.1898 14.1619C10.1848 14.164 10.1799 14.1654 10.1743 14.1668C10.1673 14.1689 10.1602 14.171 10.1525 14.173C10.1335 14.1786 10.1131 14.1828 10.0934 14.1856C10.0885 14.1863 10.0829 14.187 10.078 14.1877L10.0386 14.1918L9.99993 14.1925C9.9697 14.1925 9.93946 14.1904 9.90923 14.1863L9.88181 14.1814C9.7004 14.2176 9.50492 14.1696 9.35939 14.0352L5.80655 10.7523C5.56749 10.5316 5.55484 10.1606 5.77772 9.92395C6.00062 9.68727 6.37538 9.67474 6.61443 9.89541L9.40803 12.4765V2.58614C9.40803 2.26244 9.67303 2.00008 9.99998 2.00008Z" fill="#BE2BBB" stroke="#BE2BBB" stroke-width="0.3"/>
</svg>
