<svg width="36" height="36" viewBox="0 0 36 36" fill="none" xmlns="http://www.w3.org/2000/svg">
<circle cx="18" cy="18" r="18" fill="#BE2BBB"/>
<g clip-path="url(#clip0_459_2294)">
<path fill-rule="evenodd" clip-rule="evenodd" d="M26.2746 25.5519C26.9321 25.0207 27.5517 24.4677 26.6307 23.315C26.0579 22.5984 25.3683 22.0269 24.5881 21.5323C23.335 20.7373 22.6296 21.1363 21.9948 21.6622C18.7102 24.3822 12.0779 17.7499 14.7975 14.4653C15.3232 13.8306 15.7222 13.125 14.9274 11.8718C14.4329 11.0924 13.861 10.4022 13.1443 9.8292C11.991 8.90867 11.439 9.52811 10.9071 10.1858C5.49362 16.8837 19.5745 30.9651 26.2737 25.5516L26.2746 25.5519Z" fill="white"/>
</g>
<defs>
<clipPath id="clip0_459_2294">
<rect width="22" height="22" fill="white" transform="translate(7 7)"/>
</clipPath>
</defs>
</svg>
